<svg width="35" height="35" viewBox="0 0 35 35" fill="none" xmlns="http://www.w3.org/2000/svg">
<path opacity="0.5" d="M35 17.5C35 27.1652 27.1652 35 17.5 35C7.83475 35 0 27.1652 0 17.5C0 7.83475 7.83475 0 17.5 0C27.1652 0 35 7.83475 35 17.5Z" fill="#3452F1"/>
<path d="M24.5525 12.1975C24.7983 12.4436 24.9363 12.7772 24.9363 13.125C24.9363 13.4728 24.7983 13.8064 24.5525 14.0525L15.8025 22.8025C15.5564 23.0483 15.2228 23.1863 14.875 23.1863C14.5272 23.1863 14.1936 23.0483 13.9475 22.8025L10.4475 19.3025C10.3185 19.1823 10.2151 19.0374 10.1434 18.8764C10.0716 18.7154 10.0331 18.5416 10.03 18.3654C10.0269 18.1892 10.0593 18.0141 10.1253 17.8507C10.1913 17.6873 10.2896 17.5388 10.4142 17.4142C10.5388 17.2896 10.6873 17.1913 10.8507 17.1253C11.0141 17.0593 11.1892 17.0269 11.3654 17.03C11.5416 17.0331 11.7154 17.0717 11.8764 17.1434C12.0374 17.2151 12.1823 17.3186 12.3025 17.4475L14.875 20.02L18.7863 16.1088L22.6975 12.1975C22.9436 11.9517 23.2772 11.8137 23.625 11.8137C23.9728 11.8137 24.3064 11.9517 24.5525 12.1975Z" fill="#3452F1"/>
</svg>
