<svg width="40" height="39" viewBox="0 0 40 39" fill="none" xmlns="http://www.w3.org/2000/svg">
<path d="M27.392 39V23.907H32.4612L33.2196 18.0397H27.392V14.2978C27.392 12.5992 27.8657 11.44 30.3079 11.44H33.4238V6.19017C31.9154 6.03058 30.3994 5.95319 28.8826 5.95833C24.3913 5.95833 21.3167 8.69267 21.3167 13.715V18.0397H16.2366V23.907H21.3167V39H2.61728C2.04101 39 1.48834 38.7717 1.08085 38.3654C0.673366 37.9591 0.444443 37.408 0.444443 36.8333V2.16667C0.444443 1.59203 0.673366 1.04093 1.08085 0.634602C1.48834 0.228273 2.04101 0 2.61728 0H37.3827C37.959 0 38.5117 0.228273 38.9191 0.634602C39.3266 1.04093 39.5556 1.59203 39.5556 2.16667V36.8333C39.5556 37.408 39.3266 37.9591 38.9191 38.3654C38.5117 38.7717 37.959 39 37.3827 39H27.392Z" fill="#1E1E1E"/>
</svg>
