<svg width="34" height="34" viewBox="0 0 34 34" fill="none" xmlns="http://www.w3.org/2000/svg">
<path fill-rule="evenodd" clip-rule="evenodd" d="M17 2.37209C13.1204 2.37209 9.39977 3.91324 6.65651 6.65651C3.91324 9.39977 2.37209 13.1204 2.37209 17C2.37209 20.8796 3.91324 24.6002 6.65651 27.3435C9.39977 30.0868 13.1204 31.6279 17 31.6279C20.8796 31.6279 24.6002 30.0868 27.3435 27.3435C30.0868 24.6002 31.6279 20.8796 31.6279 17C31.6279 13.1204 30.0868 9.39977 27.3435 6.65651C24.6002 3.91324 20.8796 2.37209 17 2.37209ZM0 17C0 7.61126 7.61126 0 17 0C26.3887 0 34 7.61126 34 17C34 26.3887 26.3887 34 17 34C7.61126 34 0 26.3887 0 17ZM13.7898 11.4177C14.0122 11.1956 14.3136 11.0708 14.6279 11.0708C14.9422 11.0708 15.2437 11.1956 15.466 11.4177L20.2102 16.1619C20.4323 16.3842 20.5571 16.6857 20.5571 17C20.5571 17.3143 20.4323 17.6158 20.2102 17.8381L15.466 22.5823C15.3575 22.6989 15.2265 22.7923 15.081 22.8571C14.9355 22.922 14.7785 22.9568 14.6192 22.9596C14.46 22.9624 14.3018 22.9331 14.1541 22.8735C14.0064 22.8138 13.8723 22.7251 13.7597 22.6124C13.647 22.4998 13.5582 22.3657 13.4986 22.218C13.4389 22.0703 13.4096 21.9121 13.4125 21.7528C13.4153 21.5936 13.4501 21.4365 13.515 21.2911C13.5798 21.1456 13.6732 21.0146 13.7898 20.906L17.6958 17L13.7898 13.094C13.5677 12.8716 13.4429 12.5701 13.4429 12.2558C13.4429 11.9415 13.5677 11.6401 13.7898 11.4177Z" fill="white"/>
</svg>
