<svg width="34" height="34" viewBox="0 0 34 34" fill="none" xmlns="http://www.w3.org/2000/svg">
<path fill-rule="evenodd" clip-rule="evenodd" d="M17 31.6279C20.8796 31.6279 24.6002 30.0868 27.3435 27.3435C30.0868 24.6002 31.6279 20.8796 31.6279 17C31.6279 13.1204 30.0868 9.39977 27.3435 6.65651C24.6002 3.91324 20.8796 2.37209 17 2.37209C13.1204 2.37209 9.39977 3.91324 6.65651 6.65651C3.91324 9.39977 2.37209 13.1204 2.37209 17C2.37209 20.8796 3.91324 24.6002 6.65651 27.3435C9.39977 30.0868 13.1204 31.6279 17 31.6279ZM34 17C34 26.3887 26.3887 34 17 34C7.61126 34 0 26.3887 0 17C0 7.61126 7.61126 0 17 0C26.3887 0 34 7.61126 34 17ZM20.2102 22.5823C19.9878 22.8044 19.6864 22.9292 19.3721 22.9292C19.0578 22.9292 18.7563 22.8044 18.534 22.5823L13.7898 17.8381C13.5677 17.6158 13.4429 17.3143 13.4429 17C13.4429 16.6857 13.5677 16.3842 13.7898 16.1619L18.534 11.4177C18.6425 11.3011 18.7735 11.2077 18.919 11.1429C19.0645 11.078 19.2215 11.0432 19.3808 11.0404C19.54 11.0376 19.6982 11.0669 19.8459 11.1265C19.9936 11.1862 20.1277 11.2749 20.2403 11.3876C20.353 11.5002 20.4418 11.6343 20.5014 11.782C20.5611 11.9297 20.5904 12.0879 20.5875 12.2472C20.5847 12.4064 20.5499 12.5635 20.485 12.7089C20.4202 12.8544 20.3268 12.9854 20.2102 13.094L16.3042 17L20.2102 20.906C20.4323 21.1284 20.5571 21.4299 20.5571 21.7442C20.5571 22.0585 20.4323 22.3599 20.2102 22.5823Z" fill="white"/>
</svg>
