<svg width="34" height="34" viewBox="0 0 34 34" fill="none" xmlns="http://www.w3.org/2000/svg">
<path fill-rule="evenodd" clip-rule="evenodd" d="M2.4888 31.5112C4.981 34 8.9862 34 17 34C25.0138 34 29.0207 34 31.5095 31.5095C34 29.0224 34 25.0138 34 17C34 8.9862 34 4.9793 31.5095 2.4888C29.0224 0 25.0138 0 17 0C8.9862 0 4.9793 0 2.4888 2.4888C0 4.981 0 8.9862 0 17C0 25.0138 0 29.0224 2.4888 31.5112ZM28.475 23.8C28.475 24.1382 28.3407 24.4625 28.1016 24.7016C27.8625 24.9407 27.5382 25.075 27.2 25.075H6.8C6.46185 25.075 6.13755 24.9407 5.89844 24.7016C5.65933 24.4625 5.525 24.1382 5.525 23.8C5.525 23.4618 5.65933 23.1375 5.89844 22.8984C6.13755 22.6593 6.46185 22.525 6.8 22.525H27.2C27.5382 22.525 27.8625 22.6593 28.1016 22.8984C28.3407 23.1375 28.475 23.4618 28.475 23.8ZM27.2 18.275C27.5382 18.275 27.8625 18.1407 28.1016 17.9016C28.3407 17.6625 28.475 17.3382 28.475 17C28.475 16.6618 28.3407 16.3375 28.1016 16.0984C27.8625 15.8593 27.5382 15.725 27.2 15.725H6.8C6.46185 15.725 6.13755 15.8593 5.89844 16.0984C5.65933 16.3375 5.525 16.6618 5.525 17C5.525 17.3382 5.65933 17.6625 5.89844 17.9016C6.13755 18.1407 6.46185 18.275 6.8 18.275H27.2ZM28.475 10.2C28.475 10.5382 28.3407 10.8625 28.1016 11.1016C27.8625 11.3407 27.5382 11.475 27.2 11.475H6.8C6.46185 11.475 6.13755 11.3407 5.89844 11.1016C5.65933 10.8625 5.525 10.5382 5.525 10.2C5.525 9.86185 5.65933 9.53755 5.89844 9.29844C6.13755 9.05933 6.46185 8.925 6.8 8.925H27.2C27.5382 8.925 27.8625 9.05933 28.1016 9.29844C28.3407 9.53755 28.475 9.86185 28.475 10.2Z" fill="white"/>
</svg>
