<svg width="123" height="17" viewBox="0 0 123 17" fill="none" xmlns="http://www.w3.org/2000/svg">
<path d="M0.625 4.30966V1.45455H12.919V4.30966H8.50852V16H5.04261V4.30966H0.625ZM16.2269 16.1847C15.5309 16.1847 14.913 16.0687 14.3732 15.8366C13.8382 15.5999 13.4144 15.2448 13.1019 14.7713C12.7942 14.2931 12.6403 13.6941 12.6403 12.9744C12.6403 12.3684 12.7468 11.857 12.9599 11.4403C13.1729 11.0237 13.4665 10.6851 13.8406 10.4247C14.2146 10.1643 14.6455 9.9678 15.1332 9.83523C15.6209 9.69792 16.1417 9.60559 16.6957 9.55824C17.3159 9.50142 17.8155 9.44223 18.1942 9.38068C18.573 9.31439 18.8477 9.22206 19.0181 9.10369C19.1933 8.98059 19.2809 8.80776 19.2809 8.58523V8.54972C19.2809 8.18513 19.1554 7.90341 18.9045 7.70455C18.6535 7.50568 18.315 7.40625 17.8888 7.40625C17.4296 7.40625 17.0603 7.50568 16.7809 7.70455C16.5015 7.90341 16.324 8.17803 16.2482 8.52841L13.0451 8.41477C13.1398 7.75189 13.3836 7.16004 13.7766 6.6392C14.1744 6.11364 14.7189 5.7017 15.4102 5.40341C16.1062 5.10038 16.9419 4.94886 17.9173 4.94886C18.6133 4.94886 19.2549 5.03172 19.842 5.19744C20.4291 5.35843 20.9405 5.59517 21.3761 5.90767C21.8117 6.21544 22.1478 6.59422 22.3846 7.04403C22.6261 7.49384 22.7468 8.00758 22.7468 8.58523V16H19.4798V14.4801H19.3945C19.2004 14.8494 18.9518 15.1619 18.6488 15.4176C18.3505 15.6733 17.9978 15.8651 17.5906 15.9929C17.1881 16.1207 16.7335 16.1847 16.2269 16.1847ZM17.2994 13.9119C17.6734 13.9119 18.0096 13.8362 18.3079 13.6847C18.6109 13.5331 18.8524 13.3248 19.0323 13.0597C19.2122 12.7898 19.3022 12.4773 19.3022 12.1222V11.0852C19.2028 11.1373 19.082 11.1847 18.94 11.2273C18.8027 11.2699 18.6512 11.3101 18.4854 11.348C18.3197 11.3859 18.1493 11.419 17.9741 11.4474C17.7989 11.4759 17.6308 11.5019 17.4698 11.5256C17.1431 11.5777 16.8638 11.6581 16.6317 11.767C16.4045 11.8759 16.2293 12.018 16.1062 12.1932C15.9878 12.3636 15.9286 12.5672 15.9286 12.804C15.9286 13.1638 16.0565 13.4384 16.3121 13.6278C16.5726 13.8172 16.9016 13.9119 17.2994 13.9119ZM24.8704 16V5.09091H28.1729V7.09375H28.2937C28.521 6.43087 28.9045 5.90767 29.4442 5.52415C29.984 5.14062 30.628 4.94886 31.3761 4.94886C32.1336 4.94886 32.7823 5.14299 33.3221 5.53125C33.8619 5.91951 34.2051 6.44034 34.3519 7.09375H34.4656C34.6692 6.44508 35.0669 5.92661 35.6587 5.53835C36.2506 5.14536 36.949 4.94886 37.7539 4.94886C38.7861 4.94886 39.6242 5.2803 40.2681 5.94318C40.9121 6.60133 41.234 7.50568 41.234 8.65625V16H37.761V9.4517C37.761 8.9072 37.6213 8.4929 37.342 8.20881C37.0626 7.91998 36.7004 7.77557 36.2553 7.77557C35.7771 7.77557 35.4007 7.93182 35.1261 8.24432C34.8562 8.55208 34.7212 8.96638 34.7212 9.48722V16H31.3832V9.41619C31.3832 8.90956 31.2459 8.50947 30.9712 8.21591C30.6966 7.92235 30.3344 7.77557 29.8846 7.77557C29.5816 7.77557 29.314 7.84896 29.082 7.99574C28.85 8.13778 28.6677 8.34138 28.5352 8.60653C28.4073 8.87169 28.3434 9.18419 28.3434 9.54403V16H24.8704ZM48.4854 16.206C47.3443 16.206 46.3595 15.9811 45.5309 15.5312C44.707 15.0767 44.0726 14.4304 43.6275 13.5923C43.1871 12.7495 42.967 11.7481 42.967 10.5881C42.967 9.46117 43.1895 8.47633 43.6346 7.63352C44.0797 6.78598 44.707 6.12784 45.5167 5.65909C46.3263 5.18561 47.2804 4.94886 48.3789 4.94886C49.1554 4.94886 49.8656 5.0696 50.5096 5.31108C51.1535 5.55256 51.7099 5.91004 52.1786 6.38352C52.6474 6.85701 53.012 7.44176 53.2724 8.13778C53.5328 8.82907 53.663 9.62216 53.663 10.517V11.3835H44.1815V9.36648H50.4315C50.4267 8.99716 50.3391 8.66809 50.1687 8.37926C49.9982 8.09044 49.7638 7.86553 49.4656 7.70455C49.172 7.53883 48.8335 7.45597 48.4499 7.45597C48.0617 7.45597 47.7137 7.54356 47.4059 7.71875C47.0981 7.8892 46.8543 8.12358 46.6744 8.42188C46.4944 8.71544 46.3997 9.04924 46.3903 9.4233V11.4759C46.3903 11.9209 46.4779 12.3116 46.6531 12.6477C46.8282 12.9792 47.0768 13.2372 47.3988 13.4219C47.7208 13.6065 48.1043 13.6989 48.5494 13.6989C48.8571 13.6989 49.1365 13.6562 49.3874 13.571C49.6384 13.4858 49.8538 13.3603 50.0337 13.1946C50.2137 13.0289 50.3486 12.8253 50.4386 12.5838L53.6275 12.6761C53.4949 13.3911 53.2037 14.0137 52.7539 14.544C52.3088 15.0696 51.7241 15.4792 50.9996 15.7727C50.2752 16.0616 49.4371 16.206 48.4854 16.206ZM64.9609 8.42188L61.772 8.5071C61.7389 8.27983 61.6489 8.0786 61.5021 7.90341C61.3554 7.72348 61.1636 7.58381 60.9268 7.48438C60.6948 7.38021 60.425 7.32812 60.1172 7.32812C59.7147 7.32812 59.3714 7.40862 59.0874 7.5696C58.808 7.73059 58.6707 7.94839 58.6754 8.22301C58.6707 8.43608 58.7559 8.62074 58.9311 8.77699C59.111 8.93324 59.4306 9.05871 59.8899 9.15341L61.9922 9.55114C63.0812 9.75947 63.8909 10.1051 64.4212 10.5881C64.9562 11.071 65.2261 11.7102 65.2308 12.5057C65.2261 13.2538 65.0036 13.9048 64.5632 14.4588C64.1276 15.0128 63.531 15.4437 62.7734 15.7514C62.0159 16.0545 61.1494 16.206 60.174 16.206C58.6162 16.206 57.3875 15.8864 56.4879 15.2472C55.593 14.6032 55.0817 13.7415 54.9538 12.6619L58.3842 12.5767C58.46 12.9744 58.6565 13.2775 58.9737 13.4858C59.291 13.6941 59.6958 13.7983 60.1882 13.7983C60.6333 13.7983 60.9955 13.7154 61.2749 13.5497C61.5542 13.384 61.6963 13.1638 61.701 12.8892C61.6963 12.643 61.5874 12.4465 61.3743 12.2997C61.1612 12.1482 60.8274 12.0298 60.3729 11.9446L58.4695 11.5824C57.3757 11.3835 56.5613 11.0166 56.0263 10.4815C55.4912 9.94176 55.2261 9.25521 55.2308 8.42188C55.2261 7.69271 55.4202 7.07008 55.8132 6.55398C56.2062 6.03314 56.7649 5.63542 57.4893 5.3608C58.2138 5.08617 59.0684 4.94886 60.0533 4.94886C61.5305 4.94886 62.6953 5.259 63.5476 5.87926C64.3999 6.49479 64.871 7.34233 64.9609 8.42188ZM66.9407 16V5.09091H70.4137V16H66.9407ZM68.6808 3.8196C68.1931 3.8196 67.774 3.65862 67.4237 3.33665C67.0733 3.00994 66.8981 2.61695 66.8981 2.15767C66.8981 1.70312 67.0733 1.31487 67.4237 0.992898C67.774 0.666193 68.1931 0.50284 68.6808 0.50284C69.1732 0.50284 69.5922 0.666193 69.9379 0.992898C70.2882 1.31487 70.4634 1.70312 70.4634 2.15767C70.4634 2.61695 70.2882 3.00994 69.9379 3.33665C69.5922 3.65862 69.1732 3.8196 68.6808 3.8196ZM76.6087 16.1562C75.8037 16.1562 75.0722 15.9479 74.4141 15.5312C73.7559 15.1146 73.2304 14.4896 72.8374 13.6562C72.4444 12.8229 72.2479 11.7884 72.2479 10.5526C72.2479 9.26941 72.4515 8.21354 72.8587 7.38494C73.2659 6.55634 73.7985 5.94318 74.4567 5.54545C75.1196 5.14773 75.8321 4.94886 76.5945 4.94886C77.1674 4.94886 77.6574 5.0483 78.0646 5.24716C78.4718 5.44129 78.808 5.69223 79.0732 6C79.3383 6.30777 79.5395 6.62737 79.6768 6.95881H79.7479V1.45455H83.2209V16H79.7834V14.2315H79.6768C79.5301 14.5677 79.3217 14.8826 79.0518 15.1761C78.782 15.4697 78.4434 15.7064 78.0362 15.8864C77.6338 16.0663 77.1579 16.1562 76.6087 16.1562ZM77.8161 13.4503C78.2375 13.4503 78.5973 13.3319 78.8956 13.0952C79.1939 12.8537 79.4235 12.5152 79.5845 12.0795C79.7455 11.6439 79.826 11.1326 79.826 10.5455C79.826 9.94886 79.7455 9.43513 79.5845 9.00426C79.4283 8.57339 79.1986 8.24195 78.8956 8.00994C78.5973 7.77794 78.2375 7.66193 77.8161 7.66193C77.3852 7.66193 77.0206 7.7803 76.7223 8.01705C76.424 8.25379 76.1967 8.58759 76.0405 9.01847C75.889 9.44934 75.8132 9.95833 75.8132 10.5455C75.8132 11.1326 75.8913 11.6439 76.0476 12.0795C76.2038 12.5152 76.4287 12.8537 76.7223 13.0952C77.0206 13.3319 77.3852 13.4503 77.8161 13.4503ZM90.5167 16.206C89.3756 16.206 88.3907 15.9811 87.5621 15.5312C86.7383 15.0767 86.1038 14.4304 85.6587 13.5923C85.2184 12.7495 84.9982 11.7481 84.9982 10.5881C84.9982 9.46117 85.2208 8.47633 85.6658 7.63352C86.1109 6.78598 86.7383 6.12784 87.5479 5.65909C88.3576 5.18561 89.3117 4.94886 90.4102 4.94886C91.1867 4.94886 91.8969 5.0696 92.5408 5.31108C93.1848 5.55256 93.7411 5.91004 94.2099 6.38352C94.6786 6.85701 95.0432 7.44176 95.3036 8.13778C95.564 8.82907 95.6942 9.62216 95.6942 10.517V11.3835H86.2127V9.36648H92.4627C92.458 8.99716 92.3704 8.66809 92.1999 8.37926C92.0295 8.09044 91.7951 7.86553 91.4968 7.70455C91.2032 7.53883 90.8647 7.45597 90.4812 7.45597C90.0929 7.45597 89.7449 7.54356 89.4371 7.71875C89.1294 7.8892 88.8855 8.12358 88.7056 8.42188C88.5257 8.71544 88.431 9.04924 88.4215 9.4233V11.4759C88.4215 11.9209 88.5091 12.3116 88.6843 12.6477C88.8595 12.9792 89.1081 13.2372 89.43 13.4219C89.752 13.6065 90.1355 13.6989 90.5806 13.6989C90.8884 13.6989 91.1677 13.6562 91.4187 13.571C91.6696 13.4858 91.8851 13.3603 92.065 13.1946C92.2449 13.0289 92.3799 12.8253 92.4698 12.5838L95.6587 12.6761C95.5262 13.3911 95.235 14.0137 94.7852 14.544C94.3401 15.0696 93.7553 15.4792 93.0309 15.7727C92.3065 16.0616 91.4684 16.206 90.5167 16.206ZM98.1286 16V1.45455H103.043C104.184 1.45455 105.117 1.66051 105.842 2.07244C106.571 2.47964 107.111 3.03125 107.461 3.72727C107.811 4.4233 107.987 5.19981 107.987 6.05682C107.987 6.91383 107.811 7.69271 107.461 8.39347C107.115 9.09422 106.58 9.65294 105.856 10.0696C105.131 10.4815 104.203 10.6875 103.072 10.6875H99.549V9.125H103.015C103.796 9.125 104.424 8.99006 104.897 8.72017C105.371 8.45028 105.714 8.0857 105.927 7.62642C106.145 7.16241 106.254 6.6392 106.254 6.05682C106.254 5.47443 106.145 4.9536 105.927 4.49432C105.714 4.03504 105.368 3.67519 104.89 3.41477C104.412 3.14962 103.777 3.01705 102.987 3.01705H99.8899V16H98.1286ZM122.528 6H120.767C120.663 5.49337 120.481 5.0483 120.22 4.66477C119.964 4.28125 119.652 3.95928 119.283 3.69886C118.918 3.43371 118.513 3.23485 118.068 3.10227C117.623 2.9697 117.159 2.90341 116.676 2.90341C115.795 2.90341 114.998 3.12595 114.283 3.57102C113.572 4.0161 113.007 4.67188 112.585 5.53835C112.169 6.40483 111.96 7.4678 111.96 8.72727C111.96 9.98674 112.169 11.0497 112.585 11.9162C113.007 12.7827 113.572 13.4384 114.283 13.8835C114.998 14.3286 115.795 14.5511 116.676 14.5511C117.159 14.5511 117.623 14.4848 118.068 14.3523C118.513 14.2197 118.918 14.0232 119.283 13.7628C119.652 13.4976 119.964 13.1733 120.22 12.7898C120.481 12.4015 120.663 11.9564 120.767 11.4545H122.528C122.396 12.1979 122.154 12.8632 121.804 13.4503C121.454 14.0374 121.018 14.5369 120.497 14.9489C119.976 15.3561 119.392 15.6662 118.743 15.8793C118.099 16.0923 117.41 16.1989 116.676 16.1989C115.436 16.1989 114.332 15.8958 113.366 15.2898C112.401 14.6837 111.641 13.822 111.087 12.7045C110.533 11.5871 110.256 10.2614 110.256 8.72727C110.256 7.19318 110.533 5.86742 111.087 4.75C111.641 3.63258 112.401 2.77083 113.366 2.16477C114.332 1.55871 115.436 1.25568 116.676 1.25568C117.41 1.25568 118.099 1.36222 118.743 1.57528C119.392 1.78835 119.976 2.10085 120.497 2.51278C121.018 2.91998 121.454 3.41714 121.804 4.00426C122.154 4.58665 122.396 5.25189 122.528 6Z" fill="#1F1F1F"/>
</svg>
