<svg width="430" height="194" viewBox="0 0 430 194" fill="none" xmlns="http://www.w3.org/2000/svg">
<g filter="url(#filter0_d_22_4)">
<path d="M96.7244 119V71.7273H102.172V89.1776H102.634C103.034 88.562 103.588 87.7772 104.295 86.8232C105.019 85.8537 106.05 84.992 107.388 84.2379C108.743 83.4685 110.574 83.0838 112.882 83.0838C115.867 83.0838 118.499 83.8301 120.776 85.3228C123.054 86.8155 124.831 88.9313 126.108 91.6705C127.386 94.4096 128.024 97.6411 128.024 101.365C128.024 105.12 127.386 108.374 126.108 111.129C124.831 113.868 123.061 115.992 120.799 117.5C118.537 118.992 115.929 119.739 112.974 119.739C110.697 119.739 108.873 119.362 107.504 118.608C106.134 117.838 105.08 116.969 104.342 115.999C103.603 115.014 103.034 114.199 102.634 113.553H101.987V119H96.7244ZM102.08 101.273C102.08 103.95 102.472 106.312 103.257 108.359C104.042 110.39 105.188 111.983 106.696 113.137C108.204 114.276 110.051 114.845 112.236 114.845C114.513 114.845 116.414 114.245 117.937 113.045C119.476 111.829 120.63 110.198 121.4 108.151C122.184 106.089 122.577 103.796 122.577 101.273C122.577 98.7798 122.192 96.5331 121.423 94.5327C120.669 92.5168 119.522 90.9241 117.983 89.7546C116.46 88.5697 114.544 87.9773 112.236 87.9773C110.02 87.9773 108.158 88.5389 106.65 89.6623C105.142 90.7702 104.003 92.3245 103.234 94.3249C102.464 96.31 102.08 98.6259 102.08 101.273ZM151.222 119.739C147.806 119.739 144.859 118.985 142.381 117.477C139.919 115.953 138.019 113.83 136.68 111.106C135.357 108.367 134.695 105.181 134.695 101.55C134.695 97.9181 135.357 94.7173 136.68 91.9474C138.019 89.1622 139.881 86.9924 142.266 85.4382C144.667 83.8686 147.467 83.0838 150.668 83.0838C152.515 83.0838 154.338 83.3916 156.138 84.0071C157.939 84.6226 159.578 85.6229 161.055 87.0078C162.532 88.3774 163.71 90.1932 164.587 92.4553C165.464 94.7173 165.902 97.5026 165.902 100.811V103.119H138.573V98.4105H160.363C160.363 96.41 159.962 94.625 159.162 93.0554C158.377 91.4858 157.254 90.247 155.792 89.3391C154.346 88.4312 152.638 87.9773 150.668 87.9773C148.498 87.9773 146.621 88.5159 145.036 89.593C143.466 90.6548 142.258 92.0398 141.412 93.7479C140.566 95.456 140.142 97.2872 140.142 99.2415V102.381C140.142 105.058 140.604 107.328 141.527 109.19C142.466 111.037 143.766 112.445 145.428 113.414C147.09 114.368 149.021 114.845 151.222 114.845C152.653 114.845 153.946 114.645 155.1 114.245C156.269 113.83 157.277 113.214 158.124 112.398C158.97 111.567 159.624 110.536 160.086 109.305L165.348 110.783C164.794 112.568 163.863 114.137 162.555 115.491C161.247 116.83 159.632 117.877 157.708 118.631C155.785 119.369 153.623 119.739 151.222 119.739ZM199.303 91.4858L194.409 92.8707C194.101 92.0552 193.647 91.2627 193.047 90.4933C192.462 89.7085 191.662 89.0621 190.647 88.5543C189.631 88.0465 188.331 87.7926 186.746 87.7926C184.576 87.7926 182.768 88.2927 181.321 89.293C179.89 90.2778 179.175 91.532 179.175 93.0554C179.175 94.4096 179.667 95.479 180.652 96.2638C181.637 97.0486 183.176 97.7027 185.268 98.2259L190.531 99.5185C193.701 100.288 196.063 101.465 197.618 103.05C199.172 104.62 199.949 106.643 199.949 109.121C199.949 111.152 199.364 112.968 198.195 114.568C197.04 116.169 195.425 117.43 193.347 118.354C191.27 119.277 188.854 119.739 186.099 119.739C182.483 119.739 179.49 118.954 177.12 117.384C174.751 115.815 173.25 113.522 172.619 110.506L177.79 109.213C178.282 111.121 179.213 112.552 180.583 113.506C181.968 114.46 183.776 114.938 186.007 114.938C188.546 114.938 190.562 114.399 192.055 113.322C193.563 112.229 194.317 110.921 194.317 109.398C194.317 108.167 193.886 107.136 193.024 106.305C192.162 105.458 190.839 104.827 189.054 104.412L183.145 103.027C179.898 102.258 177.513 101.065 175.989 99.4492C174.481 97.8181 173.727 95.7791 173.727 93.3324C173.727 91.3319 174.289 89.5623 175.412 88.0234C176.551 86.4846 178.098 85.2766 180.052 84.3995C182.022 83.5224 184.253 83.0838 186.746 83.0838C190.254 83.0838 193.009 83.8532 195.009 85.392C197.025 86.9309 198.456 88.9621 199.303 91.4858ZM223.568 83.5455V88.1619H205.194V83.5455H223.568ZM210.549 75.0511H215.997V108.844C215.997 110.383 216.22 111.537 216.666 112.306C217.128 113.06 217.713 113.568 218.421 113.83C219.144 114.076 219.906 114.199 220.706 114.199C221.306 114.199 221.798 114.168 222.183 114.107C222.568 114.03 222.875 113.968 223.106 113.922L224.214 118.815C223.845 118.954 223.329 119.092 222.668 119.231C222.006 119.385 221.167 119.462 220.152 119.462C218.613 119.462 217.105 119.131 215.628 118.469C214.166 117.807 212.95 116.799 211.981 115.445C211.026 114.091 210.549 112.383 210.549 110.321V75.0511ZM244.769 119.739C241.815 119.739 239.206 118.992 236.944 117.5C234.682 115.992 232.912 113.868 231.635 111.129C230.358 108.374 229.719 105.12 229.719 101.365C229.719 97.6411 230.358 94.4096 231.635 91.6705C232.912 88.9313 234.69 86.8155 236.967 85.3228C239.245 83.8301 241.876 83.0838 244.861 83.0838C247.17 83.0838 248.993 83.4685 250.332 84.2379C251.686 84.992 252.717 85.8537 253.425 86.8232C254.148 87.7772 254.71 88.562 255.11 89.1776H255.572V71.7273H261.019V119H255.756V113.553H255.11C254.71 114.199 254.141 115.014 253.402 115.999C252.663 116.969 251.609 117.838 250.24 118.608C248.87 119.362 247.047 119.739 244.769 119.739ZM245.508 114.845C247.693 114.845 249.539 114.276 251.047 113.137C252.556 111.983 253.702 110.39 254.487 108.359C255.272 106.312 255.664 103.95 255.664 101.273C255.664 98.6259 255.279 96.31 254.51 94.3249C253.74 92.3245 252.602 90.7702 251.094 89.6623C249.586 88.5389 247.724 87.9773 245.508 87.9773C243.199 87.9773 241.276 88.5697 239.737 89.7546C238.214 90.9241 237.067 92.5168 236.298 94.5327C235.544 96.5331 235.167 98.7798 235.167 101.273C235.167 103.796 235.552 106.089 236.321 108.151C237.106 110.198 238.26 111.829 239.783 113.045C241.322 114.245 243.23 114.845 245.508 114.845ZM282.186 119.831C279.939 119.831 277.9 119.408 276.069 118.561C274.238 117.7 272.783 116.461 271.706 114.845C270.629 113.214 270.09 111.244 270.09 108.936C270.09 106.905 270.491 105.258 271.291 103.996C272.091 102.719 273.16 101.719 274.499 100.996C275.838 100.272 277.315 99.7339 278.931 99.38C280.562 99.0107 282.201 98.7183 283.848 98.5028C286.002 98.2259 287.748 98.0181 289.087 97.8796C290.441 97.7257 291.426 97.4718 292.042 97.1179C292.673 96.764 292.988 96.1484 292.988 95.2713V95.0866C292.988 92.8092 292.365 91.0395 291.119 89.7777C289.887 88.5159 288.018 87.8849 285.509 87.8849C282.909 87.8849 280.87 88.4543 279.393 89.593C277.915 90.7318 276.877 91.9474 276.277 93.2401L271.106 91.3935C272.029 89.2391 273.26 87.5618 274.799 86.3615C276.353 85.1458 278.046 84.2995 279.877 83.8224C281.724 83.33 283.54 83.0838 285.325 83.0838C286.464 83.0838 287.772 83.2223 289.249 83.4993C290.742 83.7609 292.18 84.3072 293.565 85.1381C294.966 85.9691 296.127 87.2232 297.051 88.9006C297.974 90.5779 298.436 92.8246 298.436 95.6406V119H292.988V114.199H292.711C292.342 114.968 291.726 115.792 290.865 116.669C290.003 117.546 288.856 118.292 287.425 118.908C285.994 119.523 284.248 119.831 282.186 119.831ZM283.017 114.938C285.171 114.938 286.987 114.514 288.464 113.668C289.957 112.822 291.08 111.729 291.834 110.39C292.603 109.051 292.988 107.643 292.988 106.166V101.18C292.757 101.457 292.25 101.711 291.465 101.942C290.695 102.158 289.803 102.35 288.787 102.519C287.787 102.673 286.81 102.812 285.856 102.935C284.917 103.042 284.155 103.135 283.571 103.212C282.155 103.396 280.831 103.696 279.6 104.112C278.385 104.512 277.4 105.12 276.646 105.935C275.907 106.736 275.538 107.828 275.538 109.213C275.538 111.106 276.238 112.537 277.638 113.506C279.054 114.46 280.847 114.938 283.017 114.938ZM310.617 132.295C309.694 132.295 308.871 132.219 308.148 132.065C307.424 131.926 306.924 131.788 306.647 131.649L308.032 126.848C309.356 127.187 310.525 127.31 311.541 127.217C312.556 127.125 313.456 126.671 314.241 125.855C315.041 125.055 315.772 123.755 316.434 121.955L317.45 119.185L304.339 83.5455H310.248L320.035 111.798H320.404L330.191 83.5455H336.1L321.051 124.17C320.374 126.002 319.535 127.517 318.535 128.718C317.534 129.933 316.373 130.834 315.049 131.418C313.741 132.003 312.264 132.295 310.617 132.295Z" fill="white"/>
</g>
<path d="M212.724 178V130.727H218.172V148.178H218.634C219.034 147.562 219.588 146.777 220.295 145.823C221.019 144.854 222.05 143.992 223.388 143.238C224.743 142.469 226.574 142.084 228.882 142.084C231.867 142.084 234.499 142.83 236.776 144.323C239.054 145.815 240.831 147.931 242.108 150.67C243.386 153.41 244.024 156.641 244.024 160.365C244.024 164.12 243.386 167.374 242.108 170.129C240.831 172.868 239.061 174.992 236.799 176.5C234.537 177.992 231.929 178.739 228.974 178.739C226.697 178.739 224.873 178.362 223.504 177.608C222.134 176.838 221.08 175.969 220.342 174.999C219.603 174.014 219.034 173.199 218.634 172.553H217.987V178H212.724ZM218.08 160.273C218.08 162.95 218.472 165.312 219.257 167.359C220.042 169.39 221.188 170.983 222.696 172.137C224.204 173.276 226.051 173.845 228.236 173.845C230.513 173.845 232.414 173.245 233.937 172.045C235.476 170.829 236.63 169.198 237.4 167.151C238.184 165.089 238.577 162.796 238.577 160.273C238.577 157.78 238.192 155.533 237.423 153.533C236.669 151.517 235.522 149.924 233.983 148.755C232.46 147.57 230.544 146.977 228.236 146.977C226.02 146.977 224.158 147.539 222.65 148.662C221.142 149.77 220.003 151.324 219.234 153.325C218.464 155.31 218.08 157.626 218.08 160.273ZM267.222 178.739C263.806 178.739 260.859 177.985 258.381 176.477C255.919 174.953 254.019 172.83 252.68 170.106C251.357 167.367 250.695 164.181 250.695 160.55C250.695 156.918 251.357 153.717 252.68 150.947C254.019 148.162 255.881 145.992 258.266 144.438C260.667 142.869 263.467 142.084 266.668 142.084C268.515 142.084 270.338 142.392 272.138 143.007C273.939 143.623 275.578 144.623 277.055 146.008C278.532 147.377 279.71 149.193 280.587 151.455C281.464 153.717 281.902 156.503 281.902 159.811V162.119H254.573V157.411H276.363C276.363 155.41 275.962 153.625 275.162 152.055C274.377 150.486 273.254 149.247 271.792 148.339C270.346 147.431 268.638 146.977 266.668 146.977C264.498 146.977 262.621 147.516 261.036 148.593C259.466 149.655 258.258 151.04 257.412 152.748C256.566 154.456 256.142 156.287 256.142 158.241V161.381C256.142 164.058 256.604 166.328 257.527 168.19C258.466 170.037 259.766 171.445 261.428 172.414C263.09 173.368 265.021 173.845 267.222 173.845C268.653 173.845 269.946 173.645 271.1 173.245C272.269 172.83 273.277 172.214 274.124 171.398C274.97 170.567 275.624 169.536 276.086 168.305L281.348 169.783C280.794 171.568 279.863 173.137 278.555 174.491C277.247 175.83 275.632 176.877 273.708 177.631C271.785 178.369 269.623 178.739 267.222 178.739ZM315.303 150.486L310.409 151.871C310.101 151.055 309.647 150.263 309.047 149.493C308.462 148.708 307.662 148.062 306.647 147.554C305.631 147.047 304.331 146.793 302.746 146.793C300.576 146.793 298.768 147.293 297.321 148.293C295.89 149.278 295.175 150.532 295.175 152.055C295.175 153.41 295.667 154.479 296.652 155.264C297.637 156.049 299.176 156.703 301.268 157.226L306.531 158.518C309.701 159.288 312.063 160.465 313.618 162.05C315.172 163.62 315.949 165.643 315.949 168.121C315.949 170.152 315.364 171.968 314.195 173.568C313.04 175.169 311.425 176.43 309.347 177.354C307.27 178.277 304.854 178.739 302.099 178.739C298.483 178.739 295.49 177.954 293.12 176.384C290.751 174.815 289.25 172.522 288.619 169.506L293.79 168.213C294.282 170.121 295.213 171.552 296.583 172.506C297.968 173.46 299.776 173.938 302.007 173.938C304.546 173.938 306.562 173.399 308.055 172.322C309.563 171.229 310.317 169.921 310.317 168.398C310.317 167.167 309.886 166.136 309.024 165.305C308.162 164.458 306.839 163.827 305.054 163.412L299.145 162.027C295.898 161.258 293.513 160.065 291.989 158.449C290.481 156.818 289.727 154.779 289.727 152.332C289.727 150.332 290.289 148.562 291.412 147.023C292.551 145.485 294.098 144.277 296.052 143.4C298.022 142.522 300.253 142.084 302.746 142.084C306.254 142.084 309.009 142.853 311.009 144.392C313.025 145.931 314.456 147.962 315.303 150.486ZM339.568 142.545V147.162H321.194V142.545H339.568ZM326.549 134.051H331.997V167.844C331.997 169.383 332.22 170.537 332.666 171.306C333.128 172.06 333.713 172.568 334.421 172.83C335.144 173.076 335.906 173.199 336.706 173.199C337.306 173.199 337.798 173.168 338.183 173.107C338.568 173.03 338.875 172.968 339.106 172.922L340.214 177.815C339.845 177.954 339.329 178.092 338.668 178.231C338.006 178.385 337.167 178.462 336.152 178.462C334.613 178.462 333.105 178.131 331.628 177.469C330.166 176.807 328.95 175.799 327.981 174.445C327.026 173.091 326.549 171.383 326.549 169.321V134.051ZM360.769 178.739C357.815 178.739 355.206 177.992 352.944 176.5C350.682 174.992 348.912 172.868 347.635 170.129C346.358 167.374 345.719 164.12 345.719 160.365C345.719 156.641 346.358 153.41 347.635 150.67C348.912 147.931 350.69 145.815 352.967 144.323C355.245 142.83 357.876 142.084 360.861 142.084C363.17 142.084 364.993 142.469 366.332 143.238C367.686 143.992 368.717 144.854 369.425 145.823C370.148 146.777 370.71 147.562 371.11 148.178H371.572V130.727H377.019V178H371.756V172.553H371.11C370.71 173.199 370.141 174.014 369.402 174.999C368.663 175.969 367.609 176.838 366.24 177.608C364.87 178.362 363.047 178.739 360.769 178.739ZM361.508 173.845C363.693 173.845 365.539 173.276 367.047 172.137C368.556 170.983 369.702 169.39 370.487 167.359C371.272 165.312 371.664 162.95 371.664 160.273C371.664 157.626 371.279 155.31 370.51 153.325C369.74 151.324 368.602 149.77 367.094 148.662C365.586 147.539 363.724 146.977 361.508 146.977C359.199 146.977 357.276 147.57 355.737 148.755C354.214 149.924 353.067 151.517 352.298 153.533C351.544 155.533 351.167 157.78 351.167 160.273C351.167 162.796 351.552 165.089 352.321 167.151C353.106 169.198 354.26 170.829 355.783 172.045C357.322 173.245 359.23 173.845 361.508 173.845ZM398.186 178.831C395.939 178.831 393.9 178.408 392.069 177.561C390.238 176.7 388.783 175.461 387.706 173.845C386.629 172.214 386.09 170.244 386.09 167.936C386.09 165.905 386.491 164.258 387.291 162.996C388.091 161.719 389.16 160.719 390.499 159.996C391.838 159.272 393.315 158.734 394.931 158.38C396.562 158.011 398.201 157.718 399.848 157.503C402.002 157.226 403.748 157.018 405.087 156.88C406.441 156.726 407.426 156.472 408.042 156.118C408.673 155.764 408.988 155.148 408.988 154.271V154.087C408.988 151.809 408.365 150.04 407.119 148.778C405.887 147.516 404.018 146.885 401.509 146.885C398.909 146.885 396.87 147.454 395.393 148.593C393.915 149.732 392.877 150.947 392.277 152.24L387.106 150.393C388.029 148.239 389.26 146.562 390.799 145.362C392.353 144.146 394.046 143.299 395.877 142.822C397.724 142.33 399.54 142.084 401.325 142.084C402.464 142.084 403.772 142.222 405.249 142.499C406.742 142.761 408.18 143.307 409.565 144.138C410.966 144.969 412.127 146.223 413.051 147.901C413.974 149.578 414.436 151.825 414.436 154.641V178H408.988V173.199H408.711C408.342 173.968 407.726 174.792 406.865 175.669C406.003 176.546 404.856 177.292 403.425 177.908C401.994 178.523 400.248 178.831 398.186 178.831ZM399.017 173.938C401.171 173.938 402.987 173.514 404.464 172.668C405.957 171.822 407.08 170.729 407.834 169.39C408.603 168.051 408.988 166.643 408.988 165.166V160.18C408.757 160.457 408.25 160.711 407.465 160.942C406.695 161.158 405.803 161.35 404.787 161.519C403.787 161.673 402.81 161.812 401.856 161.935C400.917 162.042 400.155 162.135 399.571 162.212C398.155 162.396 396.831 162.696 395.6 163.112C394.385 163.512 393.4 164.12 392.646 164.935C391.907 165.736 391.538 166.828 391.538 168.213C391.538 170.106 392.238 171.537 393.638 172.506C395.054 173.46 396.847 173.938 399.017 173.938ZM426.617 191.295C425.694 191.295 424.871 191.219 424.148 191.065C423.424 190.926 422.924 190.788 422.647 190.649L424.032 185.848C425.356 186.187 426.525 186.31 427.541 186.217C428.556 186.125 429.456 185.671 430.241 184.855C431.041 184.055 431.772 182.755 432.434 180.955L433.45 178.185L420.339 142.545H426.248L436.035 170.798H436.404L446.191 142.545H452.1L437.051 183.17C436.374 185.002 435.535 186.517 434.535 187.718C433.534 188.933 432.373 189.834 431.049 190.418C429.741 191.003 428.264 191.295 426.617 191.295Z" fill="white" fill-opacity="0.3"/>
<path d="M-35.2756 178V130.727H-29.8281V148.178H-29.3665C-28.9664 147.562 -28.4124 146.777 -27.7045 145.823C-26.9813 144.854 -25.9503 143.992 -24.6115 143.238C-23.2573 142.469 -21.4261 142.084 -19.1179 142.084C-16.1326 142.084 -13.5012 142.83 -11.2237 144.323C-8.94626 145.815 -7.16891 147.931 -5.89169 150.67C-4.61446 153.41 -3.97585 156.641 -3.97585 160.365C-3.97585 164.12 -4.61446 167.374 -5.89169 170.129C-7.16891 172.868 -8.93856 174.992 -11.2006 176.5C-13.4627 177.992 -16.071 178.739 -19.0256 178.739C-21.303 178.739 -23.1265 178.362 -24.4961 177.608C-25.8656 176.838 -26.9197 175.969 -27.6584 174.999C-28.397 174.014 -28.9664 173.199 -29.3665 172.553H-30.0128V178H-35.2756ZM-29.9205 160.273C-29.9205 162.95 -29.5281 165.312 -28.7433 167.359C-27.9585 169.39 -26.812 170.983 -25.304 172.137C-23.7959 173.276 -21.9493 173.845 -19.7642 173.845C-17.4867 173.845 -15.5863 173.245 -14.0629 172.045C-12.524 170.829 -11.3699 169.198 -10.6005 167.151C-9.81569 165.089 -9.42329 162.796 -9.42329 160.273C-9.42329 157.78 -9.808 155.533 -10.5774 153.533C-11.3314 151.517 -12.4779 149.924 -14.0167 148.755C-15.5401 147.57 -17.456 146.977 -19.7642 146.977C-21.9801 146.977 -23.8421 147.539 -25.3501 148.662C-26.8582 149.77 -27.9969 151.324 -28.7663 153.325C-29.5357 155.31 -29.9205 157.626 -29.9205 160.273ZM19.2219 178.739C15.8058 178.739 12.8589 177.985 10.3814 176.477C7.91927 174.953 6.01882 172.83 4.68004 170.106C3.35665 167.367 2.69496 164.181 2.69496 160.55C2.69496 156.918 3.35665 153.717 4.68004 150.947C6.01882 148.162 7.8808 145.992 10.266 144.438C12.6665 142.869 15.4672 142.084 18.668 142.084C20.5146 142.084 22.3381 142.392 24.1385 143.007C25.9389 143.623 27.5778 144.623 29.055 146.008C30.5323 147.377 31.7095 149.193 32.5867 151.455C33.4638 153.717 33.9023 156.503 33.9023 159.811V162.119H6.5728V157.411H28.3626C28.3626 155.41 27.9625 153.625 27.1623 152.055C26.3775 150.486 25.2541 149.247 23.7923 148.339C22.3458 147.431 20.6377 146.977 18.668 146.977C16.4982 146.977 14.6209 147.516 13.0359 148.593C11.4663 149.655 10.2583 151.04 9.41193 152.748C8.56558 154.456 8.1424 156.287 8.1424 158.241V161.381C8.1424 164.058 8.60405 166.328 9.52734 168.19C10.466 170.037 11.7663 171.445 13.4283 172.414C15.0902 173.368 17.0214 173.845 19.2219 173.845C20.6531 173.845 21.9457 173.645 23.0998 173.245C24.2693 172.83 25.2772 172.214 26.1236 171.398C26.9699 170.567 27.6239 169.536 28.0856 168.305L33.3484 169.783C32.7944 171.568 31.8634 173.137 30.5554 174.491C29.2474 175.83 27.6316 176.877 25.7081 177.631C23.7846 178.369 21.6225 178.739 19.2219 178.739ZM67.3026 150.486L62.4091 151.871C62.1013 151.055 61.6474 150.263 61.0472 149.493C60.4625 148.708 59.6623 148.062 58.6467 147.554C57.631 147.047 56.3307 146.793 54.7457 146.793C52.576 146.793 50.7679 147.293 49.3214 148.293C47.8903 149.278 47.1747 150.532 47.1747 152.055C47.1747 153.41 47.6671 154.479 48.652 155.264C49.6368 156.049 51.1757 156.703 53.2685 157.226L58.5312 158.518C61.7012 159.288 64.0633 160.465 65.6175 162.05C67.1718 163.62 67.9489 165.643 67.9489 168.121C67.9489 170.152 67.3641 171.968 66.1946 173.568C65.0405 175.169 63.4247 176.43 61.3473 177.354C59.2699 178.277 56.8539 178.739 54.0994 178.739C50.4832 178.739 47.4902 177.954 45.1204 176.384C42.7506 174.815 41.2502 172.522 40.6193 169.506L45.7898 168.213C46.2822 170.121 47.2132 171.552 48.5827 172.506C49.9677 173.46 51.7758 173.938 54.0071 173.938C56.5462 173.938 58.562 173.399 60.0547 172.322C61.5627 171.229 62.3168 169.921 62.3168 168.398C62.3168 167.167 61.8859 166.136 61.0241 165.305C60.1624 164.458 58.839 163.827 57.054 163.412L51.1449 162.027C47.898 161.258 45.5128 160.065 43.9893 158.449C42.4813 156.818 41.7273 154.779 41.7273 152.332C41.7273 150.332 42.2889 148.562 43.4123 147.023C44.551 145.485 46.0975 144.277 48.0518 143.4C50.0215 142.522 52.2528 142.084 54.7457 142.084C58.2543 142.084 61.0088 142.853 63.0092 144.392C65.0251 145.931 66.4562 147.962 67.3026 150.486ZM91.5679 142.545V147.162H73.1943V142.545H91.5679ZM78.5494 134.051H83.9969V167.844C83.9969 169.383 84.22 170.537 84.6663 171.306C85.1279 172.06 85.7127 172.568 86.4205 172.83C87.1438 173.076 87.9055 173.199 88.7057 173.199C89.3058 173.199 89.7983 173.168 90.183 173.107C90.5677 173.03 90.8754 172.968 91.1063 172.922L92.2142 177.815C91.8449 177.954 91.3294 178.092 90.6677 178.231C90.006 178.385 89.1673 178.462 88.1517 178.462C86.6129 178.462 85.1048 178.131 83.6276 177.469C82.1657 176.807 80.95 175.799 79.9806 174.445C79.0265 173.091 78.5494 171.383 78.5494 169.321V134.051ZM112.769 178.739C109.815 178.739 107.206 177.992 104.944 176.5C102.682 174.992 100.912 172.868 99.6352 170.129C98.358 167.374 97.7194 164.12 97.7194 160.365C97.7194 156.641 98.358 153.41 99.6352 150.67C100.912 147.931 102.69 145.815 104.967 144.323C107.245 142.83 109.876 142.084 112.861 142.084C115.17 142.084 116.993 142.469 118.332 143.238C119.686 143.992 120.717 144.854 121.425 145.823C122.148 146.777 122.71 147.562 123.11 148.178H123.572V130.727H129.019V178H123.756V172.553H123.11C122.71 173.199 122.141 174.014 121.402 174.999C120.663 175.969 119.609 176.838 118.24 177.608C116.87 178.362 115.047 178.739 112.769 178.739ZM113.508 173.845C115.693 173.845 117.539 173.276 119.047 172.137C120.556 170.983 121.702 169.39 122.487 167.359C123.272 165.312 123.664 162.95 123.664 160.273C123.664 157.626 123.279 155.31 122.51 153.325C121.74 151.324 120.602 149.77 119.094 148.662C117.586 147.539 115.724 146.977 113.508 146.977C111.199 146.977 109.276 147.57 107.737 148.755C106.214 149.924 105.067 151.517 104.298 153.533C103.544 155.533 103.167 157.78 103.167 160.273C103.167 162.796 103.552 165.089 104.321 167.151C105.106 169.198 106.26 170.829 107.783 172.045C109.322 173.245 111.23 173.845 113.508 173.845ZM150.186 178.831C147.939 178.831 145.9 178.408 144.069 177.561C142.238 176.7 140.783 175.461 139.706 173.845C138.629 172.214 138.09 170.244 138.09 167.936C138.09 165.905 138.491 164.258 139.291 162.996C140.091 161.719 141.16 160.719 142.499 159.996C143.838 159.272 145.315 158.734 146.931 158.38C148.562 158.011 150.201 157.718 151.848 157.503C154.002 157.226 155.748 157.018 157.087 156.88C158.441 156.726 159.426 156.472 160.042 156.118C160.673 155.764 160.988 155.148 160.988 154.271V154.087C160.988 151.809 160.365 150.04 159.119 148.778C157.887 147.516 156.018 146.885 153.509 146.885C150.909 146.885 148.87 147.454 147.393 148.593C145.915 149.732 144.877 150.947 144.277 152.24L139.106 150.393C140.029 148.239 141.26 146.562 142.799 145.362C144.353 144.146 146.046 143.299 147.877 142.822C149.724 142.33 151.54 142.084 153.325 142.084C154.464 142.084 155.772 142.222 157.249 142.499C158.742 142.761 160.18 143.307 161.565 144.138C162.966 144.969 164.127 146.223 165.051 147.901C165.974 149.578 166.436 151.825 166.436 154.641V178H160.988V173.199H160.711C160.342 173.968 159.726 174.792 158.865 175.669C158.003 176.546 156.856 177.292 155.425 177.908C153.994 178.523 152.248 178.831 150.186 178.831ZM151.017 173.938C153.171 173.938 154.987 173.514 156.464 172.668C157.957 171.822 159.08 170.729 159.834 169.39C160.603 168.051 160.988 166.643 160.988 165.166V160.18C160.757 160.457 160.25 160.711 159.465 160.942C158.695 161.158 157.803 161.35 156.787 161.519C155.787 161.673 154.81 161.812 153.856 161.935C152.917 162.042 152.155 162.135 151.571 162.212C150.155 162.396 148.831 162.696 147.6 163.112C146.385 163.512 145.4 164.12 144.646 164.935C143.907 165.736 143.538 166.828 143.538 168.213C143.538 170.106 144.238 171.537 145.638 172.506C147.054 173.46 148.847 173.938 151.017 173.938ZM178.617 191.295C177.694 191.295 176.871 191.219 176.148 191.065C175.424 190.926 174.924 190.788 174.647 190.649L176.032 185.848C177.356 186.187 178.525 186.31 179.541 186.217C180.556 186.125 181.456 185.671 182.241 184.855C183.041 184.055 183.772 182.755 184.434 180.955L185.45 178.185L172.339 142.545H178.248L188.035 170.798H188.404L198.191 142.545H204.1L189.051 183.17C188.374 185.002 187.535 186.517 186.535 187.718C185.534 188.933 184.373 189.834 183.049 190.418C181.741 191.003 180.264 191.295 178.617 191.295Z" fill="white" fill-opacity="0.3"/>
<path d="M344.724 119V71.7273H350.172V89.1776H350.634C351.034 88.562 351.588 87.7772 352.295 86.8232C353.019 85.8537 354.05 84.992 355.388 84.2379C356.743 83.4685 358.574 83.0838 360.882 83.0838C363.867 83.0838 366.499 83.8301 368.776 85.3228C371.054 86.8155 372.831 88.9313 374.108 91.6705C375.386 94.4096 376.024 97.6411 376.024 101.365C376.024 105.12 375.386 108.374 374.108 111.129C372.831 113.868 371.061 115.992 368.799 117.5C366.537 118.992 363.929 119.739 360.974 119.739C358.697 119.739 356.873 119.362 355.504 118.608C354.134 117.838 353.08 116.969 352.342 115.999C351.603 115.014 351.034 114.199 350.634 113.553H349.987V119H344.724ZM350.08 101.273C350.08 103.95 350.472 106.312 351.257 108.359C352.042 110.39 353.188 111.983 354.696 113.137C356.204 114.276 358.051 114.845 360.236 114.845C362.513 114.845 364.414 114.245 365.937 113.045C367.476 111.829 368.63 110.198 369.4 108.151C370.184 106.089 370.577 103.796 370.577 101.273C370.577 98.7798 370.192 96.5331 369.423 94.5327C368.669 92.5168 367.522 90.9241 365.983 89.7546C364.46 88.5697 362.544 87.9773 360.236 87.9773C358.02 87.9773 356.158 88.5389 354.65 89.6623C353.142 90.7702 352.003 92.3245 351.234 94.3249C350.464 96.31 350.08 98.6259 350.08 101.273ZM399.222 119.739C395.806 119.739 392.859 118.985 390.381 117.477C387.919 115.953 386.019 113.83 384.68 111.106C383.357 108.367 382.695 105.181 382.695 101.55C382.695 97.9181 383.357 94.7173 384.68 91.9474C386.019 89.1622 387.881 86.9924 390.266 85.4382C392.667 83.8686 395.467 83.0838 398.668 83.0838C400.515 83.0838 402.338 83.3916 404.138 84.0071C405.939 84.6226 407.578 85.6229 409.055 87.0078C410.532 88.3774 411.71 90.1932 412.587 92.4553C413.464 94.7173 413.902 97.5026 413.902 100.811V103.119H386.573V98.4105H408.363C408.363 96.41 407.962 94.625 407.162 93.0554C406.377 91.4858 405.254 90.247 403.792 89.3391C402.346 88.4312 400.638 87.9773 398.668 87.9773C396.498 87.9773 394.621 88.5159 393.036 89.593C391.466 90.6548 390.258 92.0398 389.412 93.7479C388.566 95.456 388.142 97.2872 388.142 99.2415V102.381C388.142 105.058 388.604 107.328 389.527 109.19C390.466 111.037 391.766 112.445 393.428 113.414C395.09 114.368 397.021 114.845 399.222 114.845C400.653 114.845 401.946 114.645 403.1 114.245C404.269 113.83 405.277 113.214 406.124 112.398C406.97 111.567 407.624 110.536 408.086 109.305L413.348 110.783C412.794 112.568 411.863 114.137 410.555 115.491C409.247 116.83 407.632 117.877 405.708 118.631C403.785 119.369 401.623 119.739 399.222 119.739ZM447.303 91.4858L442.409 92.8707C442.101 92.0552 441.647 91.2627 441.047 90.4933C440.462 89.7085 439.662 89.0621 438.647 88.5543C437.631 88.0465 436.331 87.7926 434.746 87.7926C432.576 87.7926 430.768 88.2927 429.321 89.293C427.89 90.2778 427.175 91.532 427.175 93.0554C427.175 94.4096 427.667 95.479 428.652 96.2638C429.637 97.0486 431.176 97.7027 433.268 98.2259L438.531 99.5185C441.701 100.288 444.063 101.465 445.618 103.05C447.172 104.62 447.949 106.643 447.949 109.121C447.949 111.152 447.364 112.968 446.195 114.568C445.04 116.169 443.425 117.43 441.347 118.354C439.27 119.277 436.854 119.739 434.099 119.739C430.483 119.739 427.49 118.954 425.12 117.384C422.751 115.815 421.25 113.522 420.619 110.506L425.79 109.213C426.282 111.121 427.213 112.552 428.583 113.506C429.968 114.46 431.776 114.938 434.007 114.938C436.546 114.938 438.562 114.399 440.055 113.322C441.563 112.229 442.317 110.921 442.317 109.398C442.317 108.167 441.886 107.136 441.024 106.305C440.162 105.458 438.839 104.827 437.054 104.412L431.145 103.027C427.898 102.258 425.513 101.065 423.989 99.4492C422.481 97.8181 421.727 95.7791 421.727 93.3324C421.727 91.3319 422.289 89.5623 423.412 88.0234C424.551 86.4846 426.098 85.2766 428.052 84.3995C430.022 83.5224 432.253 83.0838 434.746 83.0838C438.254 83.0838 441.009 83.8532 443.009 85.392C445.025 86.9309 446.456 88.9621 447.303 91.4858ZM471.568 83.5455V88.1619H453.194V83.5455H471.568ZM458.549 75.0511H463.997V108.844C463.997 110.383 464.22 111.537 464.666 112.306C465.128 113.06 465.713 113.568 466.421 113.83C467.144 114.076 467.906 114.199 468.706 114.199C469.306 114.199 469.798 114.168 470.183 114.107C470.568 114.03 470.875 113.968 471.106 113.922L472.214 118.815C471.845 118.954 471.329 119.092 470.668 119.231C470.006 119.385 469.167 119.462 468.152 119.462C466.613 119.462 465.105 119.131 463.628 118.469C462.166 117.807 460.95 116.799 459.981 115.445C459.026 114.091 458.549 112.383 458.549 110.321V75.0511ZM492.769 119.739C489.815 119.739 487.206 118.992 484.944 117.5C482.682 115.992 480.912 113.868 479.635 111.129C478.358 108.374 477.719 105.12 477.719 101.365C477.719 97.6411 478.358 94.4096 479.635 91.6705C480.912 88.9313 482.69 86.8155 484.967 85.3228C487.245 83.8301 489.876 83.0838 492.861 83.0838C495.17 83.0838 496.993 83.4685 498.332 84.2379C499.686 84.992 500.717 85.8537 501.425 86.8232C502.148 87.7772 502.71 88.562 503.11 89.1776H503.572V71.7273H509.019V119H503.756V113.553H503.11C502.71 114.199 502.141 115.014 501.402 115.999C500.663 116.969 499.609 117.838 498.24 118.608C496.87 119.362 495.047 119.739 492.769 119.739ZM493.508 114.845C495.693 114.845 497.539 114.276 499.047 113.137C500.556 111.983 501.702 110.39 502.487 108.359C503.272 106.312 503.664 103.95 503.664 101.273C503.664 98.6259 503.279 96.31 502.51 94.3249C501.74 92.3245 500.602 90.7702 499.094 89.6623C497.586 88.5389 495.724 87.9773 493.508 87.9773C491.199 87.9773 489.276 88.5697 487.737 89.7546C486.214 90.9241 485.067 92.5168 484.298 94.5327C483.544 96.5331 483.167 98.7798 483.167 101.273C483.167 103.796 483.552 106.089 484.321 108.151C485.106 110.198 486.26 111.829 487.783 113.045C489.322 114.245 491.23 114.845 493.508 114.845ZM530.186 119.831C527.939 119.831 525.9 119.408 524.069 118.561C522.238 117.7 520.783 116.461 519.706 114.845C518.629 113.214 518.09 111.244 518.09 108.936C518.09 106.905 518.491 105.258 519.291 103.996C520.091 102.719 521.16 101.719 522.499 100.996C523.838 100.272 525.315 99.7339 526.931 99.38C528.562 99.0107 530.201 98.7183 531.848 98.5028C534.002 98.2259 535.748 98.0181 537.087 97.8796C538.441 97.7257 539.426 97.4718 540.042 97.1179C540.673 96.764 540.988 96.1484 540.988 95.2713V95.0866C540.988 92.8092 540.365 91.0395 539.119 89.7777C537.887 88.5159 536.018 87.8849 533.509 87.8849C530.909 87.8849 528.87 88.4543 527.393 89.593C525.915 90.7318 524.877 91.9474 524.277 93.2401L519.106 91.3935C520.029 89.2391 521.26 87.5618 522.799 86.3615C524.353 85.1458 526.046 84.2995 527.877 83.8224C529.724 83.33 531.54 83.0838 533.325 83.0838C534.464 83.0838 535.772 83.2223 537.249 83.4993C538.742 83.7609 540.18 84.3072 541.565 85.1381C542.966 85.9691 544.127 87.2232 545.051 88.9006C545.974 90.5779 546.436 92.8246 546.436 95.6406V119H540.988V114.199H540.711C540.342 114.968 539.726 115.792 538.865 116.669C538.003 117.546 536.856 118.292 535.425 118.908C533.994 119.523 532.248 119.831 530.186 119.831ZM531.017 114.938C533.171 114.938 534.987 114.514 536.464 113.668C537.957 112.822 539.08 111.729 539.834 110.39C540.603 109.051 540.988 107.643 540.988 106.166V101.18C540.757 101.457 540.25 101.711 539.465 101.942C538.695 102.158 537.803 102.35 536.787 102.519C535.787 102.673 534.81 102.812 533.856 102.935C532.917 103.042 532.155 103.135 531.571 103.212C530.155 103.396 528.831 103.696 527.6 104.112C526.385 104.512 525.4 105.12 524.646 105.935C523.907 106.736 523.538 107.828 523.538 109.213C523.538 111.106 524.238 112.537 525.638 113.506C527.054 114.46 528.847 114.938 531.017 114.938ZM558.617 132.295C557.694 132.295 556.871 132.219 556.148 132.065C555.424 131.926 554.924 131.788 554.647 131.649L556.032 126.848C557.356 127.187 558.525 127.31 559.541 127.217C560.556 127.125 561.456 126.671 562.241 125.855C563.041 125.055 563.772 123.755 564.434 121.955L565.45 119.185L552.339 83.5455H558.248L568.035 111.798H568.404L578.191 83.5455H584.1L569.051 124.17C568.374 126.002 567.535 127.517 566.535 128.718C565.534 129.933 564.373 130.834 563.049 131.418C561.741 132.003 560.264 132.295 558.617 132.295Z" fill="white" fill-opacity="0.4"/>
<path d="M-151.276 119V71.7273H-145.828V89.1776H-145.366C-144.966 88.562 -144.412 87.7772 -143.705 86.8232C-142.981 85.8537 -141.95 84.992 -140.612 84.2379C-139.257 83.4685 -137.426 83.0838 -135.118 83.0838C-132.133 83.0838 -129.501 83.8301 -127.224 85.3228C-124.946 86.8155 -123.169 88.9313 -121.892 91.6705C-120.614 94.4096 -119.976 97.6411 -119.976 101.365C-119.976 105.12 -120.614 108.374 -121.892 111.129C-123.169 113.868 -124.939 115.992 -127.201 117.5C-129.463 118.992 -132.071 119.739 -135.026 119.739C-137.303 119.739 -139.127 119.362 -140.496 118.608C-141.866 117.838 -142.92 116.969 -143.658 115.999C-144.397 115.014 -144.966 114.199 -145.366 113.553H-146.013V119H-151.276ZM-145.92 101.273C-145.92 103.95 -145.528 106.312 -144.743 108.359C-143.958 110.39 -142.812 111.983 -141.304 113.137C-139.796 114.276 -137.949 114.845 -135.764 114.845C-133.487 114.845 -131.586 114.245 -130.063 113.045C-128.524 111.829 -127.37 110.198 -126.6 108.151C-125.816 106.089 -125.423 103.796 -125.423 101.273C-125.423 98.7798 -125.808 96.5331 -126.577 94.5327C-127.331 92.5168 -128.478 90.9241 -130.017 89.7546C-131.54 88.5697 -133.456 87.9773 -135.764 87.9773C-137.98 87.9773 -139.842 88.5389 -141.35 89.6623C-142.858 90.7702 -143.997 92.3245 -144.766 94.3249C-145.536 96.31 -145.92 98.6259 -145.92 101.273ZM-96.7781 119.739C-100.194 119.739 -103.141 118.985 -105.619 117.477C-108.081 115.953 -109.981 113.83 -111.32 111.106C-112.643 108.367 -113.305 105.181 -113.305 101.55C-113.305 97.9181 -112.643 94.7173 -111.32 91.9474C-109.981 89.1622 -108.119 86.9924 -105.734 85.4382C-103.333 83.8686 -100.533 83.0838 -97.332 83.0838C-95.4854 83.0838 -93.6619 83.3916 -91.8615 84.0071C-90.0611 84.6226 -88.4222 85.6229 -86.945 87.0078C-85.4677 88.3774 -84.2905 90.1932 -83.4133 92.4553C-82.5362 94.7173 -82.0977 97.5026 -82.0977 100.811V103.119H-109.427V98.4105H-87.6374C-87.6374 96.41 -88.0375 94.625 -88.8377 93.0554C-89.6225 91.4858 -90.7459 90.247 -92.2077 89.3391C-93.6542 88.4312 -95.3623 87.9773 -97.332 87.9773C-99.5018 87.9773 -101.379 88.5159 -102.964 89.593C-104.534 90.6548 -105.742 92.0398 -106.588 93.7479C-107.434 95.456 -107.858 97.2872 -107.858 99.2415V102.381C-107.858 105.058 -107.396 107.328 -106.473 109.19C-105.534 111.037 -104.234 112.445 -102.572 113.414C-100.91 114.368 -98.9786 114.845 -96.7781 114.845C-95.3469 114.845 -94.0543 114.645 -92.9002 114.245C-91.7307 113.83 -90.7228 113.214 -89.8764 112.398C-89.0301 111.567 -88.3761 110.536 -87.9144 109.305L-82.6516 110.783C-83.2056 112.568 -84.1366 114.137 -85.4446 115.491C-86.7526 116.83 -88.3684 117.877 -90.2919 118.631C-92.2154 119.369 -94.3775 119.739 -96.7781 119.739ZM-48.6974 91.4858L-53.5909 92.8707C-53.8987 92.0552 -54.3526 91.2627 -54.9528 90.4933C-55.5375 89.7085 -56.3377 89.0621 -57.3533 88.5543C-58.369 88.0465 -59.6693 87.7926 -61.2543 87.7926C-63.424 87.7926 -65.2321 88.2927 -66.6786 89.293C-68.1097 90.2778 -68.8253 91.532 -68.8253 93.0554C-68.8253 94.4096 -68.3329 95.479 -67.348 96.2638C-66.3632 97.0486 -64.8243 97.7027 -62.7315 98.2259L-57.4688 99.5185C-54.2988 100.288 -51.9367 101.465 -50.3825 103.05C-48.8282 104.62 -48.0511 106.643 -48.0511 109.121C-48.0511 111.152 -48.6359 112.968 -49.8054 114.568C-50.9595 116.169 -52.5753 117.43 -54.6527 118.354C-56.7301 119.277 -59.1461 119.739 -61.9006 119.739C-65.5168 119.739 -68.5098 118.954 -70.8796 117.384C-73.2494 115.815 -74.7498 113.522 -75.3807 110.506L-70.2102 109.213C-69.7178 111.121 -68.7868 112.552 -67.4173 113.506C-66.0323 114.46 -64.2242 114.938 -61.9929 114.938C-59.4538 114.938 -57.438 114.399 -55.9453 113.322C-54.4373 112.229 -53.6832 110.921 -53.6832 109.398C-53.6832 108.167 -54.1141 107.136 -54.9759 106.305C-55.8376 105.458 -57.161 104.827 -58.946 104.412L-64.8551 103.027C-68.102 102.258 -70.4872 101.065 -72.0107 99.4492C-73.5187 97.8181 -74.2727 95.7791 -74.2727 93.3324C-74.2727 91.3319 -73.7111 89.5623 -72.5877 88.0234C-71.449 86.4846 -69.9025 85.2766 -67.9482 84.3995C-65.9785 83.5224 -63.7472 83.0838 -61.2543 83.0838C-57.7457 83.0838 -54.9912 83.8532 -52.9908 85.392C-50.9749 86.9309 -49.5438 88.9621 -48.6974 91.4858ZM-24.4321 83.5455V88.1619H-42.8057V83.5455H-24.4321ZM-37.4506 75.0511H-32.0031V108.844C-32.0031 110.383 -31.78 111.537 -31.3337 112.306C-30.8721 113.06 -30.2873 113.568 -29.5795 113.83C-28.8562 114.076 -28.0945 114.199 -27.2943 114.199C-26.6942 114.199 -26.2017 114.168 -25.817 114.107C-25.4323 114.03 -25.1246 113.968 -24.8937 113.922L-23.7858 118.815C-24.1551 118.954 -24.6706 119.092 -25.3323 119.231C-25.994 119.385 -26.8327 119.462 -27.8483 119.462C-29.3871 119.462 -30.8952 119.131 -32.3724 118.469C-33.8343 117.807 -35.05 116.799 -36.0194 115.445C-36.9735 114.091 -37.4506 112.383 -37.4506 110.321V75.0511ZM-3.23091 119.739C-6.18546 119.739 -8.79377 118.992 -11.0558 117.5C-13.3179 115.992 -15.0876 113.868 -16.3648 111.129C-17.642 108.374 -18.2806 105.12 -18.2806 101.365C-18.2806 97.6411 -17.642 94.4096 -16.3648 91.6705C-15.0876 88.9313 -13.3102 86.8155 -11.0328 85.3228C-8.7553 83.8301 -6.1239 83.0838 -3.13858 83.0838C-0.830344 83.0838 0.993165 83.4685 2.33194 84.2379C3.68611 84.992 4.71712 85.8537 5.42498 86.8232C6.14823 87.7772 6.7099 88.562 7.11 89.1776H7.57165V71.7273H13.0191V119H7.7563V113.553H7.11C6.7099 114.199 6.14054 115.014 5.4019 115.999C4.66326 116.969 3.60917 117.838 2.23961 118.608C0.870059 119.362 -0.95345 119.739 -3.23091 119.739ZM-2.49228 114.845C-0.307143 114.845 1.53945 114.276 3.0475 113.137C4.55555 111.983 5.70197 110.39 6.48677 108.359C7.27157 106.312 7.66397 103.95 7.66397 101.273C7.66397 98.6259 7.27927 96.31 6.50986 94.3249C5.74044 92.3245 4.60171 90.7702 3.09366 89.6623C1.58561 88.5389 -0.276367 87.9773 -2.49228 87.9773C-4.80051 87.9773 -6.72405 88.5697 -8.26287 89.7546C-9.78631 90.9241 -10.9327 92.5168 -11.7021 94.5327C-12.4562 96.5331 -12.8332 98.7798 -12.8332 101.273C-12.8332 103.796 -12.4485 106.089 -11.6791 108.151C-10.8943 110.198 -9.74014 111.829 -8.21671 113.045C-6.67788 114.245 -4.76974 114.845 -2.49228 114.845ZM34.1856 119.831C31.939 119.831 29.9 119.408 28.0688 118.561C26.2376 117.7 24.7834 116.461 23.7062 114.845C22.6291 113.214 22.0905 111.244 22.0905 108.936C22.0905 106.905 22.4906 105.258 23.2907 103.996C24.0909 102.719 25.1604 101.719 26.4992 100.996C27.838 100.272 29.3153 99.7339 30.931 99.38C32.5622 99.0107 34.201 98.7183 35.8476 98.5028C38.0019 98.2259 39.7485 98.0181 41.0873 97.8796C42.4414 97.7257 43.4263 97.4718 44.0418 97.1179C44.6727 96.764 44.9882 96.1484 44.9882 95.2713V95.0866C44.9882 92.8092 44.365 91.0395 43.1185 89.7777C41.8875 88.5159 40.0178 87.8849 37.5095 87.8849C34.9089 87.8849 32.8699 88.4543 31.3927 89.593C29.9154 90.7318 28.8767 91.9474 28.2765 93.2401L23.1061 91.3935C24.0294 89.2391 25.2604 87.5618 26.7993 86.3615C28.3535 85.1458 30.0462 84.2995 31.8774 83.8224C33.724 83.33 35.5398 83.0838 37.3248 83.0838C38.4636 83.0838 39.7716 83.2223 41.2488 83.4993C42.7415 83.7609 44.1803 84.3072 45.5653 85.1381C46.9656 85.9691 48.1274 87.2232 49.0507 88.9006C49.974 90.5779 50.4356 92.8246 50.4356 95.6406V119H44.9882V114.199H44.7112C44.3419 114.968 43.7264 115.792 42.8646 116.669C42.0029 117.546 40.8564 118.292 39.4253 118.908C37.9942 119.523 36.2477 119.831 34.1856 119.831ZM35.0166 114.938C37.171 114.938 38.9868 114.514 40.464 113.668C41.9567 112.822 43.08 111.729 43.8341 110.39C44.6035 109.051 44.9882 107.643 44.9882 106.166V101.18C44.7574 101.457 44.2496 101.711 43.4648 101.942C42.6953 102.158 41.8028 102.35 40.7872 102.519C39.787 102.673 38.8098 102.812 37.8557 102.935C36.9171 103.042 36.1553 103.135 35.5706 103.212C34.1549 103.396 32.8315 103.696 31.6004 104.112C30.3847 104.512 29.3999 105.12 28.6459 105.935C27.9072 106.736 27.5379 107.828 27.5379 109.213C27.5379 111.106 28.2381 112.537 29.6384 113.506C31.0541 114.46 32.8469 114.938 35.0166 114.938ZM62.6174 132.295C61.6941 132.295 60.8708 132.219 60.1476 132.065C59.4243 131.926 58.9242 131.788 58.6472 131.649L60.0321 126.848C61.3555 127.187 62.525 127.31 63.5407 127.217C64.5563 127.125 65.4565 126.671 66.2413 125.855C67.0415 125.055 67.7724 123.755 68.4341 121.955L69.4498 119.185L56.339 83.5455H62.248L72.035 111.798H72.4043L82.1912 83.5455H88.1003L73.0506 124.17C72.3735 126.002 71.5349 127.517 70.5346 128.718C69.5344 129.933 68.3726 130.834 67.0492 131.418C65.7412 132.003 64.2639 132.295 62.6174 132.295Z" fill="white" fill-opacity="0.4"/>
<path d="M-57.2756 63V15.7273H-51.8281V33.1776H-51.3665C-50.9664 32.562 -50.4124 31.7772 -49.7045 30.8232C-48.9813 29.8537 -47.9503 28.992 -46.6115 28.2379C-45.2573 27.4685 -43.4261 27.0838 -41.1179 27.0838C-38.1326 27.0838 -35.5012 27.8301 -33.2237 29.3228C-30.9463 30.8155 -29.1689 32.9313 -27.8917 35.6705C-26.6145 38.4096 -25.9758 41.6411 -25.9758 45.3651C-25.9758 49.1198 -26.6145 52.3744 -27.8917 55.1289C-29.1689 57.868 -30.9386 59.9916 -33.2006 61.4996C-35.4627 62.9923 -38.071 63.7386 -41.0256 63.7386C-43.303 63.7386 -45.1265 63.3616 -46.4961 62.6076C-47.8656 61.8382 -48.9197 60.9687 -49.6584 59.9993C-50.397 59.0144 -50.9664 58.1989 -51.3665 57.5526H-52.0128V63H-57.2756ZM-51.9205 45.2727C-51.9205 47.9503 -51.5281 50.3124 -50.7433 52.359C-49.9585 54.3903 -48.812 55.983 -47.304 57.1371C-45.7959 58.2758 -43.9493 58.8452 -41.7642 58.8452C-39.4867 58.8452 -37.5863 58.245 -36.0629 57.0447C-34.524 55.8291 -33.3699 54.1979 -32.6005 52.1513C-31.8157 50.0893 -31.4233 47.7964 -31.4233 45.2727C-31.4233 42.7798 -31.808 40.5331 -32.5774 38.5327C-33.3314 36.5168 -34.4779 34.9241 -36.0167 33.7546C-37.5401 32.5697 -39.456 31.9773 -41.7642 31.9773C-43.9801 31.9773 -45.8421 32.5389 -47.3501 33.6623C-48.8582 34.7702 -49.9969 36.3245 -50.7663 38.3249C-51.5357 40.31 -51.9205 42.6259 -51.9205 45.2727ZM-2.77805 63.7386C-6.19425 63.7386 -9.1411 62.9846 -11.6186 61.4766C-14.0807 59.9531 -15.9812 57.8295 -17.32 55.1058C-18.6433 52.3667 -19.305 49.1813 -19.305 45.5497C-19.305 41.9181 -18.6433 38.7173 -17.32 35.9474C-15.9812 33.1622 -14.1192 30.9924 -11.734 29.4382C-9.33345 27.8686 -6.53279 27.0838 -3.33203 27.0838C-1.48544 27.0838 0.338069 27.3916 2.13849 28.0071C3.93892 28.6226 5.57777 29.6229 7.05504 31.0078C8.53232 32.3774 9.70952 34.1932 10.5867 36.4553C11.4638 38.7173 11.9023 41.5026 11.9023 44.8111V47.1193H-15.4272V42.4105H6.36257C6.36257 40.41 5.96248 38.625 5.16229 37.0554C4.37749 35.4858 3.25414 34.247 1.79226 33.3391C0.345763 32.4312 -1.36233 31.9773 -3.33203 31.9773C-5.50178 31.9773 -7.37914 32.5159 -8.96413 33.593C-10.5337 34.6548 -11.7417 36.0398 -12.5881 37.7479C-13.4344 39.456 -13.8576 41.2872 -13.8576 43.2415V46.3807C-13.8576 49.0582 -13.396 51.328 -12.4727 53.19C-11.534 55.0366 -10.2337 56.4446 -8.57173 57.4141C-6.9098 58.3681 -4.97857 58.8452 -2.77805 58.8452C-1.34694 58.8452 -0.0543312 58.6451 1.09979 58.245C2.2693 57.8295 3.27723 57.214 4.12358 56.3984C4.96993 55.5675 5.62394 54.5365 6.08558 53.3054L11.3484 54.7827C10.7944 56.5677 9.8634 58.1373 8.5554 59.4915C7.2474 60.8303 5.63163 61.8767 3.7081 62.6307C1.78456 63.3693 -0.377485 63.7386 -2.77805 63.7386ZM45.3026 35.4858L40.4091 36.8707C40.1013 36.0552 39.6474 35.2627 39.0472 34.4933C38.4625 33.7085 37.6623 33.0621 36.6467 32.5543C35.631 32.0465 34.3307 31.7926 32.7457 31.7926C30.576 31.7926 28.7679 32.2927 27.3214 33.293C25.8903 34.2778 25.1747 35.532 25.1747 37.0554C25.1747 38.4096 25.6671 39.479 26.652 40.2638C27.6368 41.0486 29.1757 41.7027 31.2685 42.2259L36.5312 43.5185C39.7012 44.2879 42.0633 45.4651 43.6175 47.0501C45.1718 48.6197 45.9489 50.6432 45.9489 53.1207C45.9489 55.152 45.3641 56.9678 44.1946 58.5682C43.0405 60.1686 41.4247 61.4304 39.3473 62.3537C37.2699 63.277 34.8539 63.7386 32.0994 63.7386C28.4832 63.7386 25.4902 62.9538 23.1204 61.3842C20.7506 59.8146 19.2502 57.5218 18.6193 54.5057L23.7898 53.2131C24.2822 55.1212 25.2132 56.5523 26.5827 57.5064C27.9677 58.4605 29.7758 58.9375 32.0071 58.9375C34.5462 58.9375 36.562 58.3989 38.0547 57.3217C39.5627 56.2292 40.3168 54.9212 40.3168 53.3977C40.3168 52.1667 39.8859 51.1357 39.0241 50.3047C38.1624 49.4583 36.839 48.8274 35.054 48.4119L29.1449 47.027C25.898 46.2576 23.5128 45.065 21.9893 43.4492C20.4813 41.8181 19.7273 39.7791 19.7273 37.3324C19.7273 35.3319 20.2889 33.5623 21.4123 32.0234C22.551 30.4846 24.0975 29.2766 26.0518 28.3995C28.0215 27.5224 30.2528 27.0838 32.7457 27.0838C36.2543 27.0838 39.0088 27.8532 41.0092 29.392C43.0251 30.9309 44.4562 32.9621 45.3026 35.4858ZM69.5679 27.5455V32.1619H51.1943V27.5455H69.5679ZM56.5494 19.0511H61.9969V52.8438C61.9969 54.3826 62.22 55.5367 62.6663 56.3061C63.1279 57.0601 63.7127 57.5679 64.4205 57.8295C65.1438 58.0758 65.9055 58.1989 66.7057 58.1989C67.3058 58.1989 67.7983 58.1681 68.183 58.1065C68.5677 58.0296 68.8754 57.968 69.1063 57.9219L70.2142 62.8153C69.8449 62.9538 69.3294 63.0923 68.6677 63.2308C68.006 63.3847 67.1673 63.4616 66.1517 63.4616C64.6129 63.4616 63.1048 63.1308 61.6276 62.4691C60.1657 61.8074 58.95 60.7995 57.9806 59.4453C57.0265 58.0911 56.5494 56.383 56.5494 54.321V19.0511ZM90.7691 63.7386C87.8145 63.7386 85.2062 62.9923 82.9442 61.4996C80.6821 59.9916 78.9124 57.868 77.6352 55.1289C76.358 52.3744 75.7194 49.1198 75.7194 45.3651C75.7194 41.6411 76.358 38.4096 77.6352 35.6705C78.9124 32.9313 80.6898 30.8155 82.9672 29.3228C85.2447 27.8301 87.8761 27.0838 90.8614 27.0838C93.1697 27.0838 94.9932 27.4685 96.3319 28.2379C97.6861 28.992 98.7171 29.8537 99.425 30.8232C100.148 31.7772 100.71 32.562 101.11 33.1776H101.572V15.7273H107.019V63H101.756V57.5526H101.11C100.71 58.1989 100.141 59.0144 99.4019 59.9993C98.6633 60.9687 97.6092 61.8382 96.2396 62.6076C94.8701 63.3616 93.0466 63.7386 90.7691 63.7386ZM91.5077 58.8452C93.6929 58.8452 95.5394 58.2758 97.0475 57.1371C98.5555 55.983 99.702 54.3903 100.487 52.359C101.272 50.3124 101.664 47.9503 101.664 45.2727C101.664 42.6259 101.279 40.31 100.51 38.3249C99.7404 36.3245 98.6017 34.7702 97.0937 33.6623C95.5856 32.5389 93.7236 31.9773 91.5077 31.9773C89.1995 31.9773 87.276 32.5697 85.7371 33.7546C84.2137 34.9241 83.0673 36.5168 82.2979 38.5327C81.5438 40.5331 81.1668 42.7798 81.1668 45.2727C81.1668 47.7964 81.5515 50.0893 82.3209 52.1513C83.1057 54.1979 84.2599 55.8291 85.7833 57.0447C87.3221 58.245 89.2303 58.8452 91.5077 58.8452ZM128.186 63.831C125.939 63.831 123.9 63.4078 122.069 62.5614C120.238 61.6997 118.783 60.4609 117.706 58.8452C116.629 57.214 116.09 55.2443 116.09 52.9361C116.09 50.9048 116.491 49.2583 117.291 47.9964C118.091 46.7192 119.16 45.719 120.499 44.9957C121.838 44.2725 123.315 43.7339 124.931 43.38C126.562 43.0107 128.201 42.7183 129.848 42.5028C132.002 42.2259 133.748 42.0181 135.087 41.8796C136.441 41.7257 137.426 41.4718 138.042 41.1179C138.673 40.764 138.988 40.1484 138.988 39.2713V39.0866C138.988 36.8092 138.365 35.0395 137.119 33.7777C135.887 32.5159 134.018 31.8849 131.509 31.8849C128.909 31.8849 126.87 32.4543 125.393 33.593C123.915 34.7318 122.877 35.9474 122.277 37.2401L117.106 35.3935C118.029 33.2391 119.26 31.5618 120.799 30.3615C122.353 29.1458 124.046 28.2995 125.877 27.8224C127.724 27.33 129.54 27.0838 131.325 27.0838C132.464 27.0838 133.772 27.2223 135.249 27.4993C136.742 27.7609 138.18 28.3072 139.565 29.1381C140.966 29.9691 142.127 31.2232 143.051 32.9006C143.974 34.5779 144.436 36.8246 144.436 39.6406V63H138.988V58.1989H138.711C138.342 58.9683 137.726 59.7915 136.865 60.6687C136.003 61.5458 134.856 62.2921 133.425 62.9077C131.994 63.5232 130.248 63.831 128.186 63.831ZM129.017 58.9375C131.171 58.9375 132.987 58.5143 134.464 57.668C135.957 56.8216 137.08 55.729 137.834 54.3903C138.603 53.0515 138.988 51.6435 138.988 50.1662V45.1804C138.757 45.4574 138.25 45.7113 137.465 45.9421C136.695 46.1576 135.803 46.3499 134.787 46.5192C133.787 46.6731 132.81 46.8116 131.856 46.9347C130.917 47.0424 130.155 47.1347 129.571 47.2116C128.155 47.3963 126.831 47.6964 125.6 48.1119C124.385 48.512 123.4 49.1198 122.646 49.9354C121.907 50.7356 121.538 51.8281 121.538 53.2131C121.538 55.1058 122.238 56.5369 123.638 57.5064C125.054 58.4605 126.847 58.9375 129.017 58.9375ZM156.617 76.2955C155.694 76.2955 154.871 76.2185 154.148 76.0646C153.424 75.9261 152.924 75.7876 152.647 75.6491L154.032 70.848C155.356 71.1866 156.525 71.3097 157.541 71.2173C158.556 71.125 159.456 70.671 160.241 69.8555C161.041 69.0553 161.772 67.755 162.434 65.9545L163.45 63.1847L150.339 27.5455H156.248L166.035 55.7983H166.404L176.191 27.5455H182.1L167.051 68.1705C166.374 70.0017 165.535 71.5174 164.535 72.7177C163.534 73.9334 162.373 74.8336 161.049 75.4183C159.741 76.0031 158.264 76.2955 156.617 76.2955Z" fill="white" fill-opacity="0.5"/>
<path d="M190.724 63V15.7273H196.172V33.1776H196.634C197.034 32.562 197.588 31.7772 198.295 30.8232C199.019 29.8537 200.05 28.992 201.388 28.2379C202.743 27.4685 204.574 27.0838 206.882 27.0838C209.867 27.0838 212.499 27.8301 214.776 29.3228C217.054 30.8155 218.831 32.9313 220.108 35.6705C221.386 38.4096 222.024 41.6411 222.024 45.3651C222.024 49.1198 221.386 52.3744 220.108 55.1289C218.831 57.868 217.061 59.9916 214.799 61.4996C212.537 62.9923 209.929 63.7386 206.974 63.7386C204.697 63.7386 202.873 63.3616 201.504 62.6076C200.134 61.8382 199.08 60.9687 198.342 59.9993C197.603 59.0144 197.034 58.1989 196.634 57.5526H195.987V63H190.724ZM196.08 45.2727C196.08 47.9503 196.472 50.3124 197.257 52.359C198.042 54.3903 199.188 55.983 200.696 57.1371C202.204 58.2758 204.051 58.8452 206.236 58.8452C208.513 58.8452 210.414 58.245 211.937 57.0447C213.476 55.8291 214.63 54.1979 215.4 52.1513C216.184 50.0893 216.577 47.7964 216.577 45.2727C216.577 42.7798 216.192 40.5331 215.423 38.5327C214.669 36.5168 213.522 34.9241 211.983 33.7546C210.46 32.5697 208.544 31.9773 206.236 31.9773C204.02 31.9773 202.158 32.5389 200.65 33.6623C199.142 34.7702 198.003 36.3245 197.234 38.3249C196.464 40.31 196.08 42.6259 196.08 45.2727ZM245.222 63.7386C241.806 63.7386 238.859 62.9846 236.381 61.4766C233.919 59.9531 232.019 57.8295 230.68 55.1058C229.357 52.3667 228.695 49.1813 228.695 45.5497C228.695 41.9181 229.357 38.7173 230.68 35.9474C232.019 33.1622 233.881 30.9924 236.266 29.4382C238.667 27.8686 241.467 27.0838 244.668 27.0838C246.515 27.0838 248.338 27.3916 250.138 28.0071C251.939 28.6226 253.578 29.6229 255.055 31.0078C256.532 32.3774 257.71 34.1932 258.587 36.4553C259.464 38.7173 259.902 41.5026 259.902 44.8111V47.1193H232.573V42.4105H254.363C254.363 40.41 253.962 38.625 253.162 37.0554C252.377 35.4858 251.254 34.247 249.792 33.3391C248.346 32.4312 246.638 31.9773 244.668 31.9773C242.498 31.9773 240.621 32.5159 239.036 33.593C237.466 34.6548 236.258 36.0398 235.412 37.7479C234.566 39.456 234.142 41.2872 234.142 43.2415V46.3807C234.142 49.0582 234.604 51.328 235.527 53.19C236.466 55.0366 237.766 56.4446 239.428 57.4141C241.09 58.3681 243.021 58.8452 245.222 58.8452C246.653 58.8452 247.946 58.6451 249.1 58.245C250.269 57.8295 251.277 57.214 252.124 56.3984C252.97 55.5675 253.624 54.5365 254.086 53.3054L259.348 54.7827C258.794 56.5677 257.863 58.1373 256.555 59.4915C255.247 60.8303 253.632 61.8767 251.708 62.6307C249.785 63.3693 247.623 63.7386 245.222 63.7386ZM293.303 35.4858L288.409 36.8707C288.101 36.0552 287.647 35.2627 287.047 34.4933C286.462 33.7085 285.662 33.0621 284.647 32.5543C283.631 32.0465 282.331 31.7926 280.746 31.7926C278.576 31.7926 276.768 32.2927 275.321 33.293C273.89 34.2778 273.175 35.532 273.175 37.0554C273.175 38.4096 273.667 39.479 274.652 40.2638C275.637 41.0486 277.176 41.7027 279.268 42.2259L284.531 43.5185C287.701 44.2879 290.063 45.4651 291.618 47.0501C293.172 48.6197 293.949 50.6432 293.949 53.1207C293.949 55.152 293.364 56.9678 292.195 58.5682C291.04 60.1686 289.425 61.4304 287.347 62.3537C285.27 63.277 282.854 63.7386 280.099 63.7386C276.483 63.7386 273.49 62.9538 271.12 61.3842C268.751 59.8146 267.25 57.5218 266.619 54.5057L271.79 53.2131C272.282 55.1212 273.213 56.5523 274.583 57.5064C275.968 58.4605 277.776 58.9375 280.007 58.9375C282.546 58.9375 284.562 58.3989 286.055 57.3217C287.563 56.2292 288.317 54.9212 288.317 53.3977C288.317 52.1667 287.886 51.1357 287.024 50.3047C286.162 49.4583 284.839 48.8274 283.054 48.4119L277.145 47.027C273.898 46.2576 271.513 45.065 269.989 43.4492C268.481 41.8181 267.727 39.7791 267.727 37.3324C267.727 35.3319 268.289 33.5623 269.412 32.0234C270.551 30.4846 272.098 29.2766 274.052 28.3995C276.022 27.5224 278.253 27.0838 280.746 27.0838C284.254 27.0838 287.009 27.8532 289.009 29.392C291.025 30.9309 292.456 32.9621 293.303 35.4858ZM317.568 27.5455V32.1619H299.194V27.5455H317.568ZM304.549 19.0511H309.997V52.8438C309.997 54.3826 310.22 55.5367 310.666 56.3061C311.128 57.0601 311.713 57.5679 312.421 57.8295C313.144 58.0758 313.906 58.1989 314.706 58.1989C315.306 58.1989 315.798 58.1681 316.183 58.1065C316.568 58.0296 316.875 57.968 317.106 57.9219L318.214 62.8153C317.845 62.9538 317.329 63.0923 316.668 63.2308C316.006 63.3847 315.167 63.4616 314.152 63.4616C312.613 63.4616 311.105 63.1308 309.628 62.4691C308.166 61.8074 306.95 60.7995 305.981 59.4453C305.026 58.0911 304.549 56.383 304.549 54.321V19.0511ZM338.769 63.7386C335.815 63.7386 333.206 62.9923 330.944 61.4996C328.682 59.9916 326.912 57.868 325.635 55.1289C324.358 52.3744 323.719 49.1198 323.719 45.3651C323.719 41.6411 324.358 38.4096 325.635 35.6705C326.912 32.9313 328.69 30.8155 330.967 29.3228C333.245 27.8301 335.876 27.0838 338.861 27.0838C341.17 27.0838 342.993 27.4685 344.332 28.2379C345.686 28.992 346.717 29.8537 347.425 30.8232C348.148 31.7772 348.71 32.562 349.11 33.1776H349.572V15.7273H355.019V63H349.756V57.5526H349.11C348.71 58.1989 348.141 59.0144 347.402 59.9993C346.663 60.9687 345.609 61.8382 344.24 62.6076C342.87 63.3616 341.047 63.7386 338.769 63.7386ZM339.508 58.8452C341.693 58.8452 343.539 58.2758 345.047 57.1371C346.556 55.983 347.702 54.3903 348.487 52.359C349.272 50.3124 349.664 47.9503 349.664 45.2727C349.664 42.6259 349.279 40.31 348.51 38.3249C347.74 36.3245 346.602 34.7702 345.094 33.6623C343.586 32.5389 341.724 31.9773 339.508 31.9773C337.199 31.9773 335.276 32.5697 333.737 33.7546C332.214 34.9241 331.067 36.5168 330.298 38.5327C329.544 40.5331 329.167 42.7798 329.167 45.2727C329.167 47.7964 329.552 50.0893 330.321 52.1513C331.106 54.1979 332.26 55.8291 333.783 57.0447C335.322 58.245 337.23 58.8452 339.508 58.8452ZM376.186 63.831C373.939 63.831 371.9 63.4078 370.069 62.5614C368.238 61.6997 366.783 60.4609 365.706 58.8452C364.629 57.214 364.09 55.2443 364.09 52.9361C364.09 50.9048 364.491 49.2583 365.291 47.9964C366.091 46.7192 367.16 45.719 368.499 44.9957C369.838 44.2725 371.315 43.7339 372.931 43.38C374.562 43.0107 376.201 42.7183 377.848 42.5028C380.002 42.2259 381.748 42.0181 383.087 41.8796C384.441 41.7257 385.426 41.4718 386.042 41.1179C386.673 40.764 386.988 40.1484 386.988 39.2713V39.0866C386.988 36.8092 386.365 35.0395 385.119 33.7777C383.887 32.5159 382.018 31.8849 379.509 31.8849C376.909 31.8849 374.87 32.4543 373.393 33.593C371.915 34.7318 370.877 35.9474 370.277 37.2401L365.106 35.3935C366.029 33.2391 367.26 31.5618 368.799 30.3615C370.353 29.1458 372.046 28.2995 373.877 27.8224C375.724 27.33 377.54 27.0838 379.325 27.0838C380.464 27.0838 381.772 27.2223 383.249 27.4993C384.742 27.7609 386.18 28.3072 387.565 29.1381C388.966 29.9691 390.127 31.2232 391.051 32.9006C391.974 34.5779 392.436 36.8246 392.436 39.6406V63H386.988V58.1989H386.711C386.342 58.9683 385.726 59.7915 384.865 60.6687C384.003 61.5458 382.856 62.2921 381.425 62.9077C379.994 63.5232 378.248 63.831 376.186 63.831ZM377.017 58.9375C379.171 58.9375 380.987 58.5143 382.464 57.668C383.957 56.8216 385.08 55.729 385.834 54.3903C386.603 53.0515 386.988 51.6435 386.988 50.1662V45.1804C386.757 45.4574 386.25 45.7113 385.465 45.9421C384.695 46.1576 383.803 46.3499 382.787 46.5192C381.787 46.6731 380.81 46.8116 379.856 46.9347C378.917 47.0424 378.155 47.1347 377.571 47.2116C376.155 47.3963 374.831 47.6964 373.6 48.1119C372.385 48.512 371.4 49.1198 370.646 49.9354C369.907 50.7356 369.538 51.8281 369.538 53.2131C369.538 55.1058 370.238 56.5369 371.638 57.5064C373.054 58.4605 374.847 58.9375 377.017 58.9375ZM404.617 76.2955C403.694 76.2955 402.871 76.2185 402.148 76.0646C401.424 75.9261 400.924 75.7876 400.647 75.6491L402.032 70.848C403.356 71.1866 404.525 71.3097 405.541 71.2173C406.556 71.125 407.456 70.671 408.241 69.8555C409.041 69.0553 409.772 67.755 410.434 65.9545L411.45 63.1847L398.339 27.5455H404.248L414.035 55.7983H414.404L424.191 27.5455H430.1L415.051 68.1705C414.374 70.0017 413.535 71.5174 412.535 72.7177C411.534 73.9334 410.373 74.8336 409.049 75.4183C407.741 76.0031 406.264 76.2955 404.617 76.2955Z" fill="white" fill-opacity="0.5"/>
<defs>
<filter id="filter0_d_22_4" x="89.7244" y="64.7273" width="253.376" height="74.5682" filterUnits="userSpaceOnUse" color-interpolation-filters="sRGB">
<feFlood flood-opacity="0" result="BackgroundImageFix"/>
<feColorMatrix in="SourceAlpha" type="matrix" values="0 0 0 0 0 0 0 0 0 0 0 0 0 0 0 0 0 0 127 0" result="hardAlpha"/>
<feOffset/>
<feGaussianBlur stdDeviation="3.5"/>
<feComposite in2="hardAlpha" operator="out"/>
<feColorMatrix type="matrix" values="0 0 0 0 1 0 0 0 0 1 0 0 0 0 1 0 0 0 1 0"/>
<feBlend mode="normal" in2="BackgroundImageFix" result="effect1_dropShadow_22_4"/>
<feBlend mode="normal" in="SourceGraphic" in2="effect1_dropShadow_22_4" result="shape"/>
</filter>
</defs>
</svg>
