<svg width="45" height="46" viewBox="0 0 45 46" fill="none" xmlns="http://www.w3.org/2000/svg">
<path fill-rule="evenodd" clip-rule="evenodd" d="M18.9672 0.902871C19.8526 0.434262 20.8494 0.170662 21.8711 0.134928C22.8928 0.0991948 23.9086 0.292407 24.8304 0.697811L25.2528 0.902871L41.0772 9.27345C41.9672 9.74414 42.7177 10.4076 43.2629 11.2057C43.8082 12.0039 44.1316 12.9123 44.2049 13.8516L44.22 14.2617V31.0075C44.2198 31.9488 43.9678 32.8758 43.4861 33.7072C43.0044 34.5387 42.3077 35.2493 41.4569 35.7768L41.0797 35.9957L25.2528 44.3686C24.3674 44.8372 23.3706 45.1008 22.3489 45.1365C21.3272 45.1723 20.3114 44.9791 19.3896 44.5737L18.9672 44.3663L3.14277 36.0003C2.2528 35.5296 1.50233 34.8662 0.957058 34.068C0.41179 33.2699 0.0883586 32.3614 0.0150848 31.4222L0 31.0121V14.264C0.00050622 13.3224 0.25288 12.3953 0.735026 11.5639C1.21717 10.7324 1.91439 10.0219 2.76564 9.49464L3.14277 9.27575L18.9672 0.902871ZM22.7386 4.89347C22.5799 4.80964 22.4032 4.75858 22.2208 4.74386C22.0385 4.72913 21.8547 4.7511 21.6826 4.80822L21.4814 4.89347L5.65698 13.2664C5.49854 13.3503 5.36201 13.4649 5.25691 13.6022C5.15182 13.7395 5.08071 13.8962 5.04854 14.0612L5.02843 14.264V31.0098C5.02862 31.1775 5.06876 31.3431 5.14606 31.4952C5.22336 31.6472 5.33595 31.7819 5.47596 31.8899L5.65698 32.0051L21.4814 40.3803C21.6401 40.4641 21.8167 40.5152 21.9991 40.5299C22.1815 40.5446 22.3652 40.5227 22.5374 40.4656L22.7386 40.3803L38.563 32.0074C38.7219 31.9237 38.8589 31.8092 38.9645 31.6719C39.07 31.5346 39.1415 31.3778 39.174 31.2125L39.1916 31.0098V14.264C39.1917 14.0965 39.1519 13.9309 39.0751 13.7789C38.9982 13.6269 38.8861 13.4921 38.7466 13.3839L38.563 13.2664L22.7386 4.89347ZM22.11 13.4207C24.7772 13.4207 27.3352 14.3917 29.2213 16.1201C31.1073 17.8484 32.1669 20.1926 32.1669 22.6369C32.1669 25.0812 31.1073 27.4253 29.2213 29.1537C27.3352 30.8821 24.7772 31.8531 22.11 31.8531C19.4428 31.8531 16.8848 30.8821 14.9987 29.1537C13.1127 27.4253 12.0531 25.0812 12.0531 22.6369C12.0531 20.1926 13.1127 17.8484 14.9987 16.1201C16.8848 14.3917 19.4428 13.4207 22.11 13.4207ZM22.11 18.0288C20.7764 18.0288 19.4974 18.5143 18.5544 19.3785C17.6113 20.2427 17.0816 21.4147 17.0816 22.6369C17.0816 23.859 17.6113 25.0311 18.5544 25.8953C19.4974 26.7595 20.7764 27.245 22.11 27.245C23.4436 27.245 24.7226 26.7595 25.6656 25.8953C26.6086 25.0311 27.1384 23.859 27.1384 22.6369C27.1384 21.4147 26.6086 20.2427 25.6656 19.3785C24.7226 18.5143 23.4436 18.0288 22.11 18.0288Z" fill="white"/>
</svg>
