<svg width="10" height="18" viewBox="0 0 10 18" fill="none" xmlns="http://www.w3.org/2000/svg">
<path fill-rule="evenodd" clip-rule="evenodd" d="M0.366227 0.342777C0.581975 0.123286 0.87443 0 1.17935 0C1.48428 0 1.77673 0.123286 1.99248 0.342777L9.66349 8.1566C9.87897 8.37637 10 8.67427 10 8.98487C10 9.29547 9.87897 9.59337 9.66349 9.81313L1.99248 17.627C1.88714 17.7421 1.76011 17.8345 1.61896 17.8985C1.47781 17.9626 1.32545 17.997 1.17095 17.9998C1.01645 18.0026 0.862987 17.9736 0.71971 17.9147C0.576434 17.8557 0.446282 17.768 0.337018 17.6567C0.227754 17.5454 0.141617 17.4128 0.0837457 17.2669C0.025874 17.1209 -0.00254687 16.9646 0.000179072 16.8072C0.00290502 16.6499 0.0367221 16.4947 0.0996121 16.3509C0.162502 16.2071 0.253177 16.0777 0.366227 15.9704L7.22411 8.98487L0.366227 1.99931C0.150748 1.77954 0.0297148 1.48164 0.0297148 1.17104C0.0297148 0.860442 0.150748 0.562542 0.366227 0.342777Z" fill="#1E1E1E"/>
</svg>
