<svg width="26" height="30" viewBox="0 0 26 30" fill="none" xmlns="http://www.w3.org/2000/svg">
<path fill-rule="evenodd" clip-rule="evenodd" d="M7 0C7.26522 0 7.51957 0.121566 7.70711 0.337954C7.89464 0.554342 8 0.847827 8 1.15385V2.30769H18V1.15385C18 0.847827 18.1054 0.554342 18.2929 0.337954C18.4804 0.121566 18.7348 0 19 0C19.2652 0 19.5196 0.121566 19.7071 0.337954C19.8946 0.554342 20 0.847827 20 1.15385V2.30769H23C23.7956 2.30769 24.5587 2.67239 25.1213 3.32155C25.6839 3.97072 26 4.85117 26 5.76923V26.5385C26 27.4565 25.6839 28.337 25.1213 28.9861C24.5587 29.6353 23.7956 30 23 30H3C2.20435 30 1.44129 29.6353 0.87868 28.9861C0.316071 28.337 0 27.4565 0 26.5385V5.76923C0 4.85117 0.316071 3.97072 0.87868 3.32155C1.44129 2.67239 2.20435 2.30769 3 2.30769H6V1.15385C6 0.847827 6.10536 0.554342 6.29289 0.337954C6.48043 0.121566 6.73478 0 7 0ZM18 4.61538V5.76923C18 6.07525 18.1054 6.36873 18.2929 6.58512C18.4804 6.80151 18.7348 6.92308 19 6.92308C19.2652 6.92308 19.5196 6.80151 19.7071 6.58512C19.8946 6.36873 20 6.07525 20 5.76923V4.61538H23C23.2652 4.61538 23.5196 4.73695 23.7071 4.95334C23.8946 5.16973 24 5.46321 24 5.76923V9.23077H2V5.76923C2 5.46321 2.10536 5.16973 2.29289 4.95334C2.48043 4.73695 2.73478 4.61538 3 4.61538H6V5.76923C6 6.07525 6.10536 6.36873 6.29289 6.58512C6.48043 6.80151 6.73478 6.92308 7 6.92308C7.26522 6.92308 7.51957 6.80151 7.70711 6.58512C7.89464 6.36873 8 6.07525 8 5.76923V4.61538H18ZM2 11.5385V26.5385C2 26.8445 2.10536 27.138 2.29289 27.3544C2.48043 27.5707 2.73478 27.6923 3 27.6923H23C23.2652 27.6923 23.5196 27.5707 23.7071 27.3544C23.8946 27.138 24 26.8445 24 26.5385V11.5385H2ZM12 15C12 14.694 12.1054 14.4005 12.2929 14.1841C12.4804 13.9677 12.7348 13.8462 13 13.8462C13.2652 13.8462 13.5196 13.9677 13.7071 14.1841C13.8946 14.4005 14 14.694 14 15C14 15.306 13.8946 15.5995 13.7071 15.8159C13.5196 16.0323 13.2652 16.1538 13 16.1538C12.7348 16.1538 12.4804 16.0323 12.2929 15.8159C12.1054 15.5995 12 15.306 12 15ZM17 13.8462C16.7348 13.8462 16.4804 13.9677 16.2929 14.1841C16.1054 14.4005 16 14.694 16 15C16 15.306 16.1054 15.5995 16.2929 15.8159C16.4804 16.0323 16.7348 16.1538 17 16.1538C17.2652 16.1538 17.5196 16.0323 17.7071 15.8159C17.8946 15.5995 18 15.306 18 15C18 14.694 17.8946 14.4005 17.7071 14.1841C17.5196 13.9677 17.2652 13.8462 17 13.8462ZM20 15C20 14.694 20.1054 14.4005 20.2929 14.1841C20.4804 13.9677 20.7348 13.8462 21 13.8462C21.2652 13.8462 21.5196 13.9677 21.7071 14.1841C21.8946 14.4005 22 14.694 22 15C22 15.306 21.8946 15.5995 21.7071 15.8159C21.5196 16.0323 21.2652 16.1538 21 16.1538C20.7348 16.1538 20.4804 16.0323 20.2929 15.8159C20.1054 15.5995 20 15.306 20 15ZM21 18.4615C20.7348 18.4615 20.4804 18.5831 20.2929 18.7995C20.1054 19.0159 20 19.3094 20 19.6154C20 19.9214 20.1054 20.2149 20.2929 20.4313C20.4804 20.6477 20.7348 20.7692 21 20.7692C21.2652 20.7692 21.5196 20.6477 21.7071 20.4313C21.8946 20.2149 22 19.9214 22 19.6154C22 19.3094 21.8946 19.0159 21.7071 18.7995C21.5196 18.5831 21.2652 18.4615 21 18.4615ZM16 19.6154C16 19.3094 16.1054 19.0159 16.2929 18.7995C16.4804 18.5831 16.7348 18.4615 17 18.4615C17.2652 18.4615 17.5196 18.5831 17.7071 18.7995C17.8946 19.0159 18 19.3094 18 19.6154C18 19.9214 17.8946 20.2149 17.7071 20.4313C17.5196 20.6477 17.2652 20.7692 17 20.7692C16.7348 20.7692 16.4804 20.6477 16.2929 20.4313C16.1054 20.2149 16 19.9214 16 19.6154ZM13 18.4615C12.7348 18.4615 12.4804 18.5831 12.2929 18.7995C12.1054 19.0159 12 19.3094 12 19.6154C12 19.9214 12.1054 20.2149 12.2929 20.4313C12.4804 20.6477 12.7348 20.7692 13 20.7692C13.2652 20.7692 13.5196 20.6477 13.7071 20.4313C13.8946 20.2149 14 19.9214 14 19.6154C14 19.3094 13.8946 19.0159 13.7071 18.7995C13.5196 18.5831 13.2652 18.4615 13 18.4615ZM8 19.6154C8 19.3094 8.10536 19.0159 8.29289 18.7995C8.48043 18.5831 8.73478 18.4615 9 18.4615C9.26522 18.4615 9.51957 18.5831 9.70711 18.7995C9.89464 19.0159 10 19.3094 10 19.6154C10 19.9214 9.89464 20.2149 9.70711 20.4313C9.51957 20.6477 9.26522 20.7692 9 20.7692C8.73478 20.7692 8.48043 20.6477 8.29289 20.4313C8.10536 20.2149 8 19.9214 8 19.6154ZM5 18.4615C4.73478 18.4615 4.48043 18.5831 4.29289 18.7995C4.10536 19.0159 4 19.3094 4 19.6154C4 19.9214 4.10536 20.2149 4.29289 20.4313C4.48043 20.6477 4.73478 20.7692 5 20.7692C5.26522 20.7692 5.51957 20.6477 5.70711 20.4313C5.89464 20.2149 6 19.9214 6 19.6154C6 19.3094 5.89464 19.0159 5.70711 18.7995C5.51957 18.5831 5.26522 18.4615 5 18.4615ZM4 24.2308C4 23.9248 4.10536 23.6313 4.29289 23.4149C4.48043 23.1985 4.73478 23.0769 5 23.0769C5.26522 23.0769 5.51957 23.1985 5.70711 23.4149C5.89464 23.6313 6 23.9248 6 24.2308C6 24.5368 5.89464 24.8303 5.70711 25.0467C5.51957 25.2631 5.26522 25.3846 5 25.3846C4.73478 25.3846 4.48043 25.2631 4.29289 25.0467C4.10536 24.8303 4 24.5368 4 24.2308ZM9 23.0769C8.73478 23.0769 8.48043 23.1985 8.29289 23.4149C8.10536 23.6313 8 23.9248 8 24.2308C8 24.5368 8.10536 24.8303 8.29289 25.0467C8.48043 25.2631 8.73478 25.3846 9 25.3846C9.26522 25.3846 9.51957 25.2631 9.70711 25.0467C9.89464 24.8303 10 24.5368 10 24.2308C10 23.9248 9.89464 23.6313 9.70711 23.4149C9.51957 23.1985 9.26522 23.0769 9 23.0769ZM12 24.2308C12 23.9248 12.1054 23.6313 12.2929 23.4149C12.4804 23.1985 12.7348 23.0769 13 23.0769C13.2652 23.0769 13.5196 23.1985 13.7071 23.4149C13.8946 23.6313 14 23.9248 14 24.2308C14 24.5368 13.8946 24.8303 13.7071 25.0467C13.5196 25.2631 13.2652 25.3846 13 25.3846C12.7348 25.3846 12.4804 25.2631 12.2929 25.0467C12.1054 24.8303 12 24.5368 12 24.2308ZM17 23.0769C16.7348 23.0769 16.4804 23.1985 16.2929 23.4149C16.1054 23.6313 16 23.9248 16 24.2308C16 24.5368 16.1054 24.8303 16.2929 25.0467C16.4804 25.2631 16.7348 25.3846 17 25.3846C17.2652 25.3846 17.5196 25.2631 17.7071 25.0467C17.8946 24.8303 18 24.5368 18 24.2308C18 23.9248 17.8946 23.6313 17.7071 23.4149C17.5196 23.1985 17.2652 23.0769 17 23.0769Z" fill="#959595"/>
</svg>
