<svg width="36" height="25" viewBox="0 0 36 25" fill="none" xmlns="http://www.w3.org/2000/svg">
<path fill-rule="evenodd" clip-rule="evenodd" d="M1.38462 0C1.01739 0 0.66521 0.146329 0.405544 0.406796C0.145879 0.667264 0 1.02053 0 1.38889C0 1.75725 0.145879 2.11051 0.405544 2.37098C0.66521 2.63145 1.01739 2.77778 1.38462 2.77778H34.6154C34.9826 2.77778 35.3348 2.63145 35.5945 2.37098C35.8541 2.11051 36 1.75725 36 1.38889C36 1.02053 35.8541 0.667264 35.5945 0.406796C35.3348 0.146329 34.9826 0 34.6154 0H1.38462ZM0 12.5C0 12.1316 0.145879 11.7784 0.405544 11.5179C0.66521 11.2574 1.01739 11.1111 1.38462 11.1111H34.6154C34.9826 11.1111 35.3348 11.2574 35.5945 11.5179C35.8541 11.7784 36 12.1316 36 12.5C36 12.8684 35.8541 13.2216 35.5945 13.4821C35.3348 13.7426 34.9826 13.8889 34.6154 13.8889H1.38462C1.01739 13.8889 0.66521 13.7426 0.405544 13.4821C0.145879 13.2216 0 12.8684 0 12.5ZM0 23.6111C0 23.2428 0.145879 22.8895 0.405544 22.629C0.66521 22.3685 1.01739 22.2222 1.38462 22.2222H34.6154C34.9826 22.2222 35.3348 22.3685 35.5945 22.629C35.8541 22.8895 36 23.2428 36 23.6111C36 23.9795 35.8541 24.3327 35.5945 24.5932C35.3348 24.8537 34.9826 25 34.6154 25H1.38462C1.01739 25 0.66521 24.8537 0.405544 24.5932C0.145879 24.3327 0 23.9795 0 23.6111Z" fill="#1E1E1E"/>
</svg>
