<svg width="23" height="23" viewBox="0 0 23 23" fill="none" xmlns="http://www.w3.org/2000/svg">
<path fill-rule="evenodd" clip-rule="evenodd" d="M16.7262 9.40829C16.7262 10.3693 16.5369 11.3209 16.1691 12.2087C15.8014 13.0966 15.2624 13.9033 14.5828 14.5828C13.9033 15.2624 13.0966 15.8014 12.2087 16.1691C11.3209 16.5369 10.3693 16.7262 9.40829 16.7262C8.44728 16.7262 7.49569 16.5369 6.60784 16.1691C5.72 15.8014 4.91328 15.2624 4.23375 14.5828C3.55422 13.9033 3.01518 13.0966 2.64742 12.2087C2.27966 11.3209 2.09038 10.3693 2.09038 9.40829C2.09038 7.46746 2.86137 5.60612 4.23375 4.23375C5.60612 2.86137 7.46746 2.09038 9.40829 2.09038C11.3491 2.09038 13.2105 2.86137 14.5828 4.23375C15.9552 5.60612 16.7262 7.46746 16.7262 9.40829ZM15.2814 16.7596C13.4026 18.2606 11.0204 18.9852 8.62409 18.7847C6.22773 18.5842 3.99911 17.4737 2.39593 15.6813C0.792761 13.8889 -0.0632704 11.5507 0.00364728 9.14692C0.070565 6.74311 1.05535 4.45616 2.75576 2.75576C4.45616 1.05535 6.74311 0.070565 9.14692 0.00364728C11.5507 -0.0632704 13.8889 0.792761 15.6813 2.39593C17.4737 3.99911 18.5842 6.22773 18.7847 8.62409C18.9852 11.0204 18.2606 13.4026 16.7596 15.2814L22.6934 21.2131C22.7906 21.3103 22.8677 21.4257 22.9203 21.5527C22.9729 21.6797 23 21.8158 23 21.9533C23 22.0907 22.9729 22.2268 22.9203 22.3538C22.8677 22.4808 22.7906 22.5962 22.6934 22.6934C22.5962 22.7906 22.4808 22.8677 22.3538 22.9203C22.2268 22.9729 22.0907 23 21.9533 23C21.8158 23 21.6797 22.9729 21.5527 22.9203C21.4257 22.8677 21.3103 22.7906 21.2131 22.6934L15.2814 16.7596Z" fill="#1E1E1E"/>
</svg>
