<svg width="26" height="30" viewBox="0 0 26 30" fill="none" xmlns="http://www.w3.org/2000/svg">
<path fill-rule="evenodd" clip-rule="evenodd" d="M2.36364 3.46154C2.36364 3.15552 2.48815 2.86203 2.70978 2.64565C2.93142 2.42926 3.23202 2.30769 3.54545 2.30769H16.7487C17.0616 2.30776 17.3616 2.42892 17.5831 2.64462L23.2913 8.21769C23.5122 8.43394 23.6363 8.72688 23.6364 9.03231V26.5385C23.6364 26.8445 23.5119 27.138 23.2902 27.3544C23.0686 27.5707 22.768 27.6923 22.4545 27.6923H3.54545C3.23202 27.6923 2.93142 27.5707 2.70978 27.3544C2.48815 27.138 2.36364 26.8445 2.36364 26.5385V3.46154ZM3.54545 0C2.60514 0 1.70334 0.364697 1.03844 1.01386C0.373538 1.66303 0 2.54348 0 3.46154V26.5385C0 27.4565 0.373538 28.337 1.03844 28.9861C1.70334 29.6353 2.60514 30 3.54545 30H22.4545C23.3949 30 24.2967 29.6353 24.9616 28.9861C25.6265 28.337 26 27.4565 26 26.5385V9.03231C25.9992 8.11456 25.6251 7.2347 24.96 6.58615L19.2542 1.01308C18.5895 0.364573 17.6884 0.00019588 16.7487 0H3.54545ZM5.90909 6.92308C5.59565 6.92308 5.29505 7.04464 5.07342 7.26103C4.85179 7.47742 4.72727 7.7709 4.72727 8.07692C4.72727 8.38294 4.85179 8.67643 5.07342 8.89282C5.29505 9.1092 5.59565 9.23077 5.90909 9.23077H13C13.3134 9.23077 13.614 9.1092 13.8357 8.89282C14.0573 8.67643 14.1818 8.38294 14.1818 8.07692C14.1818 7.7709 14.0573 7.47742 13.8357 7.26103C13.614 7.04464 13.3134 6.92308 13 6.92308H5.90909ZM5.90909 13.8462C5.59565 13.8462 5.29505 13.9677 5.07342 14.1841C4.85179 14.4005 4.72727 14.694 4.72727 15C4.72727 15.306 4.85179 15.5995 5.07342 15.8159C5.29505 16.0323 5.59565 16.1538 5.90909 16.1538H20.0909C20.4043 16.1538 20.7049 16.0323 20.9266 15.8159C21.1482 15.5995 21.2727 15.306 21.2727 15C21.2727 14.694 21.1482 14.4005 20.9266 14.1841C20.7049 13.9677 20.4043 13.8462 20.0909 13.8462H5.90909ZM5.90909 20.7692C5.59565 20.7692 5.29505 20.8908 5.07342 21.1072C4.85179 21.3236 4.72727 21.6171 4.72727 21.9231C4.72727 22.2291 4.85179 22.5226 5.07342 22.739C5.29505 22.9554 5.59565 23.0769 5.90909 23.0769H20.0909C20.4043 23.0769 20.7049 22.9554 20.9266 22.739C21.1482 22.5226 21.2727 22.2291 21.2727 21.9231C21.2727 21.6171 21.1482 21.3236 20.9266 21.1072C20.7049 20.8908 20.4043 20.7692 20.0909 20.7692H5.90909Z" fill="#959595"/>
</svg>
