<svg width="40" height="39" viewBox="0 0 40 39" fill="none" xmlns="http://www.w3.org/2000/svg">
<path d="M20.4464 13.65C18.8905 13.65 17.3983 14.2663 16.298 15.3634C15.1978 16.4605 14.5797 17.9485 14.5797 19.5C14.5797 21.0515 15.1978 22.5395 16.298 23.6366C17.3983 24.7337 18.8905 25.35 20.4464 25.35C22.0023 25.35 23.4945 24.7337 24.5948 23.6366C25.695 22.5395 26.3131 21.0515 26.3131 19.5C26.3131 17.9485 25.695 16.4605 24.5948 15.3634C23.4945 14.2663 22.0023 13.65 20.4464 13.65ZM20.4464 9.75C23.0396 9.75 25.5266 10.7772 27.3603 12.6057C29.194 14.4342 30.2242 16.9141 30.2242 19.5C30.2242 22.0859 29.194 24.5658 27.3603 26.3943C25.5266 28.2228 23.0396 29.25 20.4464 29.25C17.8532 29.25 15.3662 28.2228 13.5325 26.3943C11.6988 24.5658 10.6686 22.0859 10.6686 19.5C10.6686 16.9141 11.6988 14.4342 13.5325 12.6057C15.3662 10.7772 17.8532 9.75 20.4464 9.75ZM33.1575 9.2625C33.1575 9.90897 32.9 10.529 32.4415 10.9861C31.9831 11.4432 31.3614 11.7 30.7131 11.7C30.0648 11.7 29.443 11.4432 28.9846 10.9861C28.5262 10.529 28.2686 9.90897 28.2686 9.2625C28.2686 8.61604 28.5262 7.99605 28.9846 7.53893C29.443 7.08181 30.0648 6.825 30.7131 6.825C31.3614 6.825 31.9831 7.08181 32.4415 7.53893C32.9 7.99605 33.1575 8.61604 33.1575 9.2625ZM20.4464 3.9C15.6084 3.9 14.8183 3.91365 12.5675 4.0131C11.0343 4.08525 10.0057 4.29 9.05137 4.6605C8.25276 4.95288 7.53076 5.42151 6.93937 6.03135C6.3273 6.62103 5.85669 7.34094 5.56266 8.13735C5.19111 9.09285 4.98577 10.1166 4.91537 11.6435C4.81369 13.7963 4.8 14.549 4.8 19.5C4.8 24.3263 4.81369 25.1121 4.91342 27.3565C4.98577 28.8834 5.19111 29.9111 5.56071 30.8607C5.89315 31.709 6.28426 32.3193 6.93351 32.9667C7.59253 33.6219 8.20462 34.0138 9.04551 34.3375C10.0116 34.71 11.0402 34.9167 12.5655 34.9869C14.7244 35.0883 15.4793 35.1 20.4444 35.1C25.2844 35.1 26.0725 35.0863 28.3234 34.9869C29.8526 34.9147 30.8812 34.71 31.8375 34.3415C32.6354 34.0476 33.3571 33.5792 33.9495 32.9706C34.6085 32.3154 35.0016 31.705 35.3262 30.8646C35.6978 29.9052 35.9051 28.8795 35.9755 27.3546C36.0772 25.2038 36.0889 24.4491 36.0889 19.5C36.0889 14.6757 36.0752 13.8879 35.9755 11.6435C35.9031 10.1186 35.6958 9.08895 35.3262 8.13735C35.0314 7.34178 34.5617 6.62217 33.9515 6.03135C33.3604 5.4207 32.6383 4.95138 31.8395 4.65855C30.8812 4.28805 29.8526 4.0833 28.3234 4.0131C26.1664 3.9117 25.4116 3.9 20.4444 3.9M20.4444 0C25.7577 0 26.4206 0.0194999 28.5072 0.117C30.5879 0.2145 32.0076 0.54015 33.2533 1.02375C34.544 1.51905 35.6313 2.18985 36.7186 3.2721C37.713 4.2469 38.4824 5.42605 38.9733 6.7275C39.4564 7.96965 39.7849 9.38535 39.8827 11.4621C39.9746 13.5408 40 14.2019 40 19.5C40 24.7982 39.9804 25.4592 39.8827 27.5379C39.7849 29.6147 39.4564 31.0284 38.9733 32.2725C38.4838 33.5746 37.7141 34.7541 36.7186 35.7279C35.7407 36.7191 34.5583 37.4863 33.2533 37.9763C32.0076 38.4579 30.5879 38.7855 28.5072 38.883C26.4206 38.9747 25.7577 39 20.4444 39C15.1312 39 14.4683 38.9805 12.3817 38.883C10.301 38.7855 8.8832 38.4579 7.63555 37.9763C6.32988 37.4877 5.14716 36.7203 4.17031 35.7279C3.17577 34.7532 2.40632 33.574 1.91555 32.2725C1.43057 31.0303 1.104 29.6147 1.00622 27.5379C0.912352 25.4592 0.888885 24.7982 0.888885 19.5C0.888885 14.2019 0.908441 13.5408 1.00622 11.4621C1.104 9.38535 1.43057 7.9716 1.91555 6.7275C2.4049 5.42525 3.17455 4.24578 4.17031 3.2721C5.14744 2.28 6.33008 1.51267 7.63555 1.02375C8.88124 0.54015 10.299 0.2145 12.3817 0.117C14.4702 0.0253499 15.1332 0 20.4464 0" fill="#1E1E1E"/>
</svg>
