<svg width="218" height="69" viewBox="0 0 218 69" fill="none" xmlns="http://www.w3.org/2000/svg">
<path d="M16.0352 15.7734V24.2891C16.0352 24.7969 16.1328 25.1615 16.3281 25.3828C16.4323 25.513 16.5299 25.5977 16.6211 25.6367C16.7122 25.6628 17.0117 25.7409 17.5195 25.8711C18.1445 26.0143 18.457 26.3724 18.457 26.9453C18.457 27.3229 18.2812 27.6094 17.9297 27.8047C17.7214 27.9349 17.3177 28 16.7188 28H16.0547H7.34375H6.69922C6.11328 28 5.70312 27.9219 5.46875 27.7656C5.13021 27.5573 4.96094 27.2839 4.96094 26.9453C4.96094 26.3724 5.27344 26.0143 5.89844 25.8711C6.40625 25.7409 6.70573 25.6628 6.79688 25.6367C6.88802 25.5977 6.97917 25.513 7.07031 25.3828C7.26562 25.1615 7.36328 24.7969 7.36328 24.2891V17.6875L1.83594 4.50391C1.6276 4.00911 1.33464 3.65104 0.957031 3.42969C0.605469 3.20833 0.377604 3.03255 0.273438 2.90234C0.182292 2.77214 0.136719 2.58984 0.136719 2.35547C0.136719 1.67839 0.63151 1.33984 1.62109 1.33984H11.1914C11.6992 1.33984 12.0508 1.39844 12.2461 1.51562C12.5716 1.72396 12.7344 1.9974 12.7344 2.33594C12.7344 2.7526 12.5456 3.07812 12.168 3.3125L11.6016 3.66406C11.3802 3.80729 11.2695 4.02214 11.2695 4.30859C11.2695 4.63411 11.3411 4.95312 11.4844 5.26562L16.0352 15.7734ZM16.7969 13.918L15.7031 11.3594L17.7539 6.76953C17.9232 6.37891 18.0078 5.84505 18.0078 5.16797C18.0078 4.41276 17.5911 3.8724 16.7578 3.54688C16.3021 3.36458 16.0026 3.20833 15.8594 3.07812C15.7292 2.9349 15.6641 2.72005 15.6641 2.43359C15.6641 2.08203 15.7812 1.8151 16.0156 1.63281C16.1719 1.51562 16.3477 1.4375 16.543 1.39844C16.7383 1.35938 17.0768 1.33984 17.5586 1.33984H22.3828C23.2943 1.33984 23.75 1.70443 23.75 2.43359C23.75 2.69401 23.6849 2.89583 23.5547 3.03906C23.4375 3.18229 23.2031 3.33203 22.8516 3.48828C22.2135 3.77474 21.7578 4.0612 21.4844 4.34766C21.0938 4.76432 20.7682 5.23958 20.5078 5.77344L20.0586 6.76953L16.7969 13.918ZM36.25 0.8125V3.17578C35.4818 3.29297 34.9089 3.63151 34.5312 4.19141C34.1536 4.7513 33.9648 5.55208 33.9648 6.59375V22.7266V23.5664C33.9648 23.8659 34.0234 24.1849 34.1406 24.5234C34.2708 24.849 34.4336 25.1289 34.6289 25.3633C34.8372 25.6237 35.0586 25.8125 35.293 25.9297C35.5273 26.0339 35.8464 26.1055 36.25 26.1445V28.5273C33.724 28.5273 31.5299 27.8698 29.668 26.5547C28.0273 25.3958 26.7904 23.8398 25.957 21.8867C25.1237 19.9206 24.707 17.5964 24.707 14.9141C24.707 12.9479 24.974 11.1185 25.5078 9.42578C26.0547 7.72005 26.8424 6.24219 27.8711 4.99219C28.9128 3.72917 30.1562 2.71354 31.6016 1.94531C33.0599 1.17708 34.4596 0.792969 35.8008 0.792969L36.25 0.8125ZM37.793 3.19531V0.832031C38.431 0.936198 38.9453 1.04688 39.3359 1.16406C39.7396 1.28125 40.4622 1.52865 41.5039 1.90625C42.168 2.14062 42.6107 2.25781 42.832 2.25781C43.2096 2.25781 43.4961 2.08854 43.6914 1.75L43.9453 1.28125C44.1016 0.96875 44.3945 0.8125 44.8242 0.8125C45.1758 0.8125 45.4427 0.916667 45.625 1.125C45.8203 1.33333 45.918 1.63932 45.918 2.04297V10.168C45.918 10.6888 45.8008 11.0664 45.5664 11.3008C45.332 11.5352 45.0651 11.6523 44.7656 11.6523C44.4531 11.6523 44.1992 11.5547 44.0039 11.3594C43.8216 11.151 43.6719 10.819 43.5547 10.3633C43.2812 9.33464 43.0143 8.52734 42.7539 7.94141C42.194 6.70443 41.556 5.70182 40.8398 4.93359C40.3581 4.41276 39.8763 4.01562 39.3945 3.74219C38.9128 3.45573 38.3789 3.27344 37.793 3.19531ZM37.8516 28.5273V26.1445C38.8672 26.0664 39.9349 25.6823 41.0547 24.9922C41.6536 24.6146 42.1875 24.1133 42.6562 23.4883C43.125 22.8503 43.4766 22.1536 43.7109 21.3984C43.8411 20.9818 43.9909 20.6888 44.1602 20.5195C44.3424 20.3372 44.5768 20.2461 44.8633 20.2461C45.1758 20.2461 45.4362 20.3633 45.6445 20.5977C45.8529 20.832 45.957 21.125 45.957 21.4766C45.957 22.0625 45.7292 22.7721 45.2734 23.6055C44.8307 24.4388 44.2578 25.207 43.5547 25.9102C42.6953 26.7695 41.8099 27.4076 40.8984 27.8242C40 28.2409 38.9844 28.4753 37.8516 28.5273ZM59.5703 28H50.8789H50.3711C49.9023 28 49.5378 27.9154 49.2773 27.7461C49.0299 27.5638 48.9062 27.3099 48.9062 26.9844C48.9062 26.4505 49.1667 26.099 49.6875 25.9297C50.1172 25.7865 50.3646 25.7018 50.4297 25.6758C50.5078 25.6367 50.5859 25.5586 50.6641 25.4414C50.8203 25.2331 50.8984 24.901 50.8984 24.4453V4.89453C50.8984 4.4388 50.8203 4.10677 50.6641 3.89844C50.5859 3.78125 50.5078 3.70964 50.4297 3.68359C50.3646 3.64453 50.1172 3.55339 49.6875 3.41016C49.1667 3.24089 48.9062 2.88932 48.9062 2.35547C48.9062 2.02995 49.0299 1.78255 49.2773 1.61328C49.5378 1.43099 49.9023 1.33984 50.3711 1.33984H50.8789H59.5898H60.2539C60.8268 1.33984 61.237 1.41797 61.4844 1.57422C61.8229 1.78255 61.9922 2.05599 61.9922 2.39453C61.9922 2.96745 61.6797 3.32552 61.0547 3.46875C60.5469 3.58594 60.2474 3.66406 60.1562 3.70312C60.0651 3.74219 59.9674 3.82031 59.8633 3.9375C59.668 4.17188 59.5703 4.53646 59.5703 5.03125V28ZM61.1523 28V25.8125C61.7904 25.6953 62.2917 25.5651 62.6562 25.4219C63.0339 25.2786 63.3919 25.0703 63.7305 24.7969C64.2773 24.3672 64.7786 23.7747 65.2344 23.0195C65.6901 22.2643 66.0612 21.4245 66.3477 20.5C66.556 19.7839 66.7448 19.3151 66.9141 19.0938C67.0964 18.8594 67.3568 18.7422 67.6953 18.7422C68.0599 18.7422 68.3268 18.8919 68.4961 19.1914C68.5742 19.3346 68.6133 19.6211 68.6133 20.0508V28H61.1523ZM71.8945 20.207V4.89453C71.8945 4.4388 71.8164 4.10677 71.6602 3.89844C71.582 3.78125 71.5039 3.70964 71.4258 3.68359C71.3607 3.64453 71.1133 3.55339 70.6836 3.41016C70.1628 3.24089 69.9023 2.89583 69.9023 2.375C69.9023 2.03646 70.026 1.78255 70.2734 1.61328C70.5339 1.43099 70.8984 1.33984 71.3672 1.33984H71.875H80.5859H81.0938L81.7969 1.41797C82.0182 1.48307 82.2005 1.60026 82.3438 1.76953C82.487 1.9388 82.5586 2.14062 82.5586 2.375C82.5586 2.89583 82.2982 3.24089 81.7773 3.41016C81.3477 3.55339 81.0938 3.64453 81.0156 3.68359C80.9505 3.70964 80.8789 3.78125 80.8008 3.89844C80.6445 4.10677 80.5664 4.4388 80.5664 4.89453V21.2812C80.5664 22.388 80.5924 23.1628 80.6445 23.6055C80.7096 24.0352 80.8333 24.4258 81.0156 24.7773C81.1849 25.1029 81.3737 25.3372 81.582 25.4805C81.7904 25.6237 82.1875 25.7865 82.7734 25.9688V28.5273H82.3438C80.651 28.5273 79.2448 28.3776 78.125 28.0781C76.8099 27.7266 75.6576 27.2057 74.668 26.5156C73.6784 25.8255 72.9753 25.0508 72.5586 24.1914C72.1159 23.2799 71.8945 21.9518 71.8945 20.207ZM84.5703 28.5273V25.9688C85.8724 25.7995 86.9596 25.2656 87.832 24.3672C88.8216 23.3385 89.3164 21.8607 89.3164 19.9336V7.19922C89.3164 5.41536 88.6328 4.17188 87.2656 3.46875C86.862 3.26042 86.5951 3.08464 86.4648 2.94141C86.3477 2.78516 86.2891 2.5638 86.2891 2.27734C86.2891 1.9388 86.4128 1.69792 86.6602 1.55469C86.9076 1.41146 87.3112 1.33984 87.8711 1.33984H92.6562C93.0599 1.33984 93.3268 1.35286 93.457 1.37891C93.6003 1.39193 93.737 1.4375 93.8672 1.51562C94.2057 1.71094 94.375 1.97786 94.375 2.31641C94.375 2.60286 94.2708 2.84375 94.0625 3.03906C93.9974 3.10417 93.7174 3.27995 93.2227 3.56641C92.6497 3.87891 92.2005 4.36068 91.875 5.01172C91.5495 5.64974 91.3867 6.37891 91.3867 7.19922V19.9531C91.3867 22.1406 90.9049 23.9375 89.9414 25.3438C89.2383 26.3854 88.2292 27.2188 86.9141 27.8438C86.263 28.1562 85.4818 28.3841 84.5703 28.5273ZM107.969 1.33984V28H99.2773H98.7695C98.3008 28 97.9362 27.9154 97.6758 27.7461C97.4284 27.5638 97.3047 27.3099 97.3047 26.9844C97.3047 26.4505 97.5651 26.099 98.0859 25.9297C98.5156 25.7865 98.763 25.7018 98.8281 25.6758C98.9062 25.6367 98.9844 25.5586 99.0625 25.4414C99.2188 25.2331 99.2969 24.901 99.2969 24.4453V4.89453C99.2969 4.4388 99.2188 4.10677 99.0625 3.89844C98.9844 3.78125 98.9062 3.70964 98.8281 3.68359C98.763 3.64453 98.5156 3.55339 98.0859 3.41016C97.5651 3.24089 97.3047 2.88932 97.3047 2.35547C97.3047 2.02995 97.4284 1.78255 97.6758 1.61328C97.9362 1.43099 98.3008 1.33984 98.7695 1.33984H99.2773H107.969ZM114.043 14.1914C115.215 14.4258 116.113 14.6536 116.738 14.875C117.376 15.0964 117.949 15.3763 118.457 15.7148C119.329 16.2747 119.993 17.0169 120.449 17.9414C120.918 18.8529 121.152 19.875 121.152 21.0078C121.152 23.2344 120.332 24.9727 118.691 26.2227C117.845 26.8737 116.908 27.3359 115.879 27.6094C114.863 27.8698 113.529 28 111.875 28H109.551V25.9492C110.072 25.9102 110.482 25.8385 110.781 25.7344C111.081 25.6172 111.348 25.4284 111.582 25.168C112.012 24.6862 112.227 23.9375 112.227 22.9219V18.4883C112.227 17.8372 112.168 17.3294 112.051 16.9648C111.947 16.6003 111.745 16.2682 111.445 15.9688C111.224 15.7344 110.983 15.5651 110.723 15.4609C110.462 15.3568 110.091 15.2721 109.609 15.207V13.1758C110.091 13.1367 110.462 13.0716 110.723 12.9805C110.996 12.8893 111.243 12.7396 111.465 12.5312C111.673 12.3359 111.849 12.082 111.992 11.7695C112.135 11.457 112.214 11.1706 112.227 10.9102V9.83594V6.45703C112.227 6.10547 112.168 5.74089 112.051 5.36328C111.934 4.97266 111.79 4.66667 111.621 4.44531C111.374 4.14583 111.094 3.92448 110.781 3.78125C110.482 3.63802 110.072 3.54036 109.551 3.48828V1.33984H111.797C114.766 1.33984 117.031 1.95182 118.594 3.17578C119.31 3.73568 119.857 4.41276 120.234 5.20703C120.612 6.0013 120.801 6.86068 120.801 7.78516C120.801 8.69661 120.605 9.55599 120.215 10.3633C119.837 11.1706 119.303 11.8411 118.613 12.375C118.105 12.7917 117.52 13.1302 116.855 13.3906C116.191 13.651 115.254 13.918 114.043 14.1914ZM15.2148 58.5469L12.8516 68H8.63281L2.34375 45.0508C2.20052 44.5299 2.0638 44.1784 1.93359 43.9961C1.81641 43.8138 1.60807 43.6641 1.30859 43.5469C0.78776 43.3385 0.527344 42.9935 0.527344 42.5117C0.527344 42.1341 0.690104 41.8477 1.01562 41.6523C1.34115 41.444 1.79688 41.3398 2.38281 41.3398H11.5234C12.0964 41.3398 12.487 41.418 12.6953 41.5742C12.9688 41.7695 13.1055 42.0365 13.1055 42.375C13.1055 42.7786 12.8776 43.1172 12.4219 43.3906C12.0443 43.612 11.7969 43.8008 11.6797 43.957C11.5755 44.1003 11.5234 44.3216 11.5234 44.6211C11.5234 44.7643 11.543 44.9076 11.582 45.0508L15.2148 58.5469ZM17.0703 41.3398H21.0938L25.7812 59.1133L23.5547 68H19.2969L14.7461 50.832L17.0703 41.3398ZM26.5234 55.9883L25.5078 52.0234L26.9336 46.2422C27.0508 45.7865 27.1094 45.4349 27.1094 45.1875C27.1094 44.7969 26.9987 44.4648 26.7773 44.1914C26.569 43.9049 26.2174 43.638 25.7227 43.3906C25.3971 43.2214 25.1693 43.0586 25.0391 42.9023C24.9219 42.7461 24.8633 42.5443 24.8633 42.2969C24.8633 41.9583 24.9674 41.7174 25.1758 41.5742C25.3971 41.418 25.7422 41.3398 26.2109 41.3398H30.8594C31.3932 41.3398 31.7643 41.418 31.9727 41.5742C32.194 41.7174 32.3047 41.9648 32.3047 42.3164C32.3047 42.5247 32.2461 42.7005 32.1289 42.8438C32.0247 42.974 31.8424 43.0977 31.582 43.2148C30.9961 43.4753 30.5664 43.7487 30.293 44.0352C29.694 44.6341 29.2448 45.5 28.9453 46.6328L26.5234 55.9883ZM45.1172 41.3398V64.2891C45.1172 64.7969 45.2148 65.1615 45.4102 65.3828C45.5143 65.513 45.612 65.5977 45.7031 65.6367C45.7943 65.6628 46.0938 65.7409 46.6016 65.8711C47.2266 66.0143 47.5391 66.3724 47.5391 66.9453C47.5391 67.2839 47.3698 67.5573 47.0312 67.7656C46.7839 67.9219 46.3737 68 45.8008 68H45.1367H36.4258H35.918C35.4492 68 35.0846 67.9154 34.8242 67.7461C34.5768 67.5638 34.4531 67.3099 34.4531 66.9844C34.4531 66.4505 34.7135 66.099 35.2344 65.9297C35.6641 65.7865 35.9115 65.7018 35.9766 65.6758C36.0547 65.6367 36.1328 65.5586 36.2109 65.4414C36.3672 65.2331 36.4453 64.901 36.4453 64.4453V44.8945C36.4453 44.4388 36.3672 44.1068 36.2109 43.8984C36.1328 43.7812 36.0547 43.7096 35.9766 43.6836C35.9115 43.6445 35.6641 43.5534 35.2344 43.4102C34.7135 43.2409 34.4531 42.8893 34.4531 42.3555C34.4531 42.0299 34.5768 41.7826 34.8242 41.6133C35.0846 41.431 35.4492 41.3398 35.918 41.3398H36.4258H45.1172ZM51.1133 54.9336C52.3112 55.1159 53.2292 55.3177 53.8672 55.5391C54.5182 55.7604 55.1042 56.0599 55.625 56.4375C56.1719 56.8411 56.5885 57.3229 56.875 57.8828C57.1745 58.4427 57.3242 59.0352 57.3242 59.6602V63.7031C57.3242 64.1198 57.4609 64.3281 57.7344 64.3281C57.8385 64.3281 57.9232 64.3021 57.9883 64.25C58.0664 64.1849 58.1706 64.0677 58.3008 63.8984C58.6263 63.4557 58.9583 63.2344 59.2969 63.2344C59.5182 63.2344 59.7396 63.3516 59.9609 63.5859C60.1823 63.8203 60.293 64.0547 60.293 64.2891C60.293 64.6927 60.0977 65.1875 59.707 65.7734C59.3294 66.3464 58.8542 66.8607 58.2812 67.3164C57.7474 67.7461 57.168 68.0521 56.543 68.2344C55.918 68.4297 55.1823 68.5273 54.3359 68.5273C52.6172 68.5273 51.276 68.0391 50.3125 67.0625C49.349 66.0729 48.8672 64.6992 48.8672 62.9414V59.6602C48.8672 58.931 48.8607 58.5078 48.8477 58.3906C48.7826 57.8698 48.6003 57.4206 48.3008 57.043C47.9232 56.5872 47.3828 56.3203 46.6797 56.2422V54.1523C47.3828 54.0482 47.8841 53.8659 48.1836 53.6055C48.444 53.3711 48.6198 53.1042 48.7109 52.8047C48.8151 52.5052 48.8672 52.0625 48.8672 51.4766V46.3008C48.8672 45.4805 48.7044 44.8685 48.3789 44.4648C48.0664 44.0612 47.4935 43.7422 46.6602 43.5078V41.3398H47.168C48.6133 41.3398 49.8438 41.3919 50.8594 41.4961C52.3698 41.6393 53.7174 42.1341 54.9023 42.9805C56.6081 44.1914 57.4609 45.9167 57.4609 48.1562C57.4609 49.9922 56.888 51.4961 55.7422 52.668C55.2604 53.1628 54.694 53.5664 54.043 53.8789C53.4049 54.1914 52.4284 54.543 51.1133 54.9336ZM73.0859 41.3398V68H64.3945H63.8867C63.418 68 63.0534 67.9154 62.793 67.7461C62.5456 67.5638 62.4219 67.3099 62.4219 66.9844C62.4219 66.4505 62.6823 66.099 63.2031 65.9297C63.6328 65.7865 63.8802 65.7018 63.9453 65.6758C64.0234 65.6367 64.1016 65.5586 64.1797 65.4414C64.3359 65.2331 64.4141 64.901 64.4141 64.4453V44.8945C64.4141 44.4388 64.3359 44.1068 64.1797 43.8984C64.1016 43.7812 64.0234 43.7096 63.9453 43.6836C63.8802 43.6445 63.6328 43.5534 63.2031 43.4102C62.6823 43.2409 62.4219 42.8893 62.4219 42.3555C62.4219 42.0299 62.5456 41.7826 62.793 41.6133C63.0534 41.431 63.418 41.3398 63.8867 41.3398H64.3945H73.0859ZM74.8242 41.3398H82.6953V48.2539C82.6953 48.6576 82.6172 48.9505 82.4609 49.1328C82.3047 49.3151 82.0573 49.4062 81.7188 49.4062C81.4323 49.4062 81.224 49.3477 81.0938 49.2305C80.9635 49.1133 80.8398 48.8724 80.7227 48.5078C80.2279 46.9974 79.4987 45.8451 78.5352 45.0508C77.5846 44.2565 76.3477 43.7812 74.8242 43.625V41.3398ZM74.7266 55.5586V53.293C75.4818 52.9284 76.0417 52.5312 76.4062 52.1016C76.7708 51.6719 77.0378 51.099 77.207 50.3828C77.3112 49.888 77.4479 49.5495 77.6172 49.3672C77.7865 49.1719 78.0273 49.0742 78.3398 49.0742C78.7565 49.0742 79.043 49.237 79.1992 49.5625C79.2904 49.7318 79.3359 50.1159 79.3359 50.7148V58.1562C79.3359 58.7682 79.2643 59.1914 79.1211 59.4258C78.9909 59.6602 78.7435 59.7773 78.3789 59.7773C78.0794 59.7773 77.8451 59.6862 77.6758 59.5039C77.5065 59.3216 77.3698 59.0156 77.2656 58.5859C77.0443 57.6875 76.7253 56.9974 76.3086 56.5156C75.9049 56.0339 75.3776 55.7148 74.7266 55.5586ZM74.8438 68V65.8906C75.6901 65.7604 76.3867 65.5781 76.9336 65.3438C77.4935 65.1094 78.0534 64.7513 78.6133 64.2695C79.1732 63.7878 79.6159 63.293 79.9414 62.7852C80.2799 62.2643 80.599 61.5807 80.8984 60.7344C81.0417 60.3177 81.1914 60.0378 81.3477 59.8945C81.5039 59.7383 81.7188 59.6602 81.9922 59.6602C82.3568 59.6602 82.6107 59.7708 82.7539 59.9922C82.8971 60.2005 82.9688 60.5716 82.9688 61.1055V68H74.8438ZM94.9023 40.8125V43.0586C94.0951 43.2799 93.4766 43.625 93.0469 44.0938C92.6302 44.5495 92.4219 45.1159 92.4219 45.793C92.4219 46.444 92.5977 47.0169 92.9492 47.5117C93.3008 47.9935 93.8737 48.4557 94.668 48.8984C95.2148 49.1979 96.4518 49.7708 98.3789 50.6172C99.5508 51.125 100.456 51.5872 101.094 52.0039C101.745 52.4076 102.357 52.9154 102.93 53.5273C104.466 55.1419 105.234 57.0625 105.234 59.2891C105.234 60.9688 104.818 62.5052 103.984 63.8984C103.151 65.2917 102.005 66.3854 100.547 67.1797C99.7656 67.5964 98.9062 67.9219 97.9688 68.1562C97.0443 68.4036 96.1784 68.5273 95.3711 68.5273V66.3008C96.5039 66.0273 97.3177 65.6497 97.8125 65.168C98.3203 64.6732 98.5742 64.0091 98.5742 63.1758C98.5742 62.3034 98.1836 61.5352 97.4023 60.8711C96.8815 60.4414 95.8919 59.9076 94.4336 59.2695C92.832 58.5664 91.7318 58.0651 91.1328 57.7656C90.5469 57.4661 89.9805 57.1146 89.4336 56.7109C86.9857 54.9661 85.7617 52.6419 85.7617 49.7383C85.7617 48.2539 86.0677 46.8867 86.6797 45.6367C87.2917 44.3737 88.1445 43.3581 89.2383 42.5898C90.7617 41.5221 92.6497 40.9297 94.9023 40.8125ZM96.4453 43.0586V40.9102C97.2266 40.9622 97.9036 41.0664 98.4766 41.2227C99.0495 41.3659 99.8633 41.6589 100.918 42.1016C101.178 42.2057 101.393 42.2578 101.562 42.2578C101.81 42.2578 101.992 42.1732 102.109 42.0039L102.539 41.4375C102.747 41.151 103.001 41.0078 103.301 41.0078C103.652 41.0078 103.906 41.138 104.062 41.3984C104.232 41.6458 104.316 42.043 104.316 42.5898V49.0352C104.316 49.4128 104.206 49.7253 103.984 49.9727C103.776 50.207 103.503 50.3242 103.164 50.3242C102.904 50.3242 102.663 50.2396 102.441 50.0703C102.324 49.9661 102.227 49.8424 102.148 49.6992C102.083 49.543 102.018 49.2891 101.953 48.9375C101.81 48.2995 101.562 47.6419 101.211 46.9648C100.859 46.2878 100.449 45.6823 99.9805 45.1484C99.043 44.0938 97.8646 43.3971 96.4453 43.0586ZM93.8867 66.3008V68.5273C92.819 68.5273 91.6406 68.2214 90.3516 67.6094C89.8698 67.388 89.5378 67.2448 89.3555 67.1797C89.1732 67.1146 88.9974 67.082 88.8281 67.082C88.5677 67.082 88.3724 67.1276 88.2422 67.2188C88.112 67.2969 87.9036 67.5052 87.6172 67.8438C87.3828 68.1302 87.1289 68.2734 86.8555 68.2734C86.1263 68.2734 85.7617 67.7135 85.7617 66.5938V59.4844C85.7617 59.1198 85.8659 58.8138 86.0742 58.5664C86.2826 58.306 86.543 58.1693 86.8555 58.1562C87.1419 58.1432 87.3633 58.2279 87.5195 58.4102C87.6888 58.5794 87.832 58.8854 87.9492 59.3281C88.2487 60.4479 88.6784 61.4961 89.2383 62.4727C89.8112 63.4492 90.4753 64.276 91.2305 64.9531C91.9987 65.6562 92.8841 66.1055 93.8867 66.3008ZM122.91 41.3398V64.2891C122.91 64.7969 123.008 65.1615 123.203 65.3828C123.307 65.513 123.405 65.5977 123.496 65.6367C123.587 65.6628 123.887 65.7409 124.395 65.8711C125.02 66.0143 125.332 66.3724 125.332 66.9453C125.332 67.2839 125.163 67.5573 124.824 67.7656C124.577 67.9219 124.16 68 123.574 68H122.93H114.219H113.574C113.001 68 112.565 67.9154 112.266 67.7461C111.979 67.5638 111.836 67.2969 111.836 66.9453C111.836 66.3724 112.148 66.0143 112.773 65.8711C113.281 65.7409 113.581 65.6628 113.672 65.6367C113.763 65.5977 113.854 65.513 113.945 65.3828C114.141 65.1615 114.238 64.7969 114.238 64.2891V41.3398H122.91ZM129.668 41.3398V49.3281C129.668 49.7057 129.557 50.0117 129.336 50.2461C129.128 50.4805 128.854 50.5977 128.516 50.5977C128.19 50.5977 127.917 50.4935 127.695 50.2852C127.487 50.0638 127.35 49.7643 127.285 49.3867L127.09 48.1953C126.895 46.9844 126.517 45.9362 125.957 45.0508C125.605 44.5039 125.13 44.0547 124.531 43.7031V41.3398H129.668ZM107.52 41.3398H112.656V43.7031C112.044 44.0547 111.569 44.5039 111.23 45.0508C110.671 45.9362 110.293 46.9844 110.098 48.1953L109.902 49.3867C109.837 49.7643 109.694 50.0638 109.473 50.2852C109.264 50.4935 108.997 50.5977 108.672 50.5977C108.333 50.5977 108.053 50.4805 107.832 50.2461C107.624 50.0117 107.52 49.7057 107.52 49.3281V41.3398ZM142.734 68H134.043H133.535C133.066 68 132.702 67.9154 132.441 67.7461C132.194 67.5638 132.07 67.3099 132.07 66.9844C132.07 66.4505 132.331 66.099 132.852 65.9297C133.281 65.7865 133.529 65.7018 133.594 65.6758C133.672 65.6367 133.75 65.5586 133.828 65.4414C133.984 65.2331 134.062 64.901 134.062 64.4453V44.8945C134.062 44.4388 133.984 44.1068 133.828 43.8984C133.75 43.7812 133.672 43.7096 133.594 43.6836C133.529 43.6445 133.281 43.5534 132.852 43.4102C132.331 43.2409 132.07 42.8893 132.07 42.3555C132.07 42.0299 132.194 41.7826 132.441 41.6133C132.702 41.431 133.066 41.3398 133.535 41.3398H134.043H142.754H143.418C143.991 41.3398 144.401 41.418 144.648 41.5742C144.987 41.7826 145.156 42.056 145.156 42.3945C145.156 42.9674 144.844 43.3255 144.219 43.4688C143.711 43.5859 143.411 43.6641 143.32 43.7031C143.229 43.7422 143.132 43.8203 143.027 43.9375C142.832 44.1719 142.734 44.5365 142.734 45.0312V68ZM144.316 68V65.8125C144.954 65.6953 145.456 65.5651 145.82 65.4219C146.198 65.2786 146.556 65.0703 146.895 64.7969C147.441 64.3672 147.943 63.7747 148.398 63.0195C148.854 62.2643 149.225 61.4245 149.512 60.5C149.72 59.7839 149.909 59.3151 150.078 59.0938C150.26 58.8594 150.521 58.7422 150.859 58.7422C151.224 58.7422 151.491 58.8919 151.66 59.1914C151.738 59.3346 151.777 59.6211 151.777 60.0508V68H144.316ZM164.082 68H155.371H154.863C154.395 68 154.03 67.9154 153.77 67.7461C153.522 67.5638 153.398 67.3099 153.398 66.9844C153.398 66.4505 153.659 66.099 154.18 65.9297C154.609 65.7865 154.857 65.7018 154.922 65.6758C155 65.6367 155.078 65.5586 155.156 65.4414C155.312 65.2331 155.391 64.901 155.391 64.4453V44.8945C155.391 44.4388 155.312 44.1068 155.156 43.8984C155.078 43.7812 155 43.7096 154.922 43.6836C154.857 43.6445 154.609 43.5534 154.18 43.4102C153.659 43.2409 153.398 42.8893 153.398 42.3555C153.398 42.0299 153.522 41.7826 153.77 41.6133C154.03 41.431 154.395 41.3398 154.863 41.3398H155.371H164.082H164.59C165.059 41.3398 165.417 41.431 165.664 41.6133C165.924 41.7826 166.055 42.0299 166.055 42.3555C166.055 42.8893 165.794 43.2409 165.273 43.4102C164.844 43.5534 164.59 43.6445 164.512 43.6836C164.447 43.7096 164.375 43.7812 164.297 43.8984C164.141 44.1068 164.062 44.4388 164.062 44.8945V64.4453C164.062 64.901 164.141 65.2331 164.297 65.4414C164.375 65.5586 164.447 65.6367 164.512 65.6758C164.59 65.7018 164.844 65.7865 165.273 65.9297C165.794 66.099 166.055 66.4505 166.055 66.9844C166.055 67.3099 165.924 67.5638 165.664 67.7461C165.417 67.9154 165.059 68 164.59 68H164.082ZM180.312 41.3398L190.703 59.3867V68H185.371L172.109 45.1484C171.823 44.6536 171.589 44.3086 171.406 44.1133C171.224 43.918 170.99 43.7747 170.703 43.6836L169.961 43.4102C169.766 43.3451 169.609 43.2279 169.492 43.0586C169.375 42.8893 169.316 42.7005 169.316 42.4922C169.316 42.2708 169.375 42.069 169.492 41.8867C169.609 41.6914 169.766 41.5547 169.961 41.4766C170.182 41.3854 170.781 41.3398 171.758 41.3398H180.312ZM172.129 48.1953L174.199 51.6328V62.1016C174.199 63.013 174.349 63.7617 174.648 64.3477C174.961 64.9336 175.449 65.4154 176.113 65.793L176.699 66.125C177.038 66.3203 177.207 66.6133 177.207 67.0039C177.207 67.3034 177.083 67.5508 176.836 67.7461C176.628 67.9154 176.198 68 175.547 68H171.035C169.85 68 169.258 67.6615 169.258 66.9844C169.258 66.75 169.316 66.5677 169.434 66.4375C169.564 66.2943 169.837 66.1055 170.254 65.8711C171.504 65.181 172.129 63.9245 172.129 62.1016V48.1953ZM190.703 56.2617L188.633 52.7656V47.3555C188.633 46.2617 188.47 45.4284 188.145 44.8555C187.832 44.2695 187.272 43.7682 186.465 43.3516C186.191 43.2214 186.003 43.0846 185.898 42.9414C185.794 42.7852 185.742 42.5898 185.742 42.3555C185.742 42.0039 185.853 41.75 186.074 41.5938C186.309 41.4245 186.68 41.3398 187.188 41.3398H192.07C192.734 41.3398 193.171 41.444 193.379 41.6523C193.6 41.8607 193.711 42.1081 193.711 42.3945C193.711 42.668 193.646 42.8763 193.516 43.0195C193.398 43.1497 193.105 43.332 192.637 43.5664C191.947 43.918 191.426 44.4583 191.074 45.1875C190.827 45.7214 190.703 46.444 190.703 47.3555V56.2617ZM206.309 40.8125V42.9805C205.163 43.2539 204.59 44.1654 204.59 45.7148V63.8984C204.59 64.6016 204.688 65.1419 204.883 65.5195C205.052 65.832 205.41 66.099 205.957 66.3203V68.5273C205.54 68.5273 205.156 68.4948 204.805 68.4297C204.466 68.3646 204.01 68.2344 203.438 68.0391C202.07 67.5703 200.833 66.8542 199.727 65.8906C198.62 64.9271 197.708 63.7747 196.992 62.4336C195.885 60.3372 195.332 57.8568 195.332 54.9922C195.332 52.2188 195.827 49.7578 196.816 47.6094C197.806 45.4609 199.225 43.7747 201.074 42.5508C202.142 41.8346 203.288 41.3203 204.512 41.0078C205.02 40.8776 205.618 40.8125 206.309 40.8125ZM207.91 42.9414V40.832C210.033 41.0273 211.777 41.418 213.145 42.0039C213.548 42.1862 213.861 42.2773 214.082 42.2773C214.29 42.2773 214.447 42.2318 214.551 42.1406C214.668 42.0365 214.896 41.7565 215.234 41.3008C215.469 40.9753 215.762 40.8125 216.113 40.8125C216.478 40.8125 216.732 40.9167 216.875 41.125C217.031 41.3203 217.109 41.6523 217.109 42.1211V49.7188C217.109 50.7083 216.745 51.2031 216.016 51.2031C215.651 51.2031 215.378 51.1055 215.195 50.9102C215.026 50.7148 214.863 50.3307 214.707 49.7578C214.512 49.0286 214.16 48.1823 213.652 47.2188C213.145 46.2422 212.656 45.474 212.188 44.9141C211.654 44.263 211.055 43.7878 210.391 43.4883C209.727 43.1758 208.9 42.9935 207.91 42.9414ZM216.738 64.7383C216.217 65.2591 215.521 65.793 214.648 66.3398C213.789 66.8737 212.975 67.2969 212.207 67.6094C211.504 67.8828 210.723 68.1042 209.863 68.2734C209.017 68.4427 208.268 68.5273 207.617 68.5273V66.3203C207.995 66.2292 208.275 66.1185 208.457 65.9883C208.652 65.8581 208.815 65.6758 208.945 65.4414C209.167 65.0378 209.277 64.5234 209.277 63.8984V58.1953C209.277 57.6875 209.18 57.3229 208.984 57.1016C208.893 56.9714 208.802 56.8932 208.711 56.8672C208.62 56.8281 208.32 56.75 207.812 56.6328C207.188 56.4766 206.875 56.112 206.875 55.5391C206.875 55.2005 207.018 54.9401 207.305 54.7578C207.604 54.5755 208.04 54.4844 208.613 54.4844H209.258H216.406C216.992 54.4844 217.402 54.569 217.637 54.7383C217.884 54.8945 218.008 55.1745 218.008 55.5781C218.008 55.8255 217.956 56.0339 217.852 56.2031C217.76 56.3594 217.585 56.5286 217.324 56.7109C217.064 56.8932 216.901 57.0625 216.836 57.2188C216.771 57.375 216.738 57.6615 216.738 58.0781V64.7383Z" fill="#1E1E1E"/>
</svg>
