<svg width="28" height="28" viewBox="0 0 28 28" fill="none" xmlns="http://www.w3.org/2000/svg">
<path d="M14.0014 9.8C12.8875 9.8 11.8192 10.2425 11.0316 11.0302C10.2439 11.8178 9.8014 12.8861 9.8014 14C9.8014 15.1139 10.2439 16.1822 11.0316 16.9698C11.8192 17.7575 12.8875 18.2 14.0014 18.2C15.1153 18.2 16.1836 17.7575 16.9712 16.9698C17.7589 16.1822 18.2014 15.1139 18.2014 14C18.2014 12.8861 17.7589 11.8178 16.9712 11.0302C16.1836 10.2425 15.1153 9.8 14.0014 9.8ZM14.0014 7C15.8579 7 17.6384 7.7375 18.9511 9.05025C20.2639 10.363 21.0014 12.1435 21.0014 14C21.0014 15.8565 20.2639 17.637 18.9511 18.9497C17.6384 20.2625 15.8579 21 14.0014 21C12.1449 21 10.3644 20.2625 9.05165 18.9497C7.7389 17.637 7.0014 15.8565 7.0014 14C7.0014 12.1435 7.7389 10.363 9.05165 9.05025C10.3644 7.7375 12.1449 7 14.0014 7ZM23.1014 6.65C23.1014 7.11413 22.917 7.55925 22.5888 7.88744C22.2606 8.21563 21.8155 8.4 21.3514 8.4C20.8873 8.4 20.4422 8.21563 20.114 7.88744C19.7858 7.55925 19.6014 7.11413 19.6014 6.65C19.6014 6.18587 19.7858 5.74075 20.114 5.41256C20.4422 5.08437 20.8873 4.9 21.3514 4.9C21.8155 4.9 22.2606 5.08437 22.5888 5.41256C22.917 5.74075 23.1014 6.18587 23.1014 6.65ZM14.0014 2.8C10.5378 2.8 9.9722 2.8098 8.3608 2.8812C7.2632 2.933 6.5268 3.08 5.8436 3.346C5.27186 3.55591 4.75498 3.89237 4.3316 4.3302C3.89341 4.75356 3.55649 5.27042 3.346 5.8422C3.08 6.5282 2.933 7.2632 2.8826 8.3594C2.8098 9.905 2.8 10.4454 2.8 14C2.8 17.465 2.8098 18.0292 2.8812 19.6406C2.933 20.7368 3.08 21.4746 3.3446 22.1564C3.5826 22.7654 3.8626 23.2036 4.3274 23.6684C4.7992 24.1388 5.2374 24.4202 5.8394 24.6526C6.531 24.92 7.2674 25.0684 8.3594 25.1188C9.905 25.1916 10.4454 25.2 14 25.2C17.465 25.2 18.0292 25.1902 19.6406 25.1188C20.7354 25.067 21.4718 24.92 22.1564 24.6554C22.7276 24.4445 23.2443 24.1081 23.6684 23.6712C24.1402 23.2008 24.4216 22.7626 24.654 22.1592C24.92 21.4704 25.0684 20.734 25.1188 19.6392C25.1916 18.095 25.2 17.5532 25.2 14C25.2 10.5364 25.1902 9.9708 25.1188 8.3594C25.067 7.2646 24.9186 6.5254 24.654 5.8422C24.443 5.27102 24.1067 4.75437 23.6698 4.3302C23.2466 3.89178 22.7297 3.55483 22.1578 3.3446C21.4718 3.0786 20.7354 2.9316 19.6406 2.8812C18.0964 2.8084 17.556 2.8 14 2.8M14 0C17.8038 0 18.2784 0.0139999 19.7722 0.0839999C21.2618 0.154 22.2782 0.3878 23.17 0.735C24.094 1.0906 24.8724 1.5722 25.6508 2.3492C26.3627 3.04905 26.9135 3.89562 27.265 4.83C27.6108 5.7218 27.846 6.7382 27.916 8.2292C27.9818 9.7216 28 10.1962 28 14C28 17.8038 27.986 18.2784 27.916 19.7708C27.846 21.2618 27.6108 22.2768 27.265 23.17C26.9145 24.1049 26.3635 24.9516 25.6508 25.6508C24.9507 26.3624 24.1042 26.9133 23.17 27.265C22.2782 27.6108 21.2618 27.846 19.7722 27.916C18.2784 27.9818 17.8038 28 14 28C10.1962 28 9.7216 27.986 8.2278 27.916C6.7382 27.846 5.7232 27.6108 4.83 27.265C3.89526 26.9143 3.04854 26.3633 2.3492 25.6508C1.6372 24.951 1.08634 24.1044 0.735 23.17C0.3878 22.2782 0.154 21.2618 0.0839999 19.7708C0.0167999 18.2784 0 17.8038 0 14C0 10.1962 0.0139999 9.7216 0.0839999 8.2292C0.154 6.7382 0.3878 5.7232 0.735 4.83C1.08533 3.89505 1.63633 3.04825 2.3492 2.3492C3.04874 1.63692 3.8954 1.08602 4.83 0.735C5.7218 0.3878 6.7368 0.154 8.2278 0.0839999C9.723 0.0181999 10.1976 0 14.0014 0" fill="white"/>
</svg>
