<svg width="221" height="53" viewBox="0 0 221 53" fill="none" xmlns="http://www.w3.org/2000/svg">
<path d="M117.052 25H121.345L111.965 36.8605L123 53H114.358L107.591 43.2115L99.8477 53H95.5516L105.585 40.3138L95 25H103.858L109.975 33.9471L117.052 25ZM115.545 50.1569H117.924L102.567 27.6937H100.014L115.545 50.1569Z" fill="white"/>
<path d="M163.292 53V42.164H166.921L167.464 37.9516H163.292V35.2651C163.292 34.0456 163.631 33.2133 165.38 33.2133H167.61V29.4442C166.53 29.3296 165.445 29.2741 164.359 29.2778C161.144 29.2778 158.943 31.2409 158.943 34.8467V37.9516H155.306V42.164H158.943V53H145.556C145.143 53 144.747 52.8361 144.456 52.5444C144.164 52.2527 144 51.857 144 51.4444V26.5556C144 26.143 144.164 25.7473 144.456 25.4556C144.747 25.1639 145.143 25 145.556 25H170.444C170.857 25 171.253 25.1639 171.544 25.4556C171.836 25.7473 172 26.143 172 26.5556V51.4444C172 51.857 171.836 52.2527 171.544 52.5444C171.253 52.8361 170.857 53 170.444 53H163.292Z" fill="white"/>
<path d="M207.001 34.8C205.887 34.8 204.819 35.2425 204.032 36.0302C203.244 36.8178 202.801 37.8861 202.801 39C202.801 40.1139 203.244 41.1822 204.032 41.9698C204.819 42.7575 205.887 43.2 207.001 43.2C208.115 43.2 209.184 42.7575 209.971 41.9698C210.759 41.1822 211.201 40.1139 211.201 39C211.201 37.8861 210.759 36.8178 209.971 36.0302C209.184 35.2425 208.115 34.8 207.001 34.8ZM207.001 32C208.858 32 210.638 32.7375 211.951 34.0503C213.264 35.363 214.001 37.1435 214.001 39C214.001 40.8565 213.264 42.637 211.951 43.9497C210.638 45.2625 208.858 46 207.001 46C205.145 46 203.364 45.2625 202.052 43.9497C200.739 42.637 200.001 40.8565 200.001 39C200.001 37.1435 200.739 35.363 202.052 34.0503C203.364 32.7375 205.145 32 207.001 32ZM216.101 31.65C216.101 32.1141 215.917 32.5592 215.589 32.8874C215.261 33.2156 214.816 33.4 214.351 33.4C213.887 33.4 213.442 33.2156 213.114 32.8874C212.786 32.5592 212.601 32.1141 212.601 31.65C212.601 31.1859 212.786 30.7408 213.114 30.4126C213.442 30.0844 213.887 29.9 214.351 29.9C214.816 29.9 215.261 30.0844 215.589 30.4126C215.917 30.7408 216.101 31.1859 216.101 31.65ZM207.001 27.8C203.538 27.8 202.972 27.8098 201.361 27.8812C200.263 27.933 199.527 28.08 198.844 28.346C198.272 28.5559 197.755 28.8924 197.332 29.3302C196.893 29.7536 196.556 30.2704 196.346 30.8422C196.08 31.5282 195.933 32.2632 195.883 33.3594C195.81 34.905 195.8 35.4454 195.8 39C195.8 42.465 195.81 43.0292 195.881 44.6406C195.933 45.7368 196.08 46.4746 196.345 47.1564C196.583 47.7654 196.863 48.2036 197.327 48.6684C197.799 49.1388 198.237 49.4202 198.839 49.6526C199.531 49.92 200.267 50.0684 201.359 50.1188C202.905 50.1916 203.445 50.2 207 50.2C210.465 50.2 211.029 50.1902 212.641 50.1188C213.735 50.067 214.472 49.92 215.156 49.6554C215.728 49.4445 216.244 49.1081 216.668 48.6712C217.14 48.2008 217.422 47.7626 217.654 47.1592C217.92 46.4704 218.068 45.734 218.119 44.6392C218.192 43.095 218.2 42.5532 218.2 39C218.2 35.5364 218.19 34.9708 218.119 33.3594C218.067 32.2646 217.919 31.5254 217.654 30.8422C217.443 30.271 217.107 29.7544 216.67 29.3302C216.247 28.8918 215.73 28.5548 215.158 28.3446C214.472 28.0786 213.735 27.9316 212.641 27.8812C211.096 27.8084 210.556 27.8 207 27.8M207 25C210.804 25 211.278 25.014 212.772 25.084C214.262 25.154 215.278 25.3878 216.17 25.735C217.094 26.0906 217.872 26.5722 218.651 27.3492C219.363 28.0491 219.914 28.8956 220.265 29.83C220.611 30.7218 220.846 31.7382 220.916 33.2292C220.982 34.7216 221 35.1962 221 39C221 42.8038 220.986 43.2784 220.916 44.7708C220.846 46.2618 220.611 47.2768 220.265 48.17C219.915 49.1049 219.364 49.9516 218.651 50.6508C217.951 51.3624 217.104 51.9133 216.17 52.265C215.278 52.6108 214.262 52.846 212.772 52.916C211.278 52.9818 210.804 53 207 53C203.196 53 202.722 52.986 201.228 52.916C199.738 52.846 198.723 52.6108 197.83 52.265C196.895 51.9143 196.049 51.3633 195.349 50.6508C194.637 49.951 194.086 49.1044 193.735 48.17C193.388 47.2782 193.154 46.2618 193.084 44.7708C193.017 43.2784 193 42.8038 193 39C193 35.1962 193.014 34.7216 193.084 33.2292C193.154 31.7382 193.388 30.7232 193.735 29.83C194.085 28.8951 194.636 28.0482 195.349 27.3492C196.049 26.6369 196.895 26.086 197.83 25.735C198.722 25.3878 199.737 25.154 201.228 25.084C202.723 25.0182 203.198 25 207.001 25" fill="white"/>
<path d="M8.71591 4.09091C8.63068 3.37121 8.28504 2.8125 7.67898 2.41477C7.07292 2.01705 6.32955 1.81818 5.44886 1.81818C4.80492 1.81818 4.24148 1.92235 3.75852 2.13068C3.2803 2.33901 2.90625 2.62547 2.63636 2.99006C2.37121 3.35464 2.23864 3.76894 2.23864 4.23295C2.23864 4.62121 2.33097 4.95502 2.51562 5.23438C2.70502 5.509 2.9465 5.73864 3.24006 5.9233C3.53362 6.10322 3.84138 6.25237 4.16335 6.37074C4.48532 6.48437 4.78125 6.5767 5.05114 6.64773L6.52841 7.04545C6.9072 7.14489 7.3286 7.2822 7.79261 7.45739C8.26136 7.63258 8.70881 7.87169 9.13494 8.17472C9.56581 8.47301 9.92093 8.85653 10.2003 9.32528C10.4796 9.79403 10.6193 10.3693 10.6193 11.0511C10.6193 11.8371 10.4134 12.5473 10.0014 13.1818C9.59422 13.8163 8.99763 14.3205 8.21165 14.6946C7.4304 15.0687 6.48106 15.2557 5.36364 15.2557C4.32197 15.2557 3.41998 15.0876 2.65767 14.7514C1.90009 14.4152 1.3035 13.9465 0.867898 13.3452C0.437027 12.7438 0.193182 12.0455 0.136364 11.25H1.95455C2.00189 11.7992 2.18655 12.2538 2.50852 12.6136C2.83523 12.9687 3.24716 13.2339 3.74432 13.4091C4.24621 13.5795 4.78598 13.6648 5.36364 13.6648C6.03598 13.6648 6.63968 13.5559 7.17472 13.3381C7.70975 13.1155 8.13352 12.8078 8.44602 12.4148C8.75852 12.017 8.91477 11.553 8.91477 11.0227C8.91477 10.5398 8.77983 10.1468 8.50994 9.84375C8.24006 9.54072 7.88494 9.29451 7.4446 9.10511C7.00426 8.91572 6.52841 8.75 6.01705 8.60795L4.22727 8.09659C3.09091 7.76989 2.19129 7.3035 1.52841 6.69744C0.86553 6.09138 0.534091 5.2983 0.534091 4.31818C0.534091 3.50379 0.754261 2.79356 1.1946 2.1875C1.63968 1.5767 2.23627 1.10322 2.98438 0.767045C3.73722 0.426136 4.57765 0.255681 5.50568 0.255681C6.44318 0.255681 7.27652 0.423768 8.00568 0.759943C8.73485 1.09138 9.3125 1.54593 9.73864 2.12358C10.1695 2.70123 10.3968 3.35701 10.4205 4.09091H8.71591ZM18.0323 4.09091V5.51136H12.3789V4.09091H18.0323ZM14.0266 1.47727H15.7028V11.875C15.7028 12.3485 15.7714 12.7036 15.9087 12.9403C16.0508 13.1723 16.2307 13.3286 16.4485 13.4091C16.671 13.4848 16.9054 13.5227 17.1516 13.5227C17.3363 13.5227 17.4878 13.5133 17.6062 13.4943C17.7246 13.4706 17.8192 13.4517 17.8903 13.4375L18.2312 14.9432C18.1175 14.9858 17.9589 15.0284 17.7553 15.071C17.5517 15.1184 17.2937 15.142 16.9812 15.142C16.5077 15.142 16.0437 15.0402 15.5891 14.8366C15.1393 14.633 14.7653 14.3229 14.467 13.9062C14.1734 13.4896 14.0266 12.964 14.0266 12.3295V1.47727ZM23.7638 15.2557C23.0726 15.2557 22.4452 15.1255 21.8817 14.8651C21.3183 14.5999 20.8709 14.2188 20.5394 13.7216C20.208 13.2197 20.0423 12.6136 20.0423 11.9034C20.0423 11.2784 20.1654 10.7718 20.4116 10.3835C20.6578 9.99053 20.9869 9.68276 21.3988 9.46023C21.8107 9.23769 22.2653 9.07197 22.7624 8.96307C23.2643 8.84943 23.7686 8.75947 24.2752 8.69318C24.9381 8.60795 25.4755 8.54403 25.8874 8.50142C26.3041 8.45407 26.6071 8.37595 26.7965 8.26705C26.9906 8.15814 27.0877 7.96875 27.0877 7.69886V7.64205C27.0877 6.94129 26.896 6.39678 26.5124 6.00852C26.1336 5.62027 25.5584 5.42614 24.7866 5.42614C23.9864 5.42614 23.359 5.60133 22.9045 5.9517C22.4499 6.30208 22.1303 6.67614 21.9457 7.07386L20.3548 6.50568C20.6388 5.8428 21.0176 5.3267 21.4911 4.95739C21.9693 4.58333 22.4902 4.32292 23.0536 4.17614C23.6218 4.02462 24.1805 3.94886 24.7298 3.94886C25.0801 3.94886 25.4826 3.99148 25.9371 4.0767C26.3964 4.1572 26.8391 4.32528 27.2653 4.58097C27.6961 4.83665 28.0536 5.22254 28.3377 5.73864C28.6218 6.25473 28.7638 6.94602 28.7638 7.8125V15H27.0877V13.5227H27.0025C26.8888 13.7595 26.6995 14.0128 26.4343 14.2827C26.1692 14.5526 25.8164 14.7822 25.3761 14.9716C24.9357 15.161 24.3983 15.2557 23.7638 15.2557ZM24.0195 13.75C24.6824 13.75 25.2411 13.6198 25.6957 13.3594C26.1549 13.099 26.5006 12.7628 26.7326 12.3509C26.9693 11.9389 27.0877 11.5057 27.0877 11.0511V9.51705C27.0167 9.60227 26.8604 9.6804 26.619 9.75142C26.3822 9.81771 26.1076 9.87689 25.7951 9.92898C25.4873 9.97633 25.1867 10.0189 24.8931 10.0568C24.6043 10.09 24.3699 10.1184 24.19 10.142C23.7544 10.1989 23.3472 10.2912 22.9684 10.419C22.5943 10.5421 22.2913 10.7292 22.0593 10.9801C21.832 11.2263 21.7184 11.5625 21.7184 11.9886C21.7184 12.571 21.9338 13.0114 22.3647 13.3097C22.8003 13.6032 23.3519 13.75 24.0195 13.75ZM32.5121 19.0909C32.228 19.0909 31.9747 19.0672 31.7521 19.0199C31.5296 18.9773 31.3757 18.9347 31.2905 18.892L31.7166 17.4148C32.1238 17.5189 32.4837 17.5568 32.7962 17.5284C33.1087 17.5 33.3857 17.3603 33.6271 17.1094C33.8733 16.8632 34.0982 16.4631 34.3018 15.9091L34.6143 15.0568L30.5803 4.09091H32.3984L35.4098 12.7841H35.5234L38.5348 4.09091H40.353L35.7223 16.5909C35.514 17.1544 35.2559 17.6207 34.9482 17.9901C34.6404 18.3641 34.2829 18.6411 33.8757 18.821C33.4732 19.0009 33.0187 19.0909 32.5121 19.0909ZM52.6222 15.2273C51.5994 15.2273 50.7188 14.9858 49.9801 14.5028C49.2415 14.0199 48.6733 13.3546 48.2756 12.5071C47.8778 11.6596 47.679 10.6913 47.679 9.60227C47.679 8.49432 47.8826 7.51657 48.2898 6.66903C48.7017 5.81676 49.2746 5.15152 50.0085 4.6733C50.7472 4.19034 51.6089 3.94886 52.5938 3.94886C53.3608 3.94886 54.0521 4.09091 54.6676 4.375C55.2831 4.65909 55.7874 5.05682 56.1804 5.56818C56.5734 6.07955 56.8172 6.67614 56.9119 7.35795H55.2358C55.108 6.8608 54.8239 6.42045 54.3835 6.03693C53.9479 5.64867 53.3608 5.45455 52.6222 5.45455C51.9688 5.45455 51.3958 5.625 50.9034 5.96591C50.4157 6.30208 50.0346 6.77794 49.7599 7.39347C49.4901 8.00426 49.3551 8.72159 49.3551 9.54545C49.3551 10.3883 49.4877 11.1222 49.7528 11.7472C50.0227 12.3722 50.4015 12.8575 50.8892 13.2031C51.3816 13.5488 51.9593 13.7216 52.6222 13.7216C53.0578 13.7216 53.4531 13.6458 53.8082 13.4943C54.1634 13.3428 54.464 13.125 54.7102 12.8409C54.9564 12.5568 55.1316 12.2159 55.2358 11.8182H56.9119C56.8172 12.4621 56.5829 13.0421 56.2088 13.5582C55.8395 14.0696 55.3494 14.4768 54.7386 14.7798C54.1326 15.0781 53.4271 15.2273 52.6222 15.2273ZM63.794 15.2273C62.8092 15.2273 61.9451 14.9929 61.2017 14.5241C60.4631 14.0554 59.8854 13.3996 59.4688 12.5568C59.0568 11.714 58.8509 10.7292 58.8509 9.60227C58.8509 8.46591 59.0568 7.47396 59.4688 6.62642C59.8854 5.77888 60.4631 5.12074 61.2017 4.65199C61.9451 4.18324 62.8092 3.94886 63.794 3.94886C64.7789 3.94886 65.6406 4.18324 66.3793 4.65199C67.1226 5.12074 67.7003 5.77888 68.1122 6.62642C68.5289 7.47396 68.7372 8.46591 68.7372 9.60227C68.7372 10.7292 68.5289 11.714 68.1122 12.5568C67.7003 13.3996 67.1226 14.0554 66.3793 14.5241C65.6406 14.9929 64.7789 15.2273 63.794 15.2273ZM63.794 13.7216C64.5421 13.7216 65.1577 13.5298 65.6406 13.1463C66.1236 12.7628 66.4811 12.2585 66.7131 11.6335C66.9451 11.0085 67.0611 10.3314 67.0611 9.60227C67.0611 8.87311 66.9451 8.19366 66.7131 7.56392C66.4811 6.93419 66.1236 6.42519 65.6406 6.03693C65.1577 5.64867 64.5421 5.45455 63.794 5.45455C63.0459 5.45455 62.4304 5.64867 61.9474 6.03693C61.4645 6.42519 61.107 6.93419 60.875 7.56392C60.643 8.19366 60.527 8.87311 60.527 9.60227C60.527 10.3314 60.643 11.0085 60.875 11.6335C61.107 12.2585 61.4645 12.7628 61.9474 13.1463C62.4304 13.5298 63.0459 13.7216 63.794 13.7216ZM72.9719 8.4375V15H71.2958V4.09091H72.9151V5.79545H73.0572C73.3129 5.24148 73.7011 4.7964 74.2219 4.46023C74.7428 4.11932 75.4151 3.94886 76.239 3.94886C76.9776 3.94886 77.6239 4.10038 78.1779 4.40341C78.7319 4.7017 79.1628 5.15625 79.4705 5.76705C79.7783 6.37311 79.9322 7.14015 79.9322 8.06818V15H78.256V8.18182C78.256 7.32481 78.0335 6.6572 77.5884 6.17898C77.1433 5.69602 76.5326 5.45455 75.756 5.45455C75.221 5.45455 74.7428 5.57055 74.3214 5.80256C73.9047 6.03456 73.5756 6.37311 73.3342 6.81818C73.0927 7.26326 72.9719 7.80303 72.9719 8.4375ZM84.6712 8.4375V15H82.995V4.09091H84.6143V5.79545H84.7564C85.0121 5.24148 85.4003 4.7964 85.9212 4.46023C86.442 4.11932 87.1143 3.94886 87.9382 3.94886C88.6768 3.94886 89.3232 4.10038 89.8771 4.40341C90.4311 4.7017 90.862 5.15625 91.1697 5.76705C91.4775 6.37311 91.6314 7.14015 91.6314 8.06818V15H89.9553V8.18182C89.9553 7.32481 89.7327 6.6572 89.2876 6.17898C88.8426 5.69602 88.2318 5.45455 87.4553 5.45455C86.9202 5.45455 86.442 5.57055 86.0206 5.80256C85.6039 6.03456 85.2749 6.37311 85.0334 6.81818C84.7919 7.26326 84.6712 7.80303 84.6712 8.4375ZM99.2681 15.2273C98.217 15.2273 97.3103 14.9953 96.5479 14.5312C95.7904 14.0625 95.2056 13.4091 94.7937 12.571C94.3865 11.7282 94.1829 10.7481 94.1829 9.63068C94.1829 8.51326 94.3865 7.52841 94.7937 6.67614C95.2056 5.81913 95.7785 5.15152 96.5124 4.6733C97.2511 4.19034 98.1128 3.94886 99.0977 3.94886C99.6658 3.94886 100.227 4.04356 100.781 4.23295C101.335 4.42235 101.839 4.73011 102.294 5.15625C102.748 5.57765 103.11 6.13636 103.38 6.83239C103.65 7.52841 103.785 8.38542 103.785 9.40341V10.1136H95.3761V8.66477H102.081C102.081 8.04924 101.958 7.5 101.711 7.01705C101.47 6.53409 101.124 6.15294 100.674 5.87358C100.229 5.59422 99.7037 5.45455 99.0977 5.45455C98.43 5.45455 97.8524 5.62026 97.3647 5.9517C96.8817 6.27841 96.5101 6.70455 96.2496 7.23011C95.9892 7.75568 95.859 8.31913 95.859 8.92045V9.88636C95.859 10.7102 96.0011 11.4086 96.2852 11.9815C96.574 12.5497 96.9741 12.983 97.4854 13.2812C97.9968 13.5748 98.591 13.7216 99.2681 13.7216C99.7085 13.7216 100.106 13.66 100.461 13.5369C100.821 13.4091 101.131 13.2197 101.392 12.9688C101.652 12.7131 101.853 12.3958 101.995 12.017L103.615 12.4716C103.444 13.0208 103.158 13.5038 102.755 13.9205C102.353 14.3324 101.856 14.6544 101.264 14.8864C100.672 15.1136 100.007 15.2273 99.2681 15.2273ZM110.767 15.2273C109.744 15.2273 108.863 14.9858 108.125 14.5028C107.386 14.0199 106.818 13.3546 106.42 12.5071C106.022 11.6596 105.824 10.6913 105.824 9.60227C105.824 8.49432 106.027 7.51657 106.434 6.66903C106.846 5.81676 107.419 5.15152 108.153 4.6733C108.892 4.19034 109.753 3.94886 110.738 3.94886C111.505 3.94886 112.197 4.09091 112.812 4.375C113.428 4.65909 113.932 5.05682 114.325 5.56818C114.718 6.07955 114.962 6.67614 115.056 7.35795H113.38C113.252 6.8608 112.968 6.42045 112.528 6.03693C112.092 5.64867 111.505 5.45455 110.767 5.45455C110.113 5.45455 109.54 5.625 109.048 5.96591C108.56 6.30208 108.179 6.77794 107.904 7.39347C107.635 8.00426 107.5 8.72159 107.5 9.54545C107.5 10.3883 107.632 11.1222 107.897 11.7472C108.167 12.3722 108.546 12.8575 109.034 13.2031C109.526 13.5488 110.104 13.7216 110.767 13.7216C111.202 13.7216 111.598 13.6458 111.953 13.4943C112.308 13.3428 112.609 13.125 112.855 12.8409C113.101 12.5568 113.276 12.2159 113.38 11.8182H115.056C114.962 12.4621 114.727 13.0421 114.353 13.5582C113.984 14.0696 113.494 14.4768 112.883 14.7798C112.277 15.0781 111.572 15.2273 110.767 15.2273ZM122.251 4.09091V5.51136H116.598V4.09091H122.251ZM118.245 1.47727H119.922V11.875C119.922 12.3485 119.99 12.7036 120.127 12.9403C120.27 13.1723 120.449 13.3286 120.667 13.4091C120.89 13.4848 121.124 13.5227 121.37 13.5227C121.555 13.5227 121.707 13.5133 121.825 13.4943C121.943 13.4706 122.038 13.4517 122.109 13.4375L122.45 14.9432C122.336 14.9858 122.178 15.0284 121.974 15.071C121.77 15.1184 121.512 15.142 121.2 15.142C120.726 15.142 120.262 15.0402 119.808 14.8366C119.358 14.633 118.984 14.3229 118.686 13.9062C118.392 13.4896 118.245 12.964 118.245 12.3295V1.47727ZM129.229 15.2273C128.178 15.2273 127.271 14.9953 126.509 14.5312C125.751 14.0625 125.167 13.4091 124.755 12.571C124.347 11.7282 124.144 10.7481 124.144 9.63068C124.144 8.51326 124.347 7.52841 124.755 6.67614C125.167 5.81913 125.739 5.15152 126.473 4.6733C127.212 4.19034 128.074 3.94886 129.059 3.94886C129.627 3.94886 130.188 4.04356 130.742 4.23295C131.296 4.42235 131.8 4.73011 132.255 5.15625C132.709 5.57765 133.071 6.13636 133.341 6.83239C133.611 7.52841 133.746 8.38542 133.746 9.40341V10.1136H125.337V8.66477H132.042C132.042 8.04924 131.918 7.5 131.672 7.01705C131.431 6.53409 131.085 6.15294 130.635 5.87358C130.19 5.59422 129.665 5.45455 129.059 5.45455C128.391 5.45455 127.813 5.62026 127.326 5.9517C126.843 6.27841 126.471 6.70455 126.211 7.23011C125.95 7.75568 125.82 8.31913 125.82 8.92045V9.88636C125.82 10.7102 125.962 11.4086 126.246 11.9815C126.535 12.5497 126.935 12.983 127.446 13.2812C127.958 13.5748 128.552 13.7216 129.229 13.7216C129.669 13.7216 130.067 13.66 130.422 13.5369C130.782 13.4091 131.092 13.2197 131.353 12.9688C131.613 12.7131 131.814 12.3958 131.956 12.017L133.576 12.4716C133.405 13.0208 133.119 13.5038 132.716 13.9205C132.314 14.3324 131.817 14.6544 131.225 14.8864C130.633 15.1136 129.968 15.2273 129.229 15.2273ZM140.415 15.2273C139.506 15.2273 138.703 14.9976 138.007 14.5384C137.311 14.0743 136.767 13.4209 136.374 12.5781C135.981 11.7306 135.784 10.7292 135.784 9.57386C135.784 8.42803 135.981 7.43371 136.374 6.59091C136.767 5.74811 137.314 5.09706 138.015 4.63778C138.715 4.1785 139.525 3.94886 140.444 3.94886C141.154 3.94886 141.715 4.06723 142.127 4.30398C142.543 4.53598 142.861 4.80114 143.078 5.09943C143.301 5.39299 143.474 5.63447 143.597 5.82386H143.739V0.454545H145.415V15H143.796V13.3239H143.597C143.474 13.5227 143.299 13.7737 143.071 14.0767C142.844 14.375 142.52 14.6425 142.098 14.8793C141.677 15.1113 141.116 15.2273 140.415 15.2273ZM140.642 13.7216C141.315 13.7216 141.883 13.5464 142.347 13.196C142.811 12.8409 143.164 12.3509 143.405 11.7259C143.647 11.0961 143.767 10.3693 143.767 9.54545C143.767 8.73106 143.649 8.01847 143.412 7.40767C143.176 6.79214 142.825 6.31392 142.361 5.97301C141.897 5.62737 141.324 5.45455 140.642 5.45455C139.932 5.45455 139.34 5.63684 138.867 6.00142C138.398 6.36127 138.045 6.85133 137.809 7.47159C137.577 8.08712 137.461 8.77841 137.461 9.54545C137.461 10.322 137.579 11.0275 137.816 11.6619C138.057 12.2917 138.412 12.7936 138.881 13.1676C139.355 13.5369 139.942 13.7216 140.642 13.7216ZM156.814 15L153.49 4.09091H155.252L157.61 12.4432H157.723L160.053 4.09091H161.843L164.144 12.4148H164.257L166.615 4.09091H168.377L165.053 15H163.405L161.019 6.61932H160.848L158.462 15H156.814ZM170.593 15V4.09091H172.269V15H170.593ZM171.445 2.27273C171.118 2.27273 170.837 2.16146 170.6 1.93892C170.368 1.71638 170.252 1.44886 170.252 1.13636C170.252 0.823864 170.368 0.556345 170.6 0.333806C170.837 0.111269 171.118 0 171.445 0C171.772 0 172.051 0.111269 172.283 0.333806C172.52 0.556345 172.638 0.823864 172.638 1.13636C172.638 1.44886 172.52 1.71638 172.283 1.93892C172.051 2.16146 171.772 2.27273 171.445 2.27273ZM180.083 4.09091V5.51136H174.43V4.09091H180.083ZM176.077 1.47727H177.754V11.875C177.754 12.3485 177.822 12.7036 177.96 12.9403C178.102 13.1723 178.281 13.3286 178.499 13.4091C178.722 13.4848 178.956 13.5227 179.202 13.5227C179.387 13.5227 179.539 13.5133 179.657 13.4943C179.775 13.4706 179.87 13.4517 179.941 13.4375L180.282 14.9432C180.168 14.9858 180.01 15.0284 179.806 15.071C179.603 15.1184 179.344 15.142 179.032 15.142C178.558 15.142 178.094 15.0402 177.64 14.8366C177.19 14.633 176.816 14.3229 176.518 13.9062C176.224 13.4896 176.077 12.964 176.077 12.3295V1.47727ZM184.515 8.4375V15H182.839V0.454545H184.515V5.79545H184.657C184.913 5.23201 185.296 4.78456 185.808 4.45312C186.324 4.11695 187.01 3.94886 187.867 3.94886C188.611 3.94886 189.262 4.09801 189.82 4.39631C190.379 4.68987 190.812 5.14205 191.12 5.75284C191.433 6.3589 191.589 7.13068 191.589 8.06818V15H189.913V8.18182C189.913 7.31534 189.688 6.64536 189.238 6.17188C188.793 5.69366 188.175 5.45455 187.384 5.45455C186.835 5.45455 186.343 5.57055 185.907 5.80256C185.476 6.03456 185.135 6.37311 184.884 6.81818C184.638 7.26326 184.515 7.80303 184.515 8.4375ZM207.155 10.5398V4.09091H208.831V15H207.155V13.1534H207.042C206.786 13.7074 206.388 14.1785 205.848 14.5668C205.309 14.9503 204.627 15.142 203.803 15.142C203.121 15.142 202.515 14.9929 201.985 14.6946C201.454 14.3916 201.038 13.937 200.735 13.331C200.432 12.7202 200.28 11.9508 200.28 11.0227V4.09091H201.956V10.9091C201.956 11.7045 202.179 12.339 202.624 12.8125C203.074 13.286 203.647 13.5227 204.343 13.5227C204.759 13.5227 205.183 13.4162 205.614 13.2031C206.05 12.9901 206.414 12.6634 206.708 12.223C207.006 11.7827 207.155 11.2216 207.155 10.5398ZM219.629 6.53409L218.123 6.96023C218.028 6.70928 217.888 6.46544 217.704 6.22869C217.524 5.98722 217.278 5.78835 216.965 5.6321C216.653 5.47585 216.253 5.39773 215.765 5.39773C215.097 5.39773 214.541 5.55161 214.096 5.85938C213.656 6.16241 213.435 6.5483 213.435 7.01705C213.435 7.43371 213.587 7.76278 213.89 8.00426C214.193 8.24574 214.666 8.44697 215.31 8.60795L216.93 9.00568C217.905 9.24242 218.632 9.60464 219.11 10.0923C219.588 10.5753 219.827 11.1979 219.827 11.9602C219.827 12.5852 219.647 13.1439 219.288 13.6364C218.933 14.1288 218.435 14.517 217.796 14.8011C217.157 15.0852 216.414 15.2273 215.566 15.2273C214.453 15.2273 213.532 14.9858 212.803 14.5028C212.074 14.0199 211.612 13.3144 211.418 12.3864L213.009 11.9886C213.161 12.5758 213.447 13.0161 213.869 13.3097C214.295 13.6032 214.851 13.75 215.538 13.75C216.319 13.75 216.939 13.5843 217.398 13.2528C217.862 12.9167 218.094 12.5142 218.094 12.0455C218.094 11.6667 217.962 11.3494 217.697 11.0938C217.432 10.8333 217.024 10.6392 216.475 10.5114L214.657 10.0852C213.658 9.84848 212.924 9.48153 212.455 8.98438C211.991 8.48248 211.759 7.85511 211.759 7.10227C211.759 6.48674 211.932 5.94223 212.278 5.46875C212.628 4.99527 213.104 4.62358 213.705 4.35369C214.311 4.08381 214.998 3.94886 215.765 3.94886C216.844 3.94886 217.692 4.18561 218.308 4.65909C218.928 5.13258 219.368 5.75758 219.629 6.53409Z" fill="white"/>
</svg>
