<svg width="262" height="82" viewBox="0 0 262 82" fill="none" xmlns="http://www.w3.org/2000/svg">
<path d="M19.2422 18.3281V28.5469C19.2422 29.1562 19.3594 29.5938 19.5938 29.8594C19.7188 30.0156 19.8359 30.1172 19.9453 30.1641C20.0547 30.1953 20.4141 30.2891 21.0234 30.4453C21.7734 30.6172 22.1484 31.0469 22.1484 31.7344C22.1484 32.1875 21.9375 32.5312 21.5156 32.7656C21.2656 32.9219 20.7812 33 20.0625 33H19.2656H8.8125H8.03906C7.33594 33 6.84375 32.9062 6.5625 32.7188C6.15625 32.4688 5.95312 32.1406 5.95312 31.7344C5.95312 31.0469 6.32812 30.6172 7.07812 30.4453C7.6875 30.2891 8.04688 30.1953 8.15625 30.1641C8.26562 30.1172 8.375 30.0156 8.48438 29.8594C8.71875 29.5938 8.83594 29.1562 8.83594 28.5469V20.625L2.20312 4.80469C1.95312 4.21094 1.60156 3.78125 1.14844 3.51562C0.726562 3.25 0.453125 3.03906 0.328125 2.88281C0.21875 2.72656 0.164062 2.50781 0.164062 2.22656C0.164062 1.41406 0.757812 1.00781 1.94531 1.00781H13.4297C14.0391 1.00781 14.4609 1.07812 14.6953 1.21875C15.0859 1.46875 15.2812 1.79688 15.2812 2.20312C15.2812 2.70312 15.0547 3.09375 14.6016 3.375L13.9219 3.79688C13.6562 3.96875 13.5234 4.22656 13.5234 4.57031C13.5234 4.96094 13.6094 5.34375 13.7812 5.71875L19.2422 18.3281ZM20.1562 16.1016L18.8438 13.0312L21.3047 7.52344C21.5078 7.05469 21.6094 6.41406 21.6094 5.60156C21.6094 4.69531 21.1094 4.04688 20.1094 3.65625C19.5625 3.4375 19.2031 3.25 19.0312 3.09375C18.875 2.92188 18.7969 2.66406 18.7969 2.32031C18.7969 1.89844 18.9375 1.57812 19.2188 1.35938C19.4062 1.21875 19.6172 1.125 19.8516 1.07812C20.0859 1.03125 20.4922 1.00781 21.0703 1.00781H26.8594C27.9531 1.00781 28.5 1.44531 28.5 2.32031C28.5 2.63281 28.4219 2.875 28.2656 3.04688C28.125 3.21875 27.8438 3.39844 27.4219 3.58594C26.6562 3.92969 26.1094 4.27344 25.7812 4.61719C25.3125 5.11719 24.9219 5.6875 24.6094 6.32812L24.0703 7.52344L20.1562 16.1016ZM43.5 0.375V3.21094C42.5781 3.35156 41.8906 3.75781 41.4375 4.42969C40.9844 5.10156 40.7578 6.0625 40.7578 7.3125V26.6719V27.6797C40.7578 28.0391 40.8281 28.4219 40.9688 28.8281C41.125 29.2188 41.3203 29.5547 41.5547 29.8359C41.8047 30.1484 42.0703 30.375 42.3516 30.5156C42.6328 30.6406 43.0156 30.7266 43.5 30.7734V33.6328C40.4688 33.6328 37.8359 32.8438 35.6016 31.2656C33.6328 29.875 32.1484 28.0078 31.1484 25.6641C30.1484 23.3047 29.6484 20.5156 29.6484 17.2969C29.6484 14.9375 29.9688 12.7422 30.6094 10.7109C31.2656 8.66406 32.2109 6.89062 33.4453 5.39062C34.6953 3.875 36.1875 2.65625 37.9219 1.73438C39.6719 0.8125 41.3516 0.351562 42.9609 0.351562L43.5 0.375ZM45.3516 3.23438V0.398438C46.1172 0.523437 46.7344 0.65625 47.2031 0.796875C47.6875 0.9375 48.5547 1.23438 49.8047 1.6875C50.6016 1.96875 51.1328 2.10938 51.3984 2.10938C51.8516 2.10938 52.1953 1.90625 52.4297 1.5L52.7344 0.9375C52.9219 0.5625 53.2734 0.375 53.7891 0.375C54.2109 0.375 54.5312 0.5 54.75 0.75C54.9844 1 55.1016 1.36719 55.1016 1.85156V11.6016C55.1016 12.2266 54.9609 12.6797 54.6797 12.9609C54.3984 13.2422 54.0781 13.3828 53.7188 13.3828C53.3438 13.3828 53.0391 13.2656 52.8047 13.0312C52.5859 12.7812 52.4062 12.3828 52.2656 11.8359C51.9375 10.6016 51.6172 9.63281 51.3047 8.92969C50.6328 7.44531 49.8672 6.24219 49.0078 5.32031C48.4297 4.69531 47.8516 4.21875 47.2734 3.89062C46.6953 3.54687 46.0547 3.32812 45.3516 3.23438ZM45.4219 33.6328V30.7734C46.6406 30.6797 47.9219 30.2188 49.2656 29.3906C49.9844 28.9375 50.625 28.3359 51.1875 27.5859C51.75 26.8203 52.1719 25.9844 52.4531 25.0781C52.6094 24.5781 52.7891 24.2266 52.9922 24.0234C53.2109 23.8047 53.4922 23.6953 53.8359 23.6953C54.2109 23.6953 54.5234 23.8359 54.7734 24.1172C55.0234 24.3984 55.1484 24.75 55.1484 25.1719C55.1484 25.875 54.875 26.7266 54.3281 27.7266C53.7969 28.7266 53.1094 29.6484 52.2656 30.4922C51.2344 31.5234 50.1719 32.2891 49.0781 32.7891C48 33.2891 46.7812 33.5703 45.4219 33.6328ZM71.4844 33H61.0547H60.4453C59.8828 33 59.4453 32.8984 59.1328 32.6953C58.8359 32.4766 58.6875 32.1719 58.6875 31.7812C58.6875 31.1406 59 30.7188 59.625 30.5156C60.1406 30.3438 60.4375 30.2422 60.5156 30.2109C60.6094 30.1641 60.7031 30.0703 60.7969 29.9297C60.9844 29.6797 61.0781 29.2812 61.0781 28.7344V5.27344C61.0781 4.72656 60.9844 4.32813 60.7969 4.07812C60.7031 3.9375 60.6094 3.85156 60.5156 3.82031C60.4375 3.77344 60.1406 3.66406 59.625 3.49219C59 3.28906 58.6875 2.86719 58.6875 2.22656C58.6875 1.83594 58.8359 1.53906 59.1328 1.33594C59.4453 1.11719 59.8828 1.00781 60.4453 1.00781H61.0547H71.5078H72.3047C72.9922 1.00781 73.4844 1.10156 73.7812 1.28906C74.1875 1.53906 74.3906 1.86719 74.3906 2.27344C74.3906 2.96094 74.0156 3.39063 73.2656 3.5625C72.6562 3.70312 72.2969 3.79688 72.1875 3.84375C72.0781 3.89062 71.9609 3.98438 71.8359 4.125C71.6016 4.40625 71.4844 4.84375 71.4844 5.4375V33ZM73.3828 33V30.375C74.1484 30.2344 74.75 30.0781 75.1875 29.9062C75.6406 29.7344 76.0703 29.4844 76.4766 29.1562C77.1328 28.6406 77.7344 27.9297 78.2812 27.0234C78.8281 26.1172 79.2734 25.1094 79.6172 24C79.8672 23.1406 80.0938 22.5781 80.2969 22.3125C80.5156 22.0312 80.8281 21.8906 81.2344 21.8906C81.6719 21.8906 81.9922 22.0703 82.1953 22.4297C82.2891 22.6016 82.3359 22.9453 82.3359 23.4609V33H73.3828ZM86.2734 23.6484V5.27344C86.2734 4.72656 86.1797 4.32813 85.9922 4.07812C85.8984 3.9375 85.8047 3.85156 85.7109 3.82031C85.6328 3.77344 85.3359 3.66406 84.8203 3.49219C84.1953 3.28906 83.8828 2.875 83.8828 2.25C83.8828 1.84375 84.0312 1.53906 84.3281 1.33594C84.6406 1.11719 85.0781 1.00781 85.6406 1.00781H86.25H96.7031H97.3125L98.1562 1.10156C98.4219 1.17969 98.6406 1.32031 98.8125 1.52344C98.9844 1.72656 99.0703 1.96875 99.0703 2.25C99.0703 2.875 98.7578 3.28906 98.1328 3.49219C97.6172 3.66406 97.3125 3.77344 97.2188 3.82031C97.1406 3.85156 97.0547 3.9375 96.9609 4.07812C96.7734 4.32813 96.6797 4.72656 96.6797 5.27344V24.9375C96.6797 26.2656 96.7109 27.1953 96.7734 27.7266C96.8516 28.2422 97 28.7109 97.2188 29.1328C97.4219 29.5234 97.6484 29.8047 97.8984 29.9766C98.1484 30.1484 98.625 30.3438 99.3281 30.5625V33.6328H98.8125C96.7812 33.6328 95.0938 33.4531 93.75 33.0938C92.1719 32.6719 90.7891 32.0469 89.6016 31.2188C88.4141 30.3906 87.5703 29.4609 87.0703 28.4297C86.5391 27.3359 86.2734 25.7422 86.2734 23.6484ZM101.484 33.6328V30.5625C103.047 30.3594 104.352 29.7188 105.398 28.6406C106.586 27.4062 107.18 25.6328 107.18 23.3203V8.03906C107.18 5.89844 106.359 4.40625 104.719 3.5625C104.234 3.3125 103.914 3.10156 103.758 2.92969C103.617 2.74219 103.547 2.47656 103.547 2.13281C103.547 1.72656 103.695 1.4375 103.992 1.26562C104.289 1.09375 104.773 1.00781 105.445 1.00781H111.188C111.672 1.00781 111.992 1.02344 112.148 1.05469C112.32 1.07031 112.484 1.125 112.641 1.21875C113.047 1.45312 113.25 1.77344 113.25 2.17969C113.25 2.52344 113.125 2.8125 112.875 3.04688C112.797 3.125 112.461 3.33594 111.867 3.67969C111.18 4.05469 110.641 4.63281 110.25 5.41406C109.859 6.17969 109.664 7.05469 109.664 8.03906V23.3438C109.664 25.9688 109.086 28.125 107.93 29.8125C107.086 31.0625 105.875 32.0625 104.297 32.8125C103.516 33.1875 102.578 33.4609 101.484 33.6328ZM129.562 1.00781V33H119.133H118.523C117.961 33 117.523 32.8984 117.211 32.6953C116.914 32.4766 116.766 32.1719 116.766 31.7812C116.766 31.1406 117.078 30.7188 117.703 30.5156C118.219 30.3438 118.516 30.2422 118.594 30.2109C118.688 30.1641 118.781 30.0703 118.875 29.9297C119.062 29.6797 119.156 29.2812 119.156 28.7344V5.27344C119.156 4.72656 119.062 4.32813 118.875 4.07812C118.781 3.9375 118.688 3.85156 118.594 3.82031C118.516 3.77344 118.219 3.66406 117.703 3.49219C117.078 3.28906 116.766 2.86719 116.766 2.22656C116.766 1.83594 116.914 1.53906 117.211 1.33594C117.523 1.11719 117.961 1.00781 118.523 1.00781H119.133H129.562ZM136.852 16.4297C138.258 16.7109 139.336 16.9844 140.086 17.25C140.852 17.5156 141.539 17.8516 142.148 18.2578C143.195 18.9297 143.992 19.8203 144.539 20.9297C145.102 22.0234 145.383 23.25 145.383 24.6094C145.383 27.2812 144.398 29.3672 142.43 30.8672C141.414 31.6484 140.289 32.2031 139.055 32.5312C137.836 32.8438 136.234 33 134.25 33H131.461V30.5391C132.086 30.4922 132.578 30.4062 132.938 30.2812C133.297 30.1406 133.617 29.9141 133.898 29.6016C134.414 29.0234 134.672 28.125 134.672 26.9062V21.5859C134.672 20.8047 134.602 20.1953 134.461 19.7578C134.336 19.3203 134.094 18.9219 133.734 18.5625C133.469 18.2812 133.18 18.0781 132.867 17.9531C132.555 17.8281 132.109 17.7266 131.531 17.6484V15.2109C132.109 15.1641 132.555 15.0859 132.867 14.9766C133.195 14.8672 133.492 14.6875 133.758 14.4375C134.008 14.2031 134.219 13.8984 134.391 13.5234C134.562 13.1484 134.656 12.8047 134.672 12.4922V11.2031V7.14844C134.672 6.72656 134.602 6.28906 134.461 5.83594C134.32 5.36719 134.148 5 133.945 4.73438C133.648 4.375 133.312 4.10937 132.938 3.9375C132.578 3.76563 132.086 3.64844 131.461 3.58594V1.00781H134.156C137.719 1.00781 140.438 1.74219 142.312 3.21094C143.172 3.88281 143.828 4.69531 144.281 5.64844C144.734 6.60156 144.961 7.63281 144.961 8.74219C144.961 9.83594 144.727 10.8672 144.258 11.8359C143.805 12.8047 143.164 13.6094 142.336 14.25C141.727 14.75 141.023 15.1562 140.227 15.4688C139.43 15.7812 138.305 16.1016 136.852 16.4297ZM18.2578 69.6562L15.4219 81H10.3594L2.8125 53.4609C2.64062 52.8359 2.47656 52.4141 2.32031 52.1953C2.17969 51.9766 1.92969 51.7969 1.57031 51.6562C0.945312 51.4062 0.632812 50.9922 0.632812 50.4141C0.632812 49.9609 0.828125 49.6172 1.21875 49.3828C1.60938 49.1328 2.15625 49.0078 2.85938 49.0078H13.8281C14.5156 49.0078 14.9844 49.1016 15.2344 49.2891C15.5625 49.5234 15.7266 49.8438 15.7266 50.25C15.7266 50.7344 15.4531 51.1406 14.9062 51.4688C14.4531 51.7344 14.1562 51.9609 14.0156 52.1484C13.8906 52.3203 13.8281 52.5859 13.8281 52.9453C13.8281 53.1172 13.8516 53.2891 13.8984 53.4609L18.2578 69.6562ZM20.4844 49.0078H25.3125L30.9375 70.3359L28.2656 81H23.1562L17.6953 60.3984L20.4844 49.0078ZM31.8281 66.5859L30.6094 61.8281L32.3203 54.8906C32.4609 54.3438 32.5312 53.9219 32.5312 53.625C32.5312 53.1562 32.3984 52.7578 32.1328 52.4297C31.8828 52.0859 31.4609 51.7656 30.8672 51.4688C30.4766 51.2656 30.2031 51.0703 30.0469 50.8828C29.9062 50.6953 29.8359 50.4531 29.8359 50.1562C29.8359 49.75 29.9609 49.4609 30.2109 49.2891C30.4766 49.1016 30.8906 49.0078 31.4531 49.0078H37.0312C37.6719 49.0078 38.1172 49.1016 38.3672 49.2891C38.6328 49.4609 38.7656 49.7578 38.7656 50.1797C38.7656 50.4297 38.6953 50.6406 38.5547 50.8125C38.4297 50.9688 38.2109 51.1172 37.8984 51.2578C37.1953 51.5703 36.6797 51.8984 36.3516 52.2422C35.6328 52.9609 35.0938 54 34.7344 55.3594L31.8281 66.5859ZM54.1406 49.0078V76.5469C54.1406 77.1562 54.2578 77.5938 54.4922 77.8594C54.6172 78.0156 54.7344 78.1172 54.8438 78.1641C54.9531 78.1953 55.3125 78.2891 55.9219 78.4453C56.6719 78.6172 57.0469 79.0469 57.0469 79.7344C57.0469 80.1406 56.8438 80.4688 56.4375 80.7188C56.1406 80.9062 55.6484 81 54.9609 81H54.1641H43.7109H43.1016C42.5391 81 42.1016 80.8984 41.7891 80.6953C41.4922 80.4766 41.3438 80.1719 41.3438 79.7812C41.3438 79.1406 41.6562 78.7188 42.2812 78.5156C42.7969 78.3438 43.0938 78.2422 43.1719 78.2109C43.2656 78.1641 43.3594 78.0703 43.4531 77.9297C43.6406 77.6797 43.7344 77.2812 43.7344 76.7344V53.2734C43.7344 52.7266 43.6406 52.3281 43.4531 52.0781C43.3594 51.9375 43.2656 51.8516 43.1719 51.8203C43.0938 51.7734 42.7969 51.6641 42.2812 51.4922C41.6562 51.2891 41.3438 50.8672 41.3438 50.2266C41.3438 49.8359 41.4922 49.5391 41.7891 49.3359C42.1016 49.1172 42.5391 49.0078 43.1016 49.0078H43.7109H54.1406ZM61.3359 65.3203C62.7734 65.5391 63.875 65.7812 64.6406 66.0469C65.4219 66.3125 66.125 66.6719 66.75 67.125C67.4062 67.6094 67.9062 68.1875 68.25 68.8594C68.6094 69.5312 68.7891 70.2422 68.7891 70.9922V75.8438C68.7891 76.3438 68.9531 76.5938 69.2812 76.5938C69.4062 76.5938 69.5078 76.5625 69.5859 76.5C69.6797 76.4219 69.8047 76.2812 69.9609 76.0781C70.3516 75.5469 70.75 75.2812 71.1562 75.2812C71.4219 75.2812 71.6875 75.4219 71.9531 75.7031C72.2188 75.9844 72.3516 76.2656 72.3516 76.5469C72.3516 77.0312 72.1172 77.625 71.6484 78.3281C71.1953 79.0156 70.625 79.6328 69.9375 80.1797C69.2969 80.6953 68.6016 81.0625 67.8516 81.2812C67.1016 81.5156 66.2188 81.6328 65.2031 81.6328C63.1406 81.6328 61.5312 81.0469 60.375 79.875C59.2188 78.6875 58.6406 77.0391 58.6406 74.9297V70.9922C58.6406 70.1172 58.6328 69.6094 58.6172 69.4688C58.5391 68.8438 58.3203 68.3047 57.9609 67.8516C57.5078 67.3047 56.8594 66.9844 56.0156 66.8906V64.3828C56.8594 64.2578 57.4609 64.0391 57.8203 63.7266C58.1328 63.4453 58.3438 63.125 58.4531 62.7656C58.5781 62.4062 58.6406 61.875 58.6406 61.1719V54.9609C58.6406 53.9766 58.4453 53.2422 58.0547 52.7578C57.6797 52.2734 56.9922 51.8906 55.9922 51.6094V49.0078H56.6016C58.3359 49.0078 59.8125 49.0703 61.0312 49.1953C62.8438 49.3672 64.4609 49.9609 65.8828 50.9766C67.9297 52.4297 68.9531 54.5 68.9531 57.1875C68.9531 59.3906 68.2656 61.1953 66.8906 62.6016C66.3125 63.1953 65.6328 63.6797 64.8516 64.0547C64.0859 64.4297 62.9141 64.8516 61.3359 65.3203ZM87.7031 49.0078V81H77.2734H76.6641C76.1016 81 75.6641 80.8984 75.3516 80.6953C75.0547 80.4766 74.9062 80.1719 74.9062 79.7812C74.9062 79.1406 75.2188 78.7188 75.8438 78.5156C76.3594 78.3438 76.6562 78.2422 76.7344 78.2109C76.8281 78.1641 76.9219 78.0703 77.0156 77.9297C77.2031 77.6797 77.2969 77.2812 77.2969 76.7344V53.2734C77.2969 52.7266 77.2031 52.3281 77.0156 52.0781C76.9219 51.9375 76.8281 51.8516 76.7344 51.8203C76.6562 51.7734 76.3594 51.6641 75.8438 51.4922C75.2188 51.2891 74.9062 50.8672 74.9062 50.2266C74.9062 49.8359 75.0547 49.5391 75.3516 49.3359C75.6641 49.1172 76.1016 49.0078 76.6641 49.0078H77.2734H87.7031ZM89.7891 49.0078H99.2344V57.3047C99.2344 57.7891 99.1406 58.1406 98.9531 58.3594C98.7656 58.5781 98.4688 58.6875 98.0625 58.6875C97.7188 58.6875 97.4688 58.6172 97.3125 58.4766C97.1562 58.3359 97.0078 58.0469 96.8672 57.6094C96.2734 55.7969 95.3984 54.4141 94.2422 53.4609C93.1016 52.5078 91.6172 51.9375 89.7891 51.75V49.0078ZM89.6719 66.0703V63.3516C90.5781 62.9141 91.25 62.4375 91.6875 61.9219C92.125 61.4062 92.4453 60.7188 92.6484 59.8594C92.7734 59.2656 92.9375 58.8594 93.1406 58.6406C93.3438 58.4062 93.6328 58.2891 94.0078 58.2891C94.5078 58.2891 94.8516 58.4844 95.0391 58.875C95.1484 59.0781 95.2031 59.5391 95.2031 60.2578V69.1875C95.2031 69.9219 95.1172 70.4297 94.9453 70.7109C94.7891 70.9922 94.4922 71.1328 94.0547 71.1328C93.6953 71.1328 93.4141 71.0234 93.2109 70.8047C93.0078 70.5859 92.8438 70.2188 92.7188 69.7031C92.4531 68.625 92.0703 67.7969 91.5703 67.2188C91.0859 66.6406 90.4531 66.2578 89.6719 66.0703ZM89.8125 81V78.4688C90.8281 78.3125 91.6641 78.0938 92.3203 77.8125C92.9922 77.5312 93.6641 77.1016 94.3359 76.5234C95.0078 75.9453 95.5391 75.3516 95.9297 74.7422C96.3359 74.1172 96.7188 73.2969 97.0781 72.2812C97.25 71.7812 97.4297 71.4453 97.6172 71.2734C97.8047 71.0859 98.0625 70.9922 98.3906 70.9922C98.8281 70.9922 99.1328 71.125 99.3047 71.3906C99.4766 71.6406 99.5625 72.0859 99.5625 72.7266V81H89.8125ZM113.883 48.375V51.0703C112.914 51.3359 112.172 51.75 111.656 52.3125C111.156 52.8594 110.906 53.5391 110.906 54.3516C110.906 55.1328 111.117 55.8203 111.539 56.4141C111.961 56.9922 112.648 57.5469 113.602 58.0781C114.258 58.4375 115.742 59.125 118.055 60.1406C119.461 60.75 120.547 61.3047 121.312 61.8047C122.094 62.2891 122.828 62.8984 123.516 63.6328C125.359 65.5703 126.281 67.875 126.281 70.5469C126.281 72.5625 125.781 74.4062 124.781 76.0781C123.781 77.75 122.406 79.0625 120.656 80.0156C119.719 80.5156 118.688 80.9062 117.562 81.1875C116.453 81.4844 115.414 81.6328 114.445 81.6328V78.9609C115.805 78.6328 116.781 78.1797 117.375 77.6016C117.984 77.0078 118.289 76.2109 118.289 75.2109C118.289 74.1641 117.82 73.2422 116.883 72.4453C116.258 71.9297 115.07 71.2891 113.32 70.5234C111.398 69.6797 110.078 69.0781 109.359 68.7188C108.656 68.3594 107.977 67.9375 107.32 67.4531C104.383 65.3594 102.914 62.5703 102.914 59.0859C102.914 57.3047 103.281 55.6641 104.016 54.1641C104.75 52.6484 105.773 51.4297 107.086 50.5078C108.914 49.2266 111.18 48.5156 113.883 48.375ZM115.734 51.0703V48.4922C116.672 48.5547 117.484 48.6797 118.172 48.8672C118.859 49.0391 119.836 49.3906 121.102 49.9219C121.414 50.0469 121.672 50.1094 121.875 50.1094C122.172 50.1094 122.391 50.0078 122.531 49.8047L123.047 49.125C123.297 48.7812 123.602 48.6094 123.961 48.6094C124.383 48.6094 124.688 48.7656 124.875 49.0781C125.078 49.375 125.18 49.8516 125.18 50.5078V58.2422C125.18 58.6953 125.047 59.0703 124.781 59.3672C124.531 59.6484 124.203 59.7891 123.797 59.7891C123.484 59.7891 123.195 59.6875 122.93 59.4844C122.789 59.3594 122.672 59.2109 122.578 59.0391C122.5 58.8516 122.422 58.5469 122.344 58.125C122.172 57.3594 121.875 56.5703 121.453 55.7578C121.031 54.9453 120.539 54.2188 119.977 53.5781C118.852 52.3125 117.438 51.4766 115.734 51.0703ZM112.664 78.9609V81.6328C111.383 81.6328 109.969 81.2656 108.422 80.5312C107.844 80.2656 107.445 80.0938 107.227 80.0156C107.008 79.9375 106.797 79.8984 106.594 79.8984C106.281 79.8984 106.047 79.9531 105.891 80.0625C105.734 80.1562 105.484 80.4062 105.141 80.8125C104.859 81.1562 104.555 81.3281 104.227 81.3281C103.352 81.3281 102.914 80.6562 102.914 79.3125V70.7812C102.914 70.3438 103.039 69.9766 103.289 69.6797C103.539 69.3672 103.852 69.2031 104.227 69.1875C104.57 69.1719 104.836 69.2734 105.023 69.4922C105.227 69.6953 105.398 70.0625 105.539 70.5938C105.898 71.9375 106.414 73.1953 107.086 74.3672C107.773 75.5391 108.57 76.5312 109.477 77.3438C110.398 78.1875 111.461 78.7266 112.664 78.9609ZM147.492 49.0078V76.5469C147.492 77.1562 147.609 77.5938 147.844 77.8594C147.969 78.0156 148.086 78.1172 148.195 78.1641C148.305 78.1953 148.664 78.2891 149.273 78.4453C150.023 78.6172 150.398 79.0469 150.398 79.7344C150.398 80.1406 150.195 80.4688 149.789 80.7188C149.492 80.9062 148.992 81 148.289 81H147.516H137.062H136.289C135.602 81 135.078 80.8984 134.719 80.6953C134.375 80.4766 134.203 80.1562 134.203 79.7344C134.203 79.0469 134.578 78.6172 135.328 78.4453C135.938 78.2891 136.297 78.1953 136.406 78.1641C136.516 78.1172 136.625 78.0156 136.734 77.8594C136.969 77.5938 137.086 77.1562 137.086 76.5469V49.0078H147.492ZM155.602 49.0078V58.5938C155.602 59.0469 155.469 59.4141 155.203 59.6953C154.953 59.9766 154.625 60.1172 154.219 60.1172C153.828 60.1172 153.5 59.9922 153.234 59.7422C152.984 59.4766 152.82 59.1172 152.742 58.6641L152.508 57.2344C152.273 55.7812 151.82 54.5234 151.148 53.4609C150.727 52.8047 150.156 52.2656 149.438 51.8438V49.0078H155.602ZM129.023 49.0078H135.188V51.8438C134.453 52.2656 133.883 52.8047 133.477 53.4609C132.805 54.5234 132.352 55.7812 132.117 57.2344L131.883 58.6641C131.805 59.1172 131.633 59.4766 131.367 59.7422C131.117 59.9922 130.797 60.1172 130.406 60.1172C130 60.1172 129.664 59.9766 129.398 59.6953C129.148 59.4141 129.023 59.0469 129.023 58.5938V49.0078ZM171.281 81H160.852H160.242C159.68 81 159.242 80.8984 158.93 80.6953C158.633 80.4766 158.484 80.1719 158.484 79.7812C158.484 79.1406 158.797 78.7188 159.422 78.5156C159.938 78.3438 160.234 78.2422 160.312 78.2109C160.406 78.1641 160.5 78.0703 160.594 77.9297C160.781 77.6797 160.875 77.2812 160.875 76.7344V53.2734C160.875 52.7266 160.781 52.3281 160.594 52.0781C160.5 51.9375 160.406 51.8516 160.312 51.8203C160.234 51.7734 159.938 51.6641 159.422 51.4922C158.797 51.2891 158.484 50.8672 158.484 50.2266C158.484 49.8359 158.633 49.5391 158.93 49.3359C159.242 49.1172 159.68 49.0078 160.242 49.0078H160.852H171.305H172.102C172.789 49.0078 173.281 49.1016 173.578 49.2891C173.984 49.5391 174.188 49.8672 174.188 50.2734C174.188 50.9609 173.812 51.3906 173.062 51.5625C172.453 51.7031 172.094 51.7969 171.984 51.8438C171.875 51.8906 171.758 51.9844 171.633 52.125C171.398 52.4062 171.281 52.8438 171.281 53.4375V81ZM173.18 81V78.375C173.945 78.2344 174.547 78.0781 174.984 77.9062C175.438 77.7344 175.867 77.4844 176.273 77.1562C176.93 76.6406 177.531 75.9297 178.078 75.0234C178.625 74.1172 179.07 73.1094 179.414 72C179.664 71.1406 179.891 70.5781 180.094 70.3125C180.312 70.0312 180.625 69.8906 181.031 69.8906C181.469 69.8906 181.789 70.0703 181.992 70.4297C182.086 70.6016 182.133 70.9453 182.133 71.4609V81H173.18ZM196.898 81H186.445H185.836C185.273 81 184.836 80.8984 184.523 80.6953C184.227 80.4766 184.078 80.1719 184.078 79.7812C184.078 79.1406 184.391 78.7188 185.016 78.5156C185.531 78.3438 185.828 78.2422 185.906 78.2109C186 78.1641 186.094 78.0703 186.188 77.9297C186.375 77.6797 186.469 77.2812 186.469 76.7344V53.2734C186.469 52.7266 186.375 52.3281 186.188 52.0781C186.094 51.9375 186 51.8516 185.906 51.8203C185.828 51.7734 185.531 51.6641 185.016 51.4922C184.391 51.2891 184.078 50.8672 184.078 50.2266C184.078 49.8359 184.227 49.5391 184.523 49.3359C184.836 49.1172 185.273 49.0078 185.836 49.0078H186.445H196.898H197.508C198.07 49.0078 198.5 49.1172 198.797 49.3359C199.109 49.5391 199.266 49.8359 199.266 50.2266C199.266 50.8672 198.953 51.2891 198.328 51.4922C197.812 51.6641 197.508 51.7734 197.414 51.8203C197.336 51.8516 197.25 51.9375 197.156 52.0781C196.969 52.3281 196.875 52.7266 196.875 53.2734V76.7344C196.875 77.2812 196.969 77.6797 197.156 77.9297C197.25 78.0703 197.336 78.1641 197.414 78.2109C197.508 78.2422 197.812 78.3438 198.328 78.5156C198.953 78.7188 199.266 79.1406 199.266 79.7812C199.266 80.1719 199.109 80.4766 198.797 80.6953C198.5 80.8984 198.07 81 197.508 81H196.898ZM216.375 49.0078L228.844 70.6641V81H222.445L206.531 53.5781C206.188 52.9844 205.906 52.5703 205.688 52.3359C205.469 52.1016 205.188 51.9297 204.844 51.8203L203.953 51.4922C203.719 51.4141 203.531 51.2734 203.391 51.0703C203.25 50.8672 203.18 50.6406 203.18 50.3906C203.18 50.125 203.25 49.8828 203.391 49.6641C203.531 49.4297 203.719 49.2656 203.953 49.1719C204.219 49.0625 204.938 49.0078 206.109 49.0078H216.375ZM206.555 57.2344L209.039 61.3594V73.9219C209.039 75.0156 209.219 75.9141 209.578 76.6172C209.953 77.3203 210.539 77.8984 211.336 78.3516L212.039 78.75C212.445 78.9844 212.648 79.3359 212.648 79.8047C212.648 80.1641 212.5 80.4609 212.203 80.6953C211.953 80.8984 211.438 81 210.656 81H205.242C203.82 81 203.109 80.5938 203.109 79.7812C203.109 79.5 203.18 79.2812 203.32 79.125C203.477 78.9531 203.805 78.7266 204.305 78.4453C205.805 77.6172 206.555 76.1094 206.555 73.9219V57.2344ZM228.844 66.9141L226.359 62.7188V56.2266C226.359 54.9141 226.164 53.9141 225.773 53.2266C225.398 52.5234 224.727 51.9219 223.758 51.4219C223.43 51.2656 223.203 51.1016 223.078 50.9297C222.953 50.7422 222.891 50.5078 222.891 50.2266C222.891 49.8047 223.023 49.5 223.289 49.3125C223.57 49.1094 224.016 49.0078 224.625 49.0078H230.484C231.281 49.0078 231.805 49.1328 232.055 49.3828C232.32 49.6328 232.453 49.9297 232.453 50.2734C232.453 50.6016 232.375 50.8516 232.219 51.0234C232.078 51.1797 231.727 51.3984 231.164 51.6797C230.336 52.1016 229.711 52.75 229.289 53.625C228.992 54.2656 228.844 55.1328 228.844 56.2266V66.9141ZM247.57 48.375V50.9766C246.195 51.3047 245.508 52.3984 245.508 54.2578V76.0781C245.508 76.9219 245.625 77.5703 245.859 78.0234C246.062 78.3984 246.492 78.7188 247.148 78.9844V81.6328C246.648 81.6328 246.188 81.5938 245.766 81.5156C245.359 81.4375 244.812 81.2812 244.125 81.0469C242.484 80.4844 241 79.625 239.672 78.4688C238.344 77.3125 237.25 75.9297 236.391 74.3203C235.062 71.8047 234.398 68.8281 234.398 65.3906C234.398 62.0625 234.992 59.1094 236.18 56.5312C237.367 53.9531 239.07 51.9297 241.289 50.4609C242.57 49.6016 243.945 48.9844 245.414 48.6094C246.023 48.4531 246.742 48.375 247.57 48.375ZM249.492 50.9297V48.3984C252.039 48.6328 254.133 49.1016 255.773 49.8047C256.258 50.0234 256.633 50.1328 256.898 50.1328C257.148 50.1328 257.336 50.0781 257.461 49.9688C257.602 49.8438 257.875 49.5078 258.281 48.9609C258.562 48.5703 258.914 48.375 259.336 48.375C259.773 48.375 260.078 48.5 260.25 48.75C260.438 48.9844 260.531 49.3828 260.531 49.9453V59.0625C260.531 60.25 260.094 60.8438 259.219 60.8438C258.781 60.8438 258.453 60.7266 258.234 60.4922C258.031 60.2578 257.836 59.7969 257.648 59.1094C257.414 58.2344 256.992 57.2188 256.383 56.0625C255.773 54.8906 255.188 53.9688 254.625 53.2969C253.984 52.5156 253.266 51.9453 252.469 51.5859C251.672 51.2109 250.68 50.9922 249.492 50.9297ZM260.086 77.0859C259.461 77.7109 258.625 78.3516 257.578 79.0078C256.547 79.6484 255.57 80.1562 254.648 80.5312C253.805 80.8594 252.867 81.125 251.836 81.3281C250.82 81.5312 249.922 81.6328 249.141 81.6328V78.9844C249.594 78.875 249.93 78.7422 250.148 78.5859C250.383 78.4297 250.578 78.2109 250.734 77.9297C251 77.4453 251.133 76.8281 251.133 76.0781V69.2344C251.133 68.625 251.016 68.1875 250.781 67.9219C250.672 67.7656 250.562 67.6719 250.453 67.6406C250.344 67.5938 249.984 67.5 249.375 67.3594C248.625 67.1719 248.25 66.7344 248.25 66.0469C248.25 65.6406 248.422 65.3281 248.766 65.1094C249.125 64.8906 249.648 64.7812 250.336 64.7812H251.109H259.688C260.391 64.7812 260.883 64.8828 261.164 65.0859C261.461 65.2734 261.609 65.6094 261.609 66.0938C261.609 66.3906 261.547 66.6406 261.422 66.8438C261.312 67.0312 261.102 67.2344 260.789 67.4531C260.477 67.6719 260.281 67.875 260.203 68.0625C260.125 68.25 260.086 68.5938 260.086 69.0938V77.0859Z" fill="white"/>
</svg>
