<svg width="45" height="46" viewBox="0 0 45 46" fill="none" xmlns="http://www.w3.org/2000/svg">
<path d="M10.0649 34.3976C10.5984 33.8531 11.3192 33.5363 12.078 33.5129C12.8369 33.4895 13.5755 33.7612 14.1411 34.2719C14.7066 34.7825 15.0556 35.4928 15.1157 36.2557C15.1759 37.0186 14.9426 37.7756 14.4643 38.3699L14.249 38.6131L8.81364 44.0923C8.19264 44.7188 7.36315 45.0907 6.48577 45.136C5.60838 45.1814 4.7455 44.897 4.06417 44.3379L3.79453 44.0923L0.86869 41.1405C0.333855 40.6015 0.0242238 39.8765 0.00347936 39.1144C-0.0172651 38.3524 0.252454 37.6113 0.757164 37.0435C1.26187 36.4758 1.9632 36.1247 2.71691 36.0622C3.47061 35.9998 4.21939 36.2309 4.80923 36.708L5.05049 36.925L6.30408 38.1887L10.0649 34.3976ZM40.6715 35.9808C41.6124 35.9808 42.5149 36.3576 43.1802 37.0283C43.8456 37.6991 44.2194 38.6088 44.2194 39.5573C44.2194 40.5059 43.8456 41.4156 43.1802 42.0863C42.5149 42.757 41.6124 43.1338 40.6715 43.1338H21.7493C20.8083 43.1338 19.9059 42.757 19.2406 42.0863C18.5752 41.4156 18.2014 40.5059 18.2014 39.5573C18.2014 38.6088 18.5752 37.6991 19.2406 37.0283C19.9059 36.3576 20.8083 35.9808 21.7493 35.9808H40.6715ZM14.2514 17.7072C14.526 17.984 14.7439 18.3126 14.8925 18.6742C15.0411 19.0359 15.1176 19.4235 15.1176 19.815C15.1176 20.2064 15.0411 20.594 14.8925 20.9557C14.7439 21.3174 14.526 21.6459 14.2514 21.9227L8.81127 27.4019C8.48179 27.7343 8.09057 27.9979 7.65997 28.1778C7.22937 28.3577 6.76783 28.4503 6.30172 28.4503C5.83561 28.4503 5.37407 28.3577 4.94347 28.1778C4.51287 27.9979 4.12165 27.7343 3.79217 27.4019L0.866325 24.4501C0.311784 23.8911 0.000246377 23.1329 0.000246377 22.3424C0.000246377 21.5518 0.311784 20.7936 0.866325 20.2346C1.42087 19.6756 2.17299 19.3615 2.95723 19.3615C3.74147 19.3615 4.49359 19.6756 5.04813 20.2346L6.30172 21.4983L10.0625 17.7072C10.3371 17.43 10.6632 17.2101 11.0222 17.0601C11.3812 16.91 11.766 16.8328 12.1546 16.8328C12.5432 16.8328 12.928 16.91 13.287 17.0601C13.646 17.2101 13.9721 17.43 14.2467 17.7072H14.2514ZM40.6715 19.2904C41.5828 19.2902 42.4593 19.6436 43.1192 20.2773C43.779 20.9109 44.1717 21.7762 44.2158 22.6938C44.2599 23.6115 43.9521 24.511 43.356 25.206C42.76 25.901 41.9215 26.3381 41.0145 26.4267L40.6715 26.4434H21.7493C20.8382 26.443 19.9621 26.0892 19.3027 25.4553C18.6433 24.8215 18.251 23.9562 18.2073 23.0388C18.1635 22.1214 18.4715 21.2221 19.0675 20.5274C19.6635 19.8327 20.5018 19.3957 21.4087 19.3071L21.7493 19.2904H40.6715ZM10.0649 1.01682C10.5984 0.472307 11.3192 0.155538 12.078 0.132133C12.8369 0.108727 13.5755 0.380479 14.1411 0.89109C14.7066 1.4017 15.0556 2.11204 15.1157 2.87494C15.1759 3.63785 14.9426 4.39485 14.4643 4.98913L14.249 5.22995L8.81127 10.7115C8.19027 11.338 7.36079 11.7099 6.4834 11.7553C5.60602 11.8006 4.74314 11.5162 4.06181 10.9571L3.79217 10.7115L0.866325 7.75973C0.331489 7.22077 0.0218582 6.4957 0.00111369 5.73365C-0.0196308 4.97159 0.250089 4.2305 0.754799 3.66278C1.25951 3.09506 1.96084 2.74388 2.71454 2.68147C3.46824 2.61906 4.21702 2.85016 4.80687 3.32724L5.04813 3.54422L6.30172 4.80792L10.0649 1.01682ZM40.6715 2.60002C41.5828 2.59986 42.4593 2.95323 43.1192 3.58688C43.779 4.22052 44.1717 5.08585 44.2158 6.00346C44.2599 6.92108 43.9521 7.82062 43.356 8.5156C42.76 9.21058 41.9215 9.6477 41.0145 9.73635L40.6715 9.75304H21.7493C20.8382 9.75259 19.9621 9.39878 19.3027 8.76495C18.6433 8.13111 18.251 7.26583 18.2073 6.34841C18.1635 5.43098 18.4715 4.53173 19.0675 3.83701C19.6635 3.14229 20.5018 2.70534 21.4087 2.61671L21.7493 2.60002H40.6715Z" fill="white"/>
</svg>
