<svg width="45" height="45" viewBox="0 0 45 45" fill="none" xmlns="http://www.w3.org/2000/svg">
<path d="M28 2.25574C31.024 2.25574 33.824 3.22949 36.113 4.89199L14.8003 26.5829C14.5775 26.802 14.3997 27.064 14.2774 27.3538C14.1551 27.6435 14.0908 27.9552 14.0881 28.2705C14.0854 28.5859 14.1444 28.8986 14.2617 29.1905C14.3791 29.4824 14.5523 29.7476 14.7714 29.9706C14.9905 30.1936 15.251 30.3699 15.5378 30.4893C15.8245 30.6087 16.1318 30.6688 16.4416 30.6661C16.7514 30.6633 17.0576 30.5978 17.3423 30.4734C17.627 30.3489 17.8844 30.168 18.0997 29.9411L39.4123 8.24787C41.0996 10.6586 42.0044 13.5458 42 16.5057V40.2557C42 41.5155 41.5083 42.7237 40.6332 43.6145C39.758 44.5053 38.571 45.0057 37.3333 45.0057H4.66667C3.42899 45.0057 2.242 44.5053 1.36683 43.6145C0.491665 42.7237 0 41.5155 0 40.2557V7.00574C0 5.74596 0.491665 4.53778 1.36683 3.64699C2.242 2.75619 3.42899 2.25574 4.66667 2.25574H28ZM43.533 0.695368C43.9704 1.14075 44.2162 1.74473 44.2162 2.37449C44.2162 3.00426 43.9704 3.60824 43.533 4.05362L39.41 8.24787C38.5014 6.94949 37.3863 5.8145 36.1107 4.88962L40.2313 0.695368C40.6689 0.250124 41.2623 0 41.881 0C42.4997 0 43.0954 0.250124 43.533 0.695368Z" fill="white"/>
</svg>
