<svg width="95" height="94" viewBox="0 0 95 94" fill="none" xmlns="http://www.w3.org/2000/svg">
<path d="M65.266 94V57.622H77.4494L79.272 43.4802H65.266V34.4614C65.266 30.3672 66.4044 27.5733 72.2742 27.5733H79.7629V14.9199C76.1376 14.5352 72.494 14.3487 68.8484 14.3611C58.0541 14.3611 50.6647 20.9516 50.6647 33.0567V43.4802H38.4551V57.622H50.6647V94H5.72222C4.3372 94 3.00891 93.4498 2.02955 92.4705C1.0502 91.4911 0.5 90.1628 0.5 88.7778V5.22222C0.5 3.8372 1.0502 2.50891 2.02955 1.52955C3.00891 0.550197 4.3372 0 5.72222 0H89.2778C90.6628 0 91.9911 0.550197 92.9705 1.52955C93.9498 2.50891 94.5 3.8372 94.5 5.22222V88.7778C94.5 90.1628 93.9498 91.4911 92.9705 92.4705C91.9911 93.4498 90.6628 94 89.2778 94H65.266Z" fill="#1E1E1E"/>
</svg>
