<svg width="94" height="94" viewBox="0 0 94 94" fill="none" xmlns="http://www.w3.org/2000/svg">
<path d="M47.0047 32.9C43.2651 32.9 39.6788 34.3855 37.0345 37.0298C34.3902 39.6741 32.9047 43.2604 32.9047 47C32.9047 50.7396 34.3902 54.3259 37.0345 56.9702C39.6788 59.6145 43.2651 61.1 47.0047 61.1C50.7443 61.1 54.3306 59.6145 56.9749 56.9702C59.6192 54.3259 61.1047 50.7396 61.1047 47C61.1047 43.2604 59.6192 39.6741 56.9749 37.0298C54.3306 34.3855 50.7443 32.9 47.0047 32.9ZM47.0047 23.5C53.2373 23.5 59.2146 25.9759 63.6217 30.383C68.0288 34.7901 70.5047 40.7674 70.5047 47C70.5047 53.2326 68.0288 59.2099 63.6217 63.617C59.2146 68.0241 53.2373 70.5 47.0047 70.5C40.7721 70.5 34.7948 68.0241 30.3877 63.617C25.9806 59.2099 23.5047 53.2326 23.5047 47C23.5047 40.7674 25.9806 34.7901 30.3877 30.383C34.7948 25.9759 40.7721 23.5 47.0047 23.5ZM77.5547 22.325C77.5547 23.8831 76.9357 25.3775 75.834 26.4793C74.7322 27.581 73.2378 28.2 71.6797 28.2C70.1215 28.2 68.6272 27.581 67.5254 26.4793C66.4237 25.3775 65.8047 23.8831 65.8047 22.325C65.8047 20.7669 66.4237 19.2725 67.5254 18.1707C68.6272 17.069 70.1215 16.45 71.6797 16.45C73.2378 16.45 74.7322 17.069 75.834 18.1707C76.9357 19.2725 77.5547 20.7669 77.5547 22.325ZM47.0047 9.4C35.3769 9.4 33.4781 9.4329 28.0684 9.6726C24.3836 9.8465 21.9114 10.34 19.6178 11.233C17.6984 11.9377 15.9631 13.0672 14.5418 14.5371C13.0707 15.9584 11.9397 17.6935 11.233 19.6131C10.34 21.9161 9.8465 24.3836 9.6773 28.0637C9.4329 33.2525 9.4 35.0667 9.4 47C9.4 58.6325 9.4329 60.5266 9.6726 65.9363C9.8465 69.6164 10.34 72.0933 11.2283 74.3822C12.0273 76.4267 12.9673 77.8978 14.5277 79.4582C16.1116 81.0374 17.5827 81.9821 19.6037 82.7623C21.9255 83.66 24.3977 84.1582 28.0637 84.3274C33.2525 84.5718 35.0667 84.6 47 84.6C58.6325 84.6 60.5266 84.5671 65.9363 84.3274C69.6117 84.1535 72.0839 83.66 74.3822 82.7717C76.2999 82.0635 78.0344 80.9345 79.4582 79.4676C81.0421 77.8884 81.9868 76.4173 82.767 74.3916C83.66 72.0792 84.1582 69.607 84.3274 65.9316C84.5718 60.7475 84.6 58.9286 84.6 47C84.6 35.3722 84.5671 33.4734 84.3274 28.0637C84.1535 24.3883 83.6553 21.9067 82.767 19.6131C82.0585 17.6956 80.9295 15.9611 79.4629 14.5371C78.0422 13.0653 76.3069 11.9341 74.3869 11.2283C72.0839 10.3353 69.6117 9.8418 65.9363 9.6726C60.7522 9.4282 58.938 9.4 47 9.4M47 0C59.7699 0 61.3632 0.0469997 66.3781 0.282C71.3789 0.517 74.7911 1.3019 77.785 2.4675C80.887 3.6613 83.5002 5.2781 86.1134 7.8866C88.5033 10.2361 90.3526 13.0782 91.5325 16.215C92.6934 19.2089 93.483 22.6211 93.718 27.6266C93.9389 32.6368 94 34.2301 94 47C94 59.7699 93.953 61.3632 93.718 66.3734C93.483 71.3789 92.6934 74.7864 91.5325 77.785C90.3558 80.9235 88.5061 83.7662 86.1134 86.1134C83.7632 88.5025 80.9213 90.3516 77.785 91.5325C74.7911 92.6934 71.3789 93.483 66.3781 93.718C61.3632 93.9389 59.7699 94 47 94C34.2301 94 32.6368 93.953 27.6219 93.718C22.6211 93.483 19.2136 92.6934 16.215 91.5325C13.0769 90.355 10.2344 88.5054 7.8866 86.1134C5.49633 83.7642 3.64701 80.922 2.4675 77.785C1.3019 74.7911 0.517 71.3789 0.282 66.3734C0.0563997 61.3632 0 59.7699 0 47C0 34.2301 0.0469997 32.6368 0.282 27.6266C0.517 22.6211 1.3019 19.2136 2.4675 16.215C3.64361 13.0762 5.49338 10.2334 7.8866 7.8866C10.2351 5.49539 13.0774 3.64593 16.215 2.4675C19.2089 1.3019 22.6164 0.517 27.6219 0.282C32.6415 0.0610997 34.2348 0 47.0047 0" fill="#1E1E1E"/>
</svg>
