<svg width="423" height="94" viewBox="0 0 423 94" fill="none" xmlns="http://www.w3.org/2000/svg">
<path d="M74.0305 0H88.4444L56.9542 39.8174L94 94H64.9891L42.2702 61.1386L16.2745 94H1.85185L35.5338 51.4108L0 0H29.7386L50.2745 30.0366L74.0305 0ZM68.9717 84.4554H76.9586L25.403 9.04328H16.8322L68.9717 84.4554Z" fill="#1E1E1E"/>
<path d="M229.266 94V57.622H241.449L243.272 43.4802H229.266V34.4614C229.266 30.3672 230.404 27.5733 236.274 27.5733H243.763V14.9199C240.138 14.5352 236.494 14.3487 232.848 14.3611C222.054 14.3611 214.665 20.9516 214.665 33.0567V43.4802H202.455V57.622H214.665V94H169.722C168.337 94 167.009 93.4498 166.03 92.4705C165.05 91.4911 164.5 90.1628 164.5 88.7778V5.22222C164.5 3.8372 165.05 2.50891 166.03 1.52955C167.009 0.550197 168.337 0 169.722 0H253.278C254.663 0 255.991 0.550197 256.97 1.52955C257.95 2.50891 258.5 3.8372 258.5 5.22222V88.7778C258.5 90.1628 257.95 91.4911 256.97 92.4705C255.991 93.4498 254.663 94 253.278 94H229.266Z" fill="#1E1E1E"/>
<path d="M376.005 32.9C372.265 32.9 368.679 34.3855 366.034 37.0298C363.39 39.6741 361.905 43.2604 361.905 47C361.905 50.7396 363.39 54.3259 366.034 56.9702C368.679 59.6145 372.265 61.1 376.005 61.1C379.744 61.1 383.331 59.6145 385.975 56.9702C388.619 54.3259 390.105 50.7396 390.105 47C390.105 43.2604 388.619 39.6741 385.975 37.0298C383.331 34.3855 379.744 32.9 376.005 32.9ZM376.005 23.5C382.237 23.5 388.215 25.9759 392.622 30.383C397.029 34.7901 399.505 40.7674 399.505 47C399.505 53.2326 397.029 59.2099 392.622 63.617C388.215 68.0241 382.237 70.5 376.005 70.5C369.772 70.5 363.795 68.0241 359.388 63.617C354.981 59.2099 352.505 53.2326 352.505 47C352.505 40.7674 354.981 34.7901 359.388 30.383C363.795 25.9759 369.772 23.5 376.005 23.5ZM406.555 22.325C406.555 23.8831 405.936 25.3775 404.834 26.4793C403.732 27.581 402.238 28.2 400.68 28.2C399.122 28.2 397.627 27.581 396.525 26.4793C395.424 25.3775 394.805 23.8831 394.805 22.325C394.805 20.7669 395.424 19.2725 396.525 18.1707C397.627 17.069 399.122 16.45 400.68 16.45C402.238 16.45 403.732 17.069 404.834 18.1707C405.936 19.2725 406.555 20.7669 406.555 22.325ZM376.005 9.4C364.377 9.4 362.478 9.4329 357.068 9.6726C353.384 9.8465 350.911 10.34 348.618 11.233C346.698 11.9377 344.963 13.0672 343.542 14.5371C342.071 15.9584 340.94 17.6935 340.233 19.6131C339.34 21.9161 338.846 24.3836 338.677 28.0637C338.433 33.2525 338.4 35.0667 338.4 47C338.4 58.6325 338.433 60.5266 338.673 65.9363C338.847 69.6164 339.34 72.0933 340.228 74.3822C341.027 76.4267 341.967 77.8978 343.528 79.4582C345.112 81.0374 346.583 81.9821 348.604 82.7623C350.925 83.66 353.398 84.1582 357.064 84.3274C362.252 84.5718 364.067 84.6 376 84.6C387.632 84.6 389.527 84.5671 394.936 84.3274C398.612 84.1535 401.084 83.66 403.382 82.7717C405.3 82.0635 407.034 80.9345 408.458 79.4676C410.042 77.8884 410.987 76.4173 411.767 74.3916C412.66 72.0792 413.158 69.607 413.327 65.9316C413.572 60.7475 413.6 58.9286 413.6 47C413.6 35.3722 413.567 33.4734 413.327 28.0637C413.153 24.3883 412.655 21.9067 411.767 19.6131C411.059 17.6956 409.93 15.9611 408.463 14.5371C407.042 13.0653 405.307 11.9341 403.387 11.2283C401.084 10.3353 398.612 9.8418 394.936 9.6726C389.752 9.4282 387.938 9.4 376 9.4M376 0C388.77 0 390.363 0.0469997 395.378 0.282C400.379 0.517 403.791 1.3019 406.785 2.4675C409.887 3.6613 412.5 5.2781 415.113 7.8866C417.503 10.2361 419.353 13.0782 420.533 16.215C421.693 19.2089 422.483 22.6211 422.718 27.6266C422.939 32.6368 423 34.2301 423 47C423 59.7699 422.953 61.3632 422.718 66.3734C422.483 71.3789 421.693 74.7864 420.533 77.785C419.356 80.9235 417.506 83.7662 415.113 86.1134C412.763 88.5025 409.921 90.3516 406.785 91.5325C403.791 92.6934 400.379 93.483 395.378 93.718C390.363 93.9389 388.77 94 376 94C363.23 94 361.637 93.953 356.622 93.718C351.621 93.483 348.214 92.6934 345.215 91.5325C342.077 90.355 339.234 88.5054 336.887 86.1134C334.496 83.7642 332.647 80.922 331.468 77.785C330.302 74.7911 329.517 71.3789 329.282 66.3734C329.056 61.3632 329 59.7699 329 47C329 34.2301 329.047 32.6368 329.282 27.6266C329.517 22.6211 330.302 19.2136 331.468 16.215C332.644 13.0762 334.493 10.2334 336.887 7.8866C339.235 5.49539 342.077 3.64593 345.215 2.4675C348.209 1.3019 351.616 0.517 356.622 0.282C361.641 0.0610997 363.235 0 376.005 0" fill="#1E1E1E"/>
</svg>
